G04 MADE WITH FRITZING*
G04 WWW.FRITZING.ORG*
G04 DOUBLE SIDED*
G04 HOLES PLATED*
G04 CONTOUR ON CENTER OF CONTOUR VECTOR*
%ASAXBY*%
%FSLAX23Y23*%
%MOIN*%
%OFA0B0*%
%SFA1.0B1.0*%
%ADD10C,0.075000*%
%ADD11C,0.075833*%
%ADD12C,0.068000*%
%ADD13C,0.062992*%
%ADD14C,0.073889*%
%ADD15C,0.078000*%
%ADD16C,0.080000*%
%ADD17R,0.068000X0.068000*%
%ADD18R,0.075000X0.075000*%
%ADD19R,0.062992X0.062992*%
%ADD20R,0.078000X0.078000*%
%ADD21R,0.080000X0.080000*%
%ADD22C,0.024000*%
%ADD23R,0.001000X0.001000*%
%LNCOPPER0*%
G90*
G70*
G54D10*
X2613Y1466D03*
X2329Y880D03*
X131Y1991D03*
X2313Y289D03*
X2613Y278D03*
G54D11*
X742Y1992D03*
X842Y1992D03*
X949Y1992D03*
X1049Y1992D03*
X1149Y1992D03*
X1249Y1992D03*
X1349Y1992D03*
X1449Y1992D03*
X1549Y1992D03*
X1649Y1992D03*
X1819Y1992D03*
X1919Y1992D03*
X2019Y1992D03*
X2119Y1992D03*
X2219Y1992D03*
X2319Y1992D03*
X2419Y1992D03*
X2519Y1992D03*
X1119Y92D03*
X1219Y92D03*
X1319Y92D03*
X1419Y92D03*
X1519Y92D03*
X1619Y92D03*
X1719Y92D03*
X1819Y92D03*
X2019Y92D03*
X2119Y92D03*
X2219Y92D03*
X2319Y92D03*
X2419Y92D03*
X2519Y92D03*
G54D12*
X2191Y1446D03*
X2112Y1446D03*
X2033Y1446D03*
X1954Y1446D03*
X1875Y1446D03*
X1796Y1446D03*
X1717Y1446D03*
X1638Y1446D03*
X1559Y1446D03*
X1480Y1446D03*
X1480Y576D03*
X1559Y576D03*
X1638Y576D03*
X1717Y576D03*
X1796Y576D03*
X1875Y576D03*
X1954Y576D03*
X2033Y576D03*
X2112Y576D03*
X2191Y576D03*
G54D10*
X1794Y990D03*
X2194Y990D03*
X1488Y809D03*
X1088Y809D03*
X1491Y1186D03*
X1091Y1186D03*
X693Y1396D03*
X693Y996D03*
X1805Y849D03*
X2205Y849D03*
G54D13*
X2596Y667D03*
X2498Y667D03*
X1090Y671D03*
X1090Y572D03*
X473Y902D03*
X375Y902D03*
G54D14*
X264Y1560D03*
X264Y1660D03*
X264Y1760D03*
X264Y1860D03*
G54D10*
X589Y1397D03*
X589Y1797D03*
X2502Y1264D03*
X2102Y1264D03*
X1981Y1262D03*
X1581Y1262D03*
G54D13*
X2511Y411D03*
X2610Y411D03*
X1091Y1344D03*
X1091Y1443D03*
G54D15*
X844Y358D03*
X844Y458D03*
X844Y558D03*
G54D16*
X175Y1137D03*
X175Y999D03*
X175Y862D03*
G54D17*
X2191Y1446D03*
G54D18*
X1794Y990D03*
X1488Y809D03*
X1491Y1186D03*
X693Y1396D03*
X1805Y849D03*
G54D19*
X2596Y667D03*
X1090Y671D03*
X473Y902D03*
G54D18*
X589Y1397D03*
X2502Y1264D03*
X1981Y1262D03*
G54D19*
X2511Y411D03*
X1091Y1344D03*
G54D20*
X844Y358D03*
G54D21*
X175Y1137D03*
G54D22*
X2306Y425D02*
X2408Y338D01*
D02*
X1194Y425D02*
X2306Y425D01*
D02*
X1091Y549D02*
X1094Y481D01*
D02*
X2339Y475D02*
X2514Y316D01*
D02*
X1223Y811D02*
X1168Y740D01*
D02*
X1463Y809D02*
X1223Y811D01*
D02*
X2205Y824D02*
X2208Y672D01*
D02*
X2218Y990D02*
X2511Y991D01*
D02*
X2511Y991D02*
X2597Y922D01*
D02*
X1091Y1211D02*
X1091Y1321D01*
D02*
X1466Y1186D02*
X1228Y1188D01*
D02*
X1228Y1188D02*
X1164Y1238D01*
D02*
X1053Y1525D02*
X1081Y1464D01*
D02*
X1049Y1968D02*
X1053Y1525D01*
D02*
X1069Y375D02*
X864Y542D01*
D02*
X2125Y380D02*
X1069Y375D01*
D02*
X2218Y117D02*
X2211Y316D01*
D02*
X1036Y322D02*
X865Y444D01*
D02*
X2022Y322D02*
X1036Y322D01*
D02*
X2118Y117D02*
X2111Y244D01*
D02*
X881Y266D02*
X1944Y263D01*
D02*
X1944Y263D02*
X2017Y211D01*
D02*
X854Y335D02*
X881Y266D01*
D02*
X1517Y177D02*
X1518Y117D01*
D02*
X631Y225D02*
X1453Y216D01*
D02*
X586Y291D02*
X631Y225D01*
D02*
X589Y1372D02*
X586Y291D01*
D02*
X1453Y216D02*
X1517Y177D01*
D02*
X1164Y1238D02*
X1150Y1968D01*
D02*
X1090Y693D02*
X1088Y784D01*
D02*
X2519Y1968D02*
X2519Y1416D01*
D02*
X2519Y1416D02*
X2444Y1344D01*
D02*
X2444Y1344D02*
X2156Y1344D01*
D02*
X2156Y1344D02*
X2121Y1425D01*
D02*
X2017Y211D02*
X2019Y117D01*
D02*
X2111Y244D02*
X2022Y322D01*
D02*
X2211Y316D02*
X2125Y380D01*
D02*
X1094Y481D02*
X1194Y425D01*
D02*
X2408Y338D02*
X2418Y117D01*
D02*
X2514Y316D02*
X2518Y117D01*
D02*
X1239Y477D02*
X2339Y475D01*
D02*
X1175Y547D02*
X1239Y477D01*
D02*
X1168Y740D02*
X1175Y547D01*
D02*
X1794Y1015D02*
X1795Y1423D01*
D02*
X1804Y824D02*
X1796Y600D01*
D02*
X2033Y1350D02*
X2087Y1283D01*
D02*
X2033Y1423D02*
X2033Y1350D01*
D02*
X2006Y1262D02*
X2077Y1264D01*
D02*
X1486Y1330D02*
X1561Y1277D01*
D02*
X1481Y1423D02*
X1486Y1330D01*
D02*
X2597Y922D02*
X2596Y690D01*
D02*
X2208Y672D02*
X2494Y426D01*
D02*
X2514Y651D02*
X2608Y563D01*
D02*
X2608Y563D02*
X2610Y434D01*
G36*
X2564Y1569D02*
X2564Y1403D01*
X2562Y1403D01*
X2562Y1395D01*
X2560Y1395D01*
X2560Y1391D01*
X2558Y1391D01*
X2558Y1389D01*
X2556Y1389D01*
X2556Y1385D01*
X2554Y1385D01*
X2554Y1383D01*
X2552Y1383D01*
X2552Y1381D01*
X2550Y1381D01*
X2550Y1379D01*
X2548Y1379D01*
X2548Y1377D01*
X2546Y1377D01*
X2546Y1375D01*
X2544Y1375D01*
X2544Y1373D01*
X2542Y1373D01*
X2542Y1371D01*
X2540Y1371D01*
X2540Y1369D01*
X2538Y1369D01*
X2538Y1367D01*
X2536Y1367D01*
X2536Y1365D01*
X2534Y1365D01*
X2534Y1363D01*
X2532Y1363D01*
X2532Y1361D01*
X2530Y1361D01*
X2530Y1359D01*
X2526Y1359D01*
X2526Y1357D01*
X2524Y1357D01*
X2524Y1355D01*
X2522Y1355D01*
X2522Y1353D01*
X2520Y1353D01*
X2520Y1333D01*
X2572Y1333D01*
X2572Y1195D01*
X2674Y1195D01*
X2674Y1491D01*
X2672Y1491D01*
X2672Y1493D01*
X2670Y1493D01*
X2670Y1495D01*
X2666Y1495D01*
X2666Y1497D01*
X2664Y1497D01*
X2664Y1499D01*
X2662Y1499D01*
X2662Y1501D01*
X2660Y1501D01*
X2660Y1503D01*
X2658Y1503D01*
X2658Y1505D01*
X2654Y1505D01*
X2654Y1507D01*
X2652Y1507D01*
X2652Y1509D01*
X2650Y1509D01*
X2650Y1511D01*
X2648Y1511D01*
X2648Y1513D01*
X2646Y1513D01*
X2646Y1515D01*
X2644Y1515D01*
X2644Y1517D01*
X2640Y1517D01*
X2640Y1519D01*
X2638Y1519D01*
X2638Y1521D01*
X2636Y1521D01*
X2636Y1523D01*
X2634Y1523D01*
X2634Y1525D01*
X2632Y1525D01*
X2632Y1527D01*
X2628Y1527D01*
X2628Y1529D01*
X2626Y1529D01*
X2626Y1531D01*
X2624Y1531D01*
X2624Y1533D01*
X2622Y1533D01*
X2622Y1535D01*
X2620Y1535D01*
X2620Y1537D01*
X2618Y1537D01*
X2618Y1539D01*
X2614Y1539D01*
X2614Y1541D01*
X2612Y1541D01*
X2612Y1543D01*
X2610Y1543D01*
X2610Y1545D01*
X2608Y1545D01*
X2608Y1547D01*
X2606Y1547D01*
X2606Y1549D01*
X2602Y1549D01*
X2602Y1551D01*
X2600Y1551D01*
X2600Y1553D01*
X2598Y1553D01*
X2598Y1555D01*
X2596Y1555D01*
X2596Y1557D01*
X2594Y1557D01*
X2594Y1559D01*
X2592Y1559D01*
X2592Y1561D01*
X2590Y1561D01*
X2590Y1563D01*
X2588Y1563D01*
X2588Y1565D01*
X2586Y1565D01*
X2586Y1567D01*
X2584Y1567D01*
X2584Y1569D01*
X2564Y1569D01*
G37*
D02*
G36*
X1904Y1387D02*
X1904Y1385D01*
X1900Y1385D01*
X1900Y1383D01*
X1894Y1383D01*
X1894Y1381D01*
X1840Y1381D01*
X1840Y1311D01*
X1838Y1311D01*
X1838Y1193D01*
X1912Y1193D01*
X1912Y1331D01*
X1990Y1331D01*
X1990Y1381D01*
X1934Y1381D01*
X1934Y1383D01*
X1928Y1383D01*
X1928Y1385D01*
X1924Y1385D01*
X1924Y1387D01*
X1904Y1387D01*
G37*
D02*
G36*
X2170Y1299D02*
X2170Y1279D01*
X2172Y1279D01*
X2172Y1249D01*
X2170Y1249D01*
X2170Y1241D01*
X2168Y1241D01*
X2168Y1235D01*
X2166Y1235D01*
X2166Y1231D01*
X2164Y1231D01*
X2164Y1229D01*
X2162Y1229D01*
X2162Y1225D01*
X2160Y1225D01*
X2160Y1223D01*
X2158Y1223D01*
X2158Y1221D01*
X2156Y1221D01*
X2156Y1217D01*
X2154Y1217D01*
X2154Y1215D01*
X2152Y1215D01*
X2152Y1213D01*
X2150Y1213D01*
X2150Y1211D01*
X2148Y1211D01*
X2148Y1209D01*
X2144Y1209D01*
X2144Y1207D01*
X2142Y1207D01*
X2142Y1205D01*
X2140Y1205D01*
X2140Y1203D01*
X2136Y1203D01*
X2136Y1201D01*
X2132Y1201D01*
X2132Y1199D01*
X2128Y1199D01*
X2128Y1197D01*
X2122Y1197D01*
X2122Y1195D01*
X2432Y1195D01*
X2432Y1299D01*
X2170Y1299D01*
G37*
D02*
G36*
X2050Y1201D02*
X2050Y1195D01*
X2082Y1195D01*
X2082Y1197D01*
X2076Y1197D01*
X2076Y1199D01*
X2072Y1199D01*
X2072Y1201D01*
X2050Y1201D01*
G37*
D02*
G36*
X2050Y1195D02*
X2050Y1193D01*
X2674Y1193D01*
X2674Y1195D01*
X2050Y1195D01*
G37*
D02*
G36*
X2050Y1195D02*
X2050Y1193D01*
X2674Y1193D01*
X2674Y1195D01*
X2050Y1195D01*
G37*
D02*
G36*
X2050Y1195D02*
X2050Y1193D01*
X2674Y1193D01*
X2674Y1195D01*
X2050Y1195D01*
G37*
D02*
G36*
X1838Y1193D02*
X1838Y1191D01*
X2674Y1191D01*
X2674Y1193D01*
X1838Y1193D01*
G37*
D02*
G36*
X1838Y1193D02*
X1838Y1191D01*
X2674Y1191D01*
X2674Y1193D01*
X1838Y1193D01*
G37*
D02*
G36*
X1838Y1191D02*
X1838Y1059D01*
X2212Y1059D01*
X2212Y1057D01*
X2218Y1057D01*
X2218Y1055D01*
X2222Y1055D01*
X2222Y1053D01*
X2226Y1053D01*
X2226Y1051D01*
X2230Y1051D01*
X2230Y1049D01*
X2232Y1049D01*
X2232Y1047D01*
X2236Y1047D01*
X2236Y1045D01*
X2238Y1045D01*
X2238Y1043D01*
X2240Y1043D01*
X2240Y1041D01*
X2242Y1041D01*
X2242Y1039D01*
X2244Y1039D01*
X2244Y1037D01*
X2246Y1037D01*
X2246Y1035D01*
X2526Y1035D01*
X2526Y1033D01*
X2532Y1033D01*
X2532Y1031D01*
X2536Y1031D01*
X2536Y1029D01*
X2540Y1029D01*
X2540Y1027D01*
X2542Y1027D01*
X2542Y1025D01*
X2544Y1025D01*
X2544Y1023D01*
X2548Y1023D01*
X2548Y1021D01*
X2550Y1021D01*
X2550Y1019D01*
X2552Y1019D01*
X2552Y1017D01*
X2554Y1017D01*
X2554Y1015D01*
X2556Y1015D01*
X2556Y1013D01*
X2560Y1013D01*
X2560Y1011D01*
X2562Y1011D01*
X2562Y1009D01*
X2564Y1009D01*
X2564Y1007D01*
X2566Y1007D01*
X2566Y1005D01*
X2570Y1005D01*
X2570Y1003D01*
X2572Y1003D01*
X2572Y1001D01*
X2574Y1001D01*
X2574Y999D01*
X2576Y999D01*
X2576Y997D01*
X2580Y997D01*
X2580Y995D01*
X2582Y995D01*
X2582Y993D01*
X2584Y993D01*
X2584Y991D01*
X2586Y991D01*
X2586Y989D01*
X2590Y989D01*
X2590Y987D01*
X2592Y987D01*
X2592Y985D01*
X2594Y985D01*
X2594Y983D01*
X2596Y983D01*
X2596Y981D01*
X2600Y981D01*
X2600Y979D01*
X2602Y979D01*
X2602Y977D01*
X2604Y977D01*
X2604Y975D01*
X2606Y975D01*
X2606Y973D01*
X2610Y973D01*
X2610Y971D01*
X2612Y971D01*
X2612Y969D01*
X2614Y969D01*
X2614Y967D01*
X2616Y967D01*
X2616Y965D01*
X2618Y965D01*
X2618Y963D01*
X2622Y963D01*
X2622Y961D01*
X2624Y961D01*
X2624Y959D01*
X2626Y959D01*
X2626Y957D01*
X2628Y957D01*
X2628Y955D01*
X2630Y955D01*
X2630Y953D01*
X2632Y953D01*
X2632Y951D01*
X2634Y951D01*
X2634Y949D01*
X2636Y949D01*
X2636Y945D01*
X2638Y945D01*
X2638Y941D01*
X2640Y941D01*
X2640Y933D01*
X2642Y933D01*
X2642Y869D01*
X2640Y869D01*
X2640Y731D01*
X2674Y731D01*
X2674Y1191D01*
X1838Y1191D01*
G37*
D02*
G36*
X1864Y1059D02*
X1864Y917D01*
X1874Y917D01*
X1874Y779D01*
X1846Y779D01*
X1846Y731D01*
X1844Y731D01*
X1844Y671D01*
X1842Y671D01*
X1842Y643D01*
X2120Y643D01*
X2120Y641D01*
X2132Y641D01*
X2132Y639D01*
X2136Y639D01*
X2136Y637D01*
X2140Y637D01*
X2140Y635D01*
X2162Y635D01*
X2162Y637D01*
X2166Y637D01*
X2166Y657D01*
X2164Y657D01*
X2164Y727D01*
X2162Y727D01*
X2162Y793D01*
X2160Y793D01*
X2160Y795D01*
X2158Y795D01*
X2158Y797D01*
X2156Y797D01*
X2156Y799D01*
X2154Y799D01*
X2154Y801D01*
X2152Y801D01*
X2152Y803D01*
X2150Y803D01*
X2150Y807D01*
X2148Y807D01*
X2148Y809D01*
X2146Y809D01*
X2146Y811D01*
X2144Y811D01*
X2144Y815D01*
X2142Y815D01*
X2142Y819D01*
X2140Y819D01*
X2140Y823D01*
X2138Y823D01*
X2138Y829D01*
X2136Y829D01*
X2136Y869D01*
X2138Y869D01*
X2138Y873D01*
X2140Y873D01*
X2140Y879D01*
X2142Y879D01*
X2142Y883D01*
X2144Y883D01*
X2144Y885D01*
X2146Y885D01*
X2146Y889D01*
X2148Y889D01*
X2148Y891D01*
X2150Y891D01*
X2150Y893D01*
X2152Y893D01*
X2152Y895D01*
X2154Y895D01*
X2154Y897D01*
X2156Y897D01*
X2156Y899D01*
X2158Y899D01*
X2158Y901D01*
X2160Y901D01*
X2160Y903D01*
X2162Y903D01*
X2162Y905D01*
X2164Y905D01*
X2164Y927D01*
X2160Y927D01*
X2160Y929D01*
X2158Y929D01*
X2158Y931D01*
X2154Y931D01*
X2154Y933D01*
X2152Y933D01*
X2152Y935D01*
X2150Y935D01*
X2150Y937D01*
X2146Y937D01*
X2146Y939D01*
X2144Y939D01*
X2144Y941D01*
X2142Y941D01*
X2142Y943D01*
X2140Y943D01*
X2140Y947D01*
X2138Y947D01*
X2138Y949D01*
X2136Y949D01*
X2136Y951D01*
X2134Y951D01*
X2134Y955D01*
X2132Y955D01*
X2132Y957D01*
X2130Y957D01*
X2130Y961D01*
X2128Y961D01*
X2128Y967D01*
X2126Y967D01*
X2126Y973D01*
X2124Y973D01*
X2124Y1007D01*
X2126Y1007D01*
X2126Y1013D01*
X2128Y1013D01*
X2128Y1017D01*
X2130Y1017D01*
X2130Y1021D01*
X2132Y1021D01*
X2132Y1025D01*
X2134Y1025D01*
X2134Y1029D01*
X2136Y1029D01*
X2136Y1031D01*
X2138Y1031D01*
X2138Y1033D01*
X2140Y1033D01*
X2140Y1037D01*
X2142Y1037D01*
X2142Y1039D01*
X2144Y1039D01*
X2144Y1041D01*
X2146Y1041D01*
X2146Y1043D01*
X2150Y1043D01*
X2150Y1045D01*
X2152Y1045D01*
X2152Y1047D01*
X2154Y1047D01*
X2154Y1049D01*
X2158Y1049D01*
X2158Y1051D01*
X2160Y1051D01*
X2160Y1053D01*
X2164Y1053D01*
X2164Y1055D01*
X2170Y1055D01*
X2170Y1057D01*
X2176Y1057D01*
X2176Y1059D01*
X1864Y1059D01*
G37*
D02*
G36*
X1842Y643D02*
X1842Y641D01*
X1866Y641D01*
X1866Y643D01*
X1842Y643D01*
G37*
D02*
G36*
X1884Y643D02*
X1884Y641D01*
X1894Y641D01*
X1894Y639D01*
X1900Y639D01*
X1900Y637D01*
X1904Y637D01*
X1904Y635D01*
X1924Y635D01*
X1924Y637D01*
X1928Y637D01*
X1928Y639D01*
X1934Y639D01*
X1934Y641D01*
X1944Y641D01*
X1944Y643D01*
X1884Y643D01*
G37*
D02*
G36*
X1962Y643D02*
X1962Y641D01*
X1974Y641D01*
X1974Y639D01*
X1978Y639D01*
X1978Y637D01*
X1982Y637D01*
X1982Y635D01*
X2004Y635D01*
X2004Y637D01*
X2008Y637D01*
X2008Y639D01*
X2012Y639D01*
X2012Y641D01*
X2024Y641D01*
X2024Y643D01*
X1962Y643D01*
G37*
D02*
G36*
X2042Y643D02*
X2042Y641D01*
X2052Y641D01*
X2052Y639D01*
X2058Y639D01*
X2058Y637D01*
X2062Y637D01*
X2062Y635D01*
X2082Y635D01*
X2082Y637D01*
X2086Y637D01*
X2086Y639D01*
X2092Y639D01*
X2092Y641D01*
X2102Y641D01*
X2102Y643D01*
X2042Y643D01*
G37*
D02*
G36*
X2248Y947D02*
X2248Y945D01*
X2246Y945D01*
X2246Y943D01*
X2244Y943D01*
X2244Y941D01*
X2242Y941D01*
X2242Y939D01*
X2240Y939D01*
X2240Y937D01*
X2238Y937D01*
X2238Y935D01*
X2236Y935D01*
X2236Y933D01*
X2232Y933D01*
X2232Y913D01*
X2234Y913D01*
X2234Y911D01*
X2238Y911D01*
X2238Y909D01*
X2242Y909D01*
X2242Y907D01*
X2244Y907D01*
X2244Y905D01*
X2248Y905D01*
X2248Y903D01*
X2250Y903D01*
X2250Y901D01*
X2252Y901D01*
X2252Y899D01*
X2254Y899D01*
X2254Y897D01*
X2256Y897D01*
X2256Y895D01*
X2258Y895D01*
X2258Y893D01*
X2260Y893D01*
X2260Y889D01*
X2262Y889D01*
X2262Y887D01*
X2264Y887D01*
X2264Y885D01*
X2266Y885D01*
X2266Y881D01*
X2268Y881D01*
X2268Y877D01*
X2270Y877D01*
X2270Y873D01*
X2272Y873D01*
X2272Y865D01*
X2274Y865D01*
X2274Y831D01*
X2272Y831D01*
X2272Y825D01*
X2270Y825D01*
X2270Y821D01*
X2268Y821D01*
X2268Y817D01*
X2266Y817D01*
X2266Y813D01*
X2264Y813D01*
X2264Y809D01*
X2262Y809D01*
X2262Y807D01*
X2260Y807D01*
X2260Y805D01*
X2258Y805D01*
X2258Y803D01*
X2256Y803D01*
X2256Y801D01*
X2254Y801D01*
X2254Y799D01*
X2252Y799D01*
X2252Y797D01*
X2250Y797D01*
X2250Y743D01*
X2252Y743D01*
X2252Y731D01*
X2508Y731D01*
X2508Y729D01*
X2534Y729D01*
X2534Y731D01*
X2552Y731D01*
X2552Y899D01*
X2550Y899D01*
X2550Y901D01*
X2546Y901D01*
X2546Y903D01*
X2544Y903D01*
X2544Y905D01*
X2542Y905D01*
X2542Y907D01*
X2540Y907D01*
X2540Y909D01*
X2536Y909D01*
X2536Y911D01*
X2534Y911D01*
X2534Y913D01*
X2532Y913D01*
X2532Y915D01*
X2530Y915D01*
X2530Y917D01*
X2526Y917D01*
X2526Y919D01*
X2524Y919D01*
X2524Y921D01*
X2522Y921D01*
X2522Y923D01*
X2520Y923D01*
X2520Y925D01*
X2516Y925D01*
X2516Y927D01*
X2514Y927D01*
X2514Y929D01*
X2512Y929D01*
X2512Y931D01*
X2510Y931D01*
X2510Y933D01*
X2506Y933D01*
X2506Y935D01*
X2504Y935D01*
X2504Y937D01*
X2502Y937D01*
X2502Y939D01*
X2500Y939D01*
X2500Y941D01*
X2498Y941D01*
X2498Y943D01*
X2494Y943D01*
X2494Y945D01*
X2492Y945D01*
X2492Y947D01*
X2248Y947D01*
G37*
D02*
G36*
X2252Y731D02*
X2252Y695D01*
X2254Y695D01*
X2254Y693D01*
X2256Y693D01*
X2256Y691D01*
X2258Y691D01*
X2258Y689D01*
X2260Y689D01*
X2260Y687D01*
X2264Y687D01*
X2264Y685D01*
X2266Y685D01*
X2266Y683D01*
X2268Y683D01*
X2268Y681D01*
X2270Y681D01*
X2270Y679D01*
X2272Y679D01*
X2272Y677D01*
X2274Y677D01*
X2274Y675D01*
X2278Y675D01*
X2278Y673D01*
X2280Y673D01*
X2280Y671D01*
X2282Y671D01*
X2282Y669D01*
X2284Y669D01*
X2284Y667D01*
X2286Y667D01*
X2286Y665D01*
X2288Y665D01*
X2288Y663D01*
X2292Y663D01*
X2292Y661D01*
X2294Y661D01*
X2294Y659D01*
X2296Y659D01*
X2296Y657D01*
X2298Y657D01*
X2298Y655D01*
X2300Y655D01*
X2300Y653D01*
X2302Y653D01*
X2302Y651D01*
X2306Y651D01*
X2306Y649D01*
X2308Y649D01*
X2308Y647D01*
X2310Y647D01*
X2310Y645D01*
X2312Y645D01*
X2312Y643D01*
X2314Y643D01*
X2314Y641D01*
X2316Y641D01*
X2316Y639D01*
X2320Y639D01*
X2320Y637D01*
X2322Y637D01*
X2322Y635D01*
X2324Y635D01*
X2324Y633D01*
X2326Y633D01*
X2326Y631D01*
X2328Y631D01*
X2328Y629D01*
X2330Y629D01*
X2330Y627D01*
X2332Y627D01*
X2332Y625D01*
X2336Y625D01*
X2336Y623D01*
X2338Y623D01*
X2338Y621D01*
X2340Y621D01*
X2340Y619D01*
X2342Y619D01*
X2342Y617D01*
X2344Y617D01*
X2344Y615D01*
X2346Y615D01*
X2346Y613D01*
X2350Y613D01*
X2350Y611D01*
X2352Y611D01*
X2352Y609D01*
X2354Y609D01*
X2354Y607D01*
X2356Y607D01*
X2356Y605D01*
X2358Y605D01*
X2358Y603D01*
X2484Y603D01*
X2484Y605D01*
X2476Y605D01*
X2476Y607D01*
X2472Y607D01*
X2472Y609D01*
X2468Y609D01*
X2468Y611D01*
X2464Y611D01*
X2464Y613D01*
X2462Y613D01*
X2462Y615D01*
X2458Y615D01*
X2458Y617D01*
X2456Y617D01*
X2456Y619D01*
X2454Y619D01*
X2454Y621D01*
X2452Y621D01*
X2452Y623D01*
X2450Y623D01*
X2450Y625D01*
X2448Y625D01*
X2448Y627D01*
X2446Y627D01*
X2446Y631D01*
X2444Y631D01*
X2444Y633D01*
X2442Y633D01*
X2442Y637D01*
X2440Y637D01*
X2440Y639D01*
X2438Y639D01*
X2438Y645D01*
X2436Y645D01*
X2436Y651D01*
X2434Y651D01*
X2434Y683D01*
X2436Y683D01*
X2436Y689D01*
X2438Y689D01*
X2438Y693D01*
X2440Y693D01*
X2440Y697D01*
X2442Y697D01*
X2442Y701D01*
X2444Y701D01*
X2444Y703D01*
X2446Y703D01*
X2446Y707D01*
X2448Y707D01*
X2448Y709D01*
X2450Y709D01*
X2450Y711D01*
X2452Y711D01*
X2452Y713D01*
X2454Y713D01*
X2454Y715D01*
X2456Y715D01*
X2456Y717D01*
X2460Y717D01*
X2460Y719D01*
X2462Y719D01*
X2462Y721D01*
X2464Y721D01*
X2464Y723D01*
X2468Y723D01*
X2468Y725D01*
X2472Y725D01*
X2472Y727D01*
X2478Y727D01*
X2478Y729D01*
X2486Y729D01*
X2486Y731D01*
X2252Y731D01*
G37*
D02*
G36*
X2512Y605D02*
X2512Y603D01*
X2532Y603D01*
X2532Y605D01*
X2512Y605D01*
G37*
D02*
G36*
X2360Y603D02*
X2360Y601D01*
X2674Y601D01*
X2674Y603D01*
X2360Y603D01*
G37*
D02*
G36*
X2360Y603D02*
X2360Y601D01*
X2674Y601D01*
X2674Y603D01*
X2360Y603D01*
G37*
D02*
G36*
X2364Y601D02*
X2364Y599D01*
X2366Y599D01*
X2366Y597D01*
X2368Y597D01*
X2368Y595D01*
X2370Y595D01*
X2370Y593D01*
X2372Y593D01*
X2372Y591D01*
X2374Y591D01*
X2374Y589D01*
X2378Y589D01*
X2378Y587D01*
X2380Y587D01*
X2380Y585D01*
X2382Y585D01*
X2382Y583D01*
X2384Y583D01*
X2384Y581D01*
X2386Y581D01*
X2386Y579D01*
X2388Y579D01*
X2388Y577D01*
X2392Y577D01*
X2392Y575D01*
X2394Y575D01*
X2394Y573D01*
X2396Y573D01*
X2396Y571D01*
X2398Y571D01*
X2398Y569D01*
X2400Y569D01*
X2400Y567D01*
X2402Y567D01*
X2402Y565D01*
X2406Y565D01*
X2406Y563D01*
X2408Y563D01*
X2408Y561D01*
X2410Y561D01*
X2410Y559D01*
X2412Y559D01*
X2412Y557D01*
X2414Y557D01*
X2414Y555D01*
X2416Y555D01*
X2416Y553D01*
X2420Y553D01*
X2420Y551D01*
X2422Y551D01*
X2422Y549D01*
X2424Y549D01*
X2424Y547D01*
X2426Y547D01*
X2426Y545D01*
X2428Y545D01*
X2428Y543D01*
X2430Y543D01*
X2430Y541D01*
X2432Y541D01*
X2432Y539D01*
X2436Y539D01*
X2436Y537D01*
X2438Y537D01*
X2438Y535D01*
X2440Y535D01*
X2440Y533D01*
X2442Y533D01*
X2442Y531D01*
X2444Y531D01*
X2444Y529D01*
X2446Y529D01*
X2446Y527D01*
X2450Y527D01*
X2450Y525D01*
X2452Y525D01*
X2452Y523D01*
X2454Y523D01*
X2454Y521D01*
X2456Y521D01*
X2456Y519D01*
X2458Y519D01*
X2458Y517D01*
X2460Y517D01*
X2460Y515D01*
X2464Y515D01*
X2464Y513D01*
X2466Y513D01*
X2466Y511D01*
X2468Y511D01*
X2468Y509D01*
X2470Y509D01*
X2470Y507D01*
X2472Y507D01*
X2472Y505D01*
X2474Y505D01*
X2474Y503D01*
X2478Y503D01*
X2478Y501D01*
X2480Y501D01*
X2480Y499D01*
X2482Y499D01*
X2482Y497D01*
X2484Y497D01*
X2484Y495D01*
X2486Y495D01*
X2486Y493D01*
X2488Y493D01*
X2488Y491D01*
X2492Y491D01*
X2492Y489D01*
X2494Y489D01*
X2494Y487D01*
X2496Y487D01*
X2496Y485D01*
X2498Y485D01*
X2498Y483D01*
X2500Y483D01*
X2500Y481D01*
X2502Y481D01*
X2502Y479D01*
X2506Y479D01*
X2506Y477D01*
X2508Y477D01*
X2508Y475D01*
X2622Y475D01*
X2622Y473D01*
X2630Y473D01*
X2630Y471D01*
X2636Y471D01*
X2636Y469D01*
X2640Y469D01*
X2640Y467D01*
X2642Y467D01*
X2642Y465D01*
X2646Y465D01*
X2646Y463D01*
X2648Y463D01*
X2648Y461D01*
X2650Y461D01*
X2650Y459D01*
X2652Y459D01*
X2652Y457D01*
X2674Y457D01*
X2674Y601D01*
X2364Y601D01*
G37*
D02*
G36*
X2574Y475D02*
X2574Y473D01*
X2598Y473D01*
X2598Y475D01*
X2574Y475D01*
G37*
D02*
G36*
X52Y2049D02*
X52Y1929D01*
X280Y1929D01*
X280Y1927D01*
X286Y1927D01*
X286Y1925D01*
X292Y1925D01*
X292Y1923D01*
X722Y1923D01*
X722Y1925D01*
X716Y1925D01*
X716Y1927D01*
X712Y1927D01*
X712Y1929D01*
X708Y1929D01*
X708Y1931D01*
X706Y1931D01*
X706Y1933D01*
X702Y1933D01*
X702Y1935D01*
X700Y1935D01*
X700Y1937D01*
X698Y1937D01*
X698Y1939D01*
X694Y1939D01*
X694Y1941D01*
X692Y1941D01*
X692Y1943D01*
X690Y1943D01*
X690Y1945D01*
X688Y1945D01*
X688Y1949D01*
X686Y1949D01*
X686Y1951D01*
X684Y1951D01*
X684Y1953D01*
X682Y1953D01*
X682Y1957D01*
X680Y1957D01*
X680Y1961D01*
X678Y1961D01*
X678Y1965D01*
X676Y1965D01*
X676Y1969D01*
X674Y1969D01*
X674Y1977D01*
X672Y1977D01*
X672Y2007D01*
X674Y2007D01*
X674Y2015D01*
X676Y2015D01*
X676Y2019D01*
X678Y2019D01*
X678Y2023D01*
X680Y2023D01*
X680Y2027D01*
X682Y2027D01*
X682Y2049D01*
X52Y2049D01*
G37*
D02*
G36*
X1708Y2049D02*
X1708Y2029D01*
X1710Y2029D01*
X1710Y2025D01*
X1712Y2025D01*
X1712Y2023D01*
X1714Y2023D01*
X1714Y2017D01*
X1716Y2017D01*
X1716Y2011D01*
X1718Y2011D01*
X1718Y1973D01*
X1716Y1973D01*
X1716Y1967D01*
X1714Y1967D01*
X1714Y1961D01*
X1712Y1961D01*
X1712Y1959D01*
X1710Y1959D01*
X1710Y1955D01*
X1708Y1955D01*
X1708Y1953D01*
X1706Y1953D01*
X1706Y1949D01*
X1704Y1949D01*
X1704Y1947D01*
X1702Y1947D01*
X1702Y1945D01*
X1700Y1945D01*
X1700Y1943D01*
X1698Y1943D01*
X1698Y1941D01*
X1696Y1941D01*
X1696Y1939D01*
X1694Y1939D01*
X1694Y1937D01*
X1692Y1937D01*
X1692Y1935D01*
X1688Y1935D01*
X1688Y1933D01*
X1686Y1933D01*
X1686Y1931D01*
X1682Y1931D01*
X1682Y1929D01*
X1678Y1929D01*
X1678Y1927D01*
X1674Y1927D01*
X1674Y1925D01*
X1668Y1925D01*
X1668Y1923D01*
X1800Y1923D01*
X1800Y1925D01*
X1794Y1925D01*
X1794Y1927D01*
X1790Y1927D01*
X1790Y1929D01*
X1786Y1929D01*
X1786Y1931D01*
X1782Y1931D01*
X1782Y1933D01*
X1780Y1933D01*
X1780Y1935D01*
X1776Y1935D01*
X1776Y1937D01*
X1774Y1937D01*
X1774Y1939D01*
X1772Y1939D01*
X1772Y1941D01*
X1770Y1941D01*
X1770Y1943D01*
X1768Y1943D01*
X1768Y1945D01*
X1766Y1945D01*
X1766Y1947D01*
X1764Y1947D01*
X1764Y1949D01*
X1762Y1949D01*
X1762Y1953D01*
X1760Y1953D01*
X1760Y1955D01*
X1758Y1955D01*
X1758Y1959D01*
X1756Y1959D01*
X1756Y1963D01*
X1754Y1963D01*
X1754Y1967D01*
X1752Y1967D01*
X1752Y1973D01*
X1750Y1973D01*
X1750Y2011D01*
X1752Y2011D01*
X1752Y2017D01*
X1754Y2017D01*
X1754Y2021D01*
X1756Y2021D01*
X1756Y2025D01*
X1758Y2025D01*
X1758Y2029D01*
X1760Y2029D01*
X1760Y2049D01*
X1708Y2049D01*
G37*
D02*
G36*
X884Y1937D02*
X884Y1935D01*
X882Y1935D01*
X882Y1933D01*
X878Y1933D01*
X878Y1931D01*
X876Y1931D01*
X876Y1929D01*
X872Y1929D01*
X872Y1927D01*
X868Y1927D01*
X868Y1925D01*
X862Y1925D01*
X862Y1923D01*
X930Y1923D01*
X930Y1925D01*
X924Y1925D01*
X924Y1927D01*
X920Y1927D01*
X920Y1929D01*
X916Y1929D01*
X916Y1931D01*
X912Y1931D01*
X912Y1933D01*
X910Y1933D01*
X910Y1935D01*
X906Y1935D01*
X906Y1937D01*
X884Y1937D01*
G37*
D02*
G36*
X782Y1935D02*
X782Y1933D01*
X778Y1933D01*
X778Y1931D01*
X776Y1931D01*
X776Y1929D01*
X772Y1929D01*
X772Y1927D01*
X768Y1927D01*
X768Y1925D01*
X762Y1925D01*
X762Y1923D01*
X822Y1923D01*
X822Y1925D01*
X816Y1925D01*
X816Y1927D01*
X812Y1927D01*
X812Y1929D01*
X808Y1929D01*
X808Y1931D01*
X806Y1931D01*
X806Y1933D01*
X802Y1933D01*
X802Y1935D01*
X782Y1935D01*
G37*
D02*
G36*
X988Y1935D02*
X988Y1933D01*
X986Y1933D01*
X986Y1931D01*
X982Y1931D01*
X982Y1929D01*
X978Y1929D01*
X978Y1927D01*
X974Y1927D01*
X974Y1925D01*
X968Y1925D01*
X968Y1923D01*
X1030Y1923D01*
X1030Y1925D01*
X1024Y1925D01*
X1024Y1927D01*
X1020Y1927D01*
X1020Y1929D01*
X1016Y1929D01*
X1016Y1931D01*
X1012Y1931D01*
X1012Y1933D01*
X1010Y1933D01*
X1010Y1935D01*
X988Y1935D01*
G37*
D02*
G36*
X1288Y1935D02*
X1288Y1933D01*
X1286Y1933D01*
X1286Y1931D01*
X1282Y1931D01*
X1282Y1929D01*
X1280Y1929D01*
X1280Y1927D01*
X1274Y1927D01*
X1274Y1925D01*
X1268Y1925D01*
X1268Y1923D01*
X1330Y1923D01*
X1330Y1925D01*
X1324Y1925D01*
X1324Y1927D01*
X1320Y1927D01*
X1320Y1929D01*
X1316Y1929D01*
X1316Y1931D01*
X1312Y1931D01*
X1312Y1933D01*
X1310Y1933D01*
X1310Y1935D01*
X1288Y1935D01*
G37*
D02*
G36*
X1388Y1935D02*
X1388Y1933D01*
X1386Y1933D01*
X1386Y1931D01*
X1382Y1931D01*
X1382Y1929D01*
X1380Y1929D01*
X1380Y1927D01*
X1374Y1927D01*
X1374Y1925D01*
X1368Y1925D01*
X1368Y1923D01*
X1430Y1923D01*
X1430Y1925D01*
X1424Y1925D01*
X1424Y1927D01*
X1420Y1927D01*
X1420Y1929D01*
X1416Y1929D01*
X1416Y1931D01*
X1412Y1931D01*
X1412Y1933D01*
X1410Y1933D01*
X1410Y1935D01*
X1388Y1935D01*
G37*
D02*
G36*
X1488Y1935D02*
X1488Y1933D01*
X1486Y1933D01*
X1486Y1931D01*
X1482Y1931D01*
X1482Y1929D01*
X1478Y1929D01*
X1478Y1927D01*
X1474Y1927D01*
X1474Y1925D01*
X1468Y1925D01*
X1468Y1923D01*
X1530Y1923D01*
X1530Y1925D01*
X1524Y1925D01*
X1524Y1927D01*
X1520Y1927D01*
X1520Y1929D01*
X1516Y1929D01*
X1516Y1931D01*
X1512Y1931D01*
X1512Y1933D01*
X1510Y1933D01*
X1510Y1935D01*
X1488Y1935D01*
G37*
D02*
G36*
X1588Y1935D02*
X1588Y1933D01*
X1586Y1933D01*
X1586Y1931D01*
X1582Y1931D01*
X1582Y1929D01*
X1578Y1929D01*
X1578Y1927D01*
X1574Y1927D01*
X1574Y1925D01*
X1568Y1925D01*
X1568Y1923D01*
X1630Y1923D01*
X1630Y1925D01*
X1624Y1925D01*
X1624Y1927D01*
X1620Y1927D01*
X1620Y1929D01*
X1616Y1929D01*
X1616Y1931D01*
X1612Y1931D01*
X1612Y1933D01*
X1610Y1933D01*
X1610Y1935D01*
X1588Y1935D01*
G37*
D02*
G36*
X1858Y1935D02*
X1858Y1933D01*
X1856Y1933D01*
X1856Y1931D01*
X1852Y1931D01*
X1852Y1929D01*
X1848Y1929D01*
X1848Y1927D01*
X1844Y1927D01*
X1844Y1925D01*
X1838Y1925D01*
X1838Y1923D01*
X1900Y1923D01*
X1900Y1925D01*
X1894Y1925D01*
X1894Y1927D01*
X1890Y1927D01*
X1890Y1929D01*
X1886Y1929D01*
X1886Y1931D01*
X1882Y1931D01*
X1882Y1933D01*
X1880Y1933D01*
X1880Y1935D01*
X1858Y1935D01*
G37*
D02*
G36*
X1958Y1935D02*
X1958Y1933D01*
X1956Y1933D01*
X1956Y1931D01*
X1952Y1931D01*
X1952Y1929D01*
X1948Y1929D01*
X1948Y1927D01*
X1944Y1927D01*
X1944Y1925D01*
X1938Y1925D01*
X1938Y1923D01*
X2000Y1923D01*
X2000Y1925D01*
X1994Y1925D01*
X1994Y1927D01*
X1990Y1927D01*
X1990Y1929D01*
X1986Y1929D01*
X1986Y1931D01*
X1982Y1931D01*
X1982Y1933D01*
X1980Y1933D01*
X1980Y1935D01*
X1958Y1935D01*
G37*
D02*
G36*
X2058Y1935D02*
X2058Y1933D01*
X2056Y1933D01*
X2056Y1931D01*
X2052Y1931D01*
X2052Y1929D01*
X2050Y1929D01*
X2050Y1927D01*
X2044Y1927D01*
X2044Y1925D01*
X2038Y1925D01*
X2038Y1923D01*
X2100Y1923D01*
X2100Y1925D01*
X2094Y1925D01*
X2094Y1927D01*
X2090Y1927D01*
X2090Y1929D01*
X2086Y1929D01*
X2086Y1931D01*
X2082Y1931D01*
X2082Y1933D01*
X2080Y1933D01*
X2080Y1935D01*
X2058Y1935D01*
G37*
D02*
G36*
X2158Y1935D02*
X2158Y1933D01*
X2156Y1933D01*
X2156Y1931D01*
X2152Y1931D01*
X2152Y1929D01*
X2150Y1929D01*
X2150Y1927D01*
X2144Y1927D01*
X2144Y1925D01*
X2138Y1925D01*
X2138Y1923D01*
X2200Y1923D01*
X2200Y1925D01*
X2194Y1925D01*
X2194Y1927D01*
X2190Y1927D01*
X2190Y1929D01*
X2186Y1929D01*
X2186Y1931D01*
X2182Y1931D01*
X2182Y1933D01*
X2180Y1933D01*
X2180Y1935D01*
X2158Y1935D01*
G37*
D02*
G36*
X2258Y1935D02*
X2258Y1933D01*
X2256Y1933D01*
X2256Y1931D01*
X2252Y1931D01*
X2252Y1929D01*
X2250Y1929D01*
X2250Y1927D01*
X2244Y1927D01*
X2244Y1925D01*
X2238Y1925D01*
X2238Y1923D01*
X2300Y1923D01*
X2300Y1925D01*
X2294Y1925D01*
X2294Y1927D01*
X2290Y1927D01*
X2290Y1929D01*
X2286Y1929D01*
X2286Y1931D01*
X2282Y1931D01*
X2282Y1933D01*
X2280Y1933D01*
X2280Y1935D01*
X2258Y1935D01*
G37*
D02*
G36*
X2358Y1935D02*
X2358Y1933D01*
X2356Y1933D01*
X2356Y1931D01*
X2352Y1931D01*
X2352Y1929D01*
X2350Y1929D01*
X2350Y1927D01*
X2344Y1927D01*
X2344Y1925D01*
X2338Y1925D01*
X2338Y1923D01*
X2400Y1923D01*
X2400Y1925D01*
X2394Y1925D01*
X2394Y1927D01*
X2390Y1927D01*
X2390Y1929D01*
X2386Y1929D01*
X2386Y1931D01*
X2382Y1931D01*
X2382Y1933D01*
X2380Y1933D01*
X2380Y1935D01*
X2358Y1935D01*
G37*
D02*
G36*
X1086Y1933D02*
X1086Y1931D01*
X1082Y1931D01*
X1082Y1929D01*
X1078Y1929D01*
X1078Y1927D01*
X1074Y1927D01*
X1074Y1925D01*
X1068Y1925D01*
X1068Y1923D01*
X1106Y1923D01*
X1106Y1933D01*
X1086Y1933D01*
G37*
D02*
G36*
X2456Y1933D02*
X2456Y1931D01*
X2452Y1931D01*
X2452Y1929D01*
X2450Y1929D01*
X2450Y1927D01*
X2444Y1927D01*
X2444Y1925D01*
X2438Y1925D01*
X2438Y1923D01*
X2476Y1923D01*
X2476Y1933D01*
X2456Y1933D01*
G37*
D02*
G36*
X1194Y1931D02*
X1194Y1923D01*
X1230Y1923D01*
X1230Y1925D01*
X1224Y1925D01*
X1224Y1927D01*
X1220Y1927D01*
X1220Y1929D01*
X1216Y1929D01*
X1216Y1931D01*
X1194Y1931D01*
G37*
D02*
G36*
X52Y1929D02*
X52Y1491D01*
X248Y1491D01*
X248Y1493D01*
X240Y1493D01*
X240Y1495D01*
X236Y1495D01*
X236Y1497D01*
X232Y1497D01*
X232Y1499D01*
X228Y1499D01*
X228Y1501D01*
X226Y1501D01*
X226Y1503D01*
X222Y1503D01*
X222Y1505D01*
X220Y1505D01*
X220Y1507D01*
X218Y1507D01*
X218Y1509D01*
X216Y1509D01*
X216Y1511D01*
X214Y1511D01*
X214Y1513D01*
X212Y1513D01*
X212Y1515D01*
X210Y1515D01*
X210Y1517D01*
X208Y1517D01*
X208Y1521D01*
X206Y1521D01*
X206Y1523D01*
X204Y1523D01*
X204Y1527D01*
X202Y1527D01*
X202Y1531D01*
X200Y1531D01*
X200Y1535D01*
X198Y1535D01*
X198Y1541D01*
X196Y1541D01*
X196Y1579D01*
X198Y1579D01*
X198Y1585D01*
X200Y1585D01*
X200Y1589D01*
X202Y1589D01*
X202Y1593D01*
X204Y1593D01*
X204Y1597D01*
X206Y1597D01*
X206Y1599D01*
X208Y1599D01*
X208Y1621D01*
X206Y1621D01*
X206Y1623D01*
X204Y1623D01*
X204Y1627D01*
X202Y1627D01*
X202Y1631D01*
X200Y1631D01*
X200Y1635D01*
X198Y1635D01*
X198Y1641D01*
X196Y1641D01*
X196Y1679D01*
X198Y1679D01*
X198Y1685D01*
X200Y1685D01*
X200Y1689D01*
X202Y1689D01*
X202Y1693D01*
X204Y1693D01*
X204Y1697D01*
X206Y1697D01*
X206Y1699D01*
X208Y1699D01*
X208Y1721D01*
X206Y1721D01*
X206Y1723D01*
X204Y1723D01*
X204Y1727D01*
X202Y1727D01*
X202Y1731D01*
X200Y1731D01*
X200Y1735D01*
X198Y1735D01*
X198Y1741D01*
X196Y1741D01*
X196Y1779D01*
X198Y1779D01*
X198Y1785D01*
X200Y1785D01*
X200Y1789D01*
X202Y1789D01*
X202Y1793D01*
X204Y1793D01*
X204Y1797D01*
X206Y1797D01*
X206Y1799D01*
X208Y1799D01*
X208Y1821D01*
X206Y1821D01*
X206Y1823D01*
X204Y1823D01*
X204Y1827D01*
X202Y1827D01*
X202Y1831D01*
X200Y1831D01*
X200Y1835D01*
X198Y1835D01*
X198Y1841D01*
X196Y1841D01*
X196Y1879D01*
X198Y1879D01*
X198Y1885D01*
X200Y1885D01*
X200Y1889D01*
X202Y1889D01*
X202Y1893D01*
X204Y1893D01*
X204Y1897D01*
X206Y1897D01*
X206Y1899D01*
X208Y1899D01*
X208Y1901D01*
X210Y1901D01*
X210Y1905D01*
X212Y1905D01*
X212Y1907D01*
X214Y1907D01*
X214Y1909D01*
X216Y1909D01*
X216Y1911D01*
X218Y1911D01*
X218Y1913D01*
X220Y1913D01*
X220Y1915D01*
X224Y1915D01*
X224Y1917D01*
X226Y1917D01*
X226Y1919D01*
X230Y1919D01*
X230Y1921D01*
X232Y1921D01*
X232Y1923D01*
X236Y1923D01*
X236Y1925D01*
X242Y1925D01*
X242Y1927D01*
X250Y1927D01*
X250Y1929D01*
X52Y1929D01*
G37*
D02*
G36*
X296Y1923D02*
X296Y1921D01*
X1106Y1921D01*
X1106Y1923D01*
X296Y1923D01*
G37*
D02*
G36*
X296Y1923D02*
X296Y1921D01*
X1106Y1921D01*
X1106Y1923D01*
X296Y1923D01*
G37*
D02*
G36*
X296Y1923D02*
X296Y1921D01*
X1106Y1921D01*
X1106Y1923D01*
X296Y1923D01*
G37*
D02*
G36*
X296Y1923D02*
X296Y1921D01*
X1106Y1921D01*
X1106Y1923D01*
X296Y1923D01*
G37*
D02*
G36*
X296Y1923D02*
X296Y1921D01*
X1106Y1921D01*
X1106Y1923D01*
X296Y1923D01*
G37*
D02*
G36*
X1194Y1923D02*
X1194Y1921D01*
X2476Y1921D01*
X2476Y1923D01*
X1194Y1923D01*
G37*
D02*
G36*
X1194Y1923D02*
X1194Y1921D01*
X2476Y1921D01*
X2476Y1923D01*
X1194Y1923D01*
G37*
D02*
G36*
X1194Y1923D02*
X1194Y1921D01*
X2476Y1921D01*
X2476Y1923D01*
X1194Y1923D01*
G37*
D02*
G36*
X1194Y1923D02*
X1194Y1921D01*
X2476Y1921D01*
X2476Y1923D01*
X1194Y1923D01*
G37*
D02*
G36*
X1194Y1923D02*
X1194Y1921D01*
X2476Y1921D01*
X2476Y1923D01*
X1194Y1923D01*
G37*
D02*
G36*
X1194Y1923D02*
X1194Y1921D01*
X2476Y1921D01*
X2476Y1923D01*
X1194Y1923D01*
G37*
D02*
G36*
X1194Y1923D02*
X1194Y1921D01*
X2476Y1921D01*
X2476Y1923D01*
X1194Y1923D01*
G37*
D02*
G36*
X1194Y1923D02*
X1194Y1921D01*
X2476Y1921D01*
X2476Y1923D01*
X1194Y1923D01*
G37*
D02*
G36*
X1194Y1923D02*
X1194Y1921D01*
X2476Y1921D01*
X2476Y1923D01*
X1194Y1923D01*
G37*
D02*
G36*
X1194Y1923D02*
X1194Y1921D01*
X2476Y1921D01*
X2476Y1923D01*
X1194Y1923D01*
G37*
D02*
G36*
X1194Y1923D02*
X1194Y1921D01*
X2476Y1921D01*
X2476Y1923D01*
X1194Y1923D01*
G37*
D02*
G36*
X1194Y1923D02*
X1194Y1921D01*
X2476Y1921D01*
X2476Y1923D01*
X1194Y1923D01*
G37*
D02*
G36*
X1194Y1923D02*
X1194Y1921D01*
X2476Y1921D01*
X2476Y1923D01*
X1194Y1923D01*
G37*
D02*
G36*
X300Y1921D02*
X300Y1919D01*
X302Y1919D01*
X302Y1917D01*
X306Y1917D01*
X306Y1915D01*
X308Y1915D01*
X308Y1913D01*
X310Y1913D01*
X310Y1911D01*
X312Y1911D01*
X312Y1909D01*
X314Y1909D01*
X314Y1907D01*
X316Y1907D01*
X316Y1905D01*
X318Y1905D01*
X318Y1903D01*
X320Y1903D01*
X320Y1901D01*
X322Y1901D01*
X322Y1897D01*
X324Y1897D01*
X324Y1895D01*
X326Y1895D01*
X326Y1891D01*
X328Y1891D01*
X328Y1887D01*
X330Y1887D01*
X330Y1881D01*
X332Y1881D01*
X332Y1871D01*
X334Y1871D01*
X334Y1865D01*
X608Y1865D01*
X608Y1863D01*
X614Y1863D01*
X614Y1861D01*
X618Y1861D01*
X618Y1859D01*
X622Y1859D01*
X622Y1857D01*
X626Y1857D01*
X626Y1855D01*
X628Y1855D01*
X628Y1853D01*
X632Y1853D01*
X632Y1851D01*
X634Y1851D01*
X634Y1849D01*
X636Y1849D01*
X636Y1847D01*
X638Y1847D01*
X638Y1845D01*
X640Y1845D01*
X640Y1843D01*
X642Y1843D01*
X642Y1841D01*
X644Y1841D01*
X644Y1839D01*
X646Y1839D01*
X646Y1835D01*
X648Y1835D01*
X648Y1833D01*
X650Y1833D01*
X650Y1829D01*
X652Y1829D01*
X652Y1825D01*
X654Y1825D01*
X654Y1821D01*
X656Y1821D01*
X656Y1815D01*
X658Y1815D01*
X658Y1779D01*
X656Y1779D01*
X656Y1773D01*
X654Y1773D01*
X654Y1767D01*
X652Y1767D01*
X652Y1763D01*
X650Y1763D01*
X650Y1761D01*
X648Y1761D01*
X648Y1757D01*
X646Y1757D01*
X646Y1755D01*
X644Y1755D01*
X644Y1753D01*
X642Y1753D01*
X642Y1751D01*
X640Y1751D01*
X640Y1747D01*
X638Y1747D01*
X638Y1745D01*
X634Y1745D01*
X634Y1743D01*
X632Y1743D01*
X632Y1741D01*
X630Y1741D01*
X630Y1739D01*
X628Y1739D01*
X628Y1737D01*
X624Y1737D01*
X624Y1735D01*
X620Y1735D01*
X620Y1733D01*
X616Y1733D01*
X616Y1731D01*
X612Y1731D01*
X612Y1729D01*
X604Y1729D01*
X604Y1727D01*
X1110Y1727D01*
X1110Y1783D01*
X1108Y1783D01*
X1108Y1885D01*
X1106Y1885D01*
X1106Y1921D01*
X300Y1921D01*
G37*
D02*
G36*
X1194Y1921D02*
X1194Y1901D01*
X1196Y1901D01*
X1196Y1799D01*
X1198Y1799D01*
X1198Y1697D01*
X1200Y1697D01*
X1200Y1595D01*
X1202Y1595D01*
X1202Y1513D01*
X2256Y1513D01*
X2256Y1387D01*
X2422Y1387D01*
X2422Y1389D01*
X2424Y1389D01*
X2424Y1391D01*
X2428Y1391D01*
X2428Y1393D01*
X2430Y1393D01*
X2430Y1395D01*
X2432Y1395D01*
X2432Y1397D01*
X2434Y1397D01*
X2434Y1399D01*
X2436Y1399D01*
X2436Y1401D01*
X2438Y1401D01*
X2438Y1403D01*
X2440Y1403D01*
X2440Y1405D01*
X2442Y1405D01*
X2442Y1407D01*
X2444Y1407D01*
X2444Y1409D01*
X2446Y1409D01*
X2446Y1411D01*
X2448Y1411D01*
X2448Y1413D01*
X2450Y1413D01*
X2450Y1415D01*
X2452Y1415D01*
X2452Y1417D01*
X2454Y1417D01*
X2454Y1419D01*
X2456Y1419D01*
X2456Y1421D01*
X2458Y1421D01*
X2458Y1423D01*
X2460Y1423D01*
X2460Y1425D01*
X2462Y1425D01*
X2462Y1427D01*
X2464Y1427D01*
X2464Y1429D01*
X2466Y1429D01*
X2466Y1431D01*
X2468Y1431D01*
X2468Y1433D01*
X2470Y1433D01*
X2470Y1435D01*
X2472Y1435D01*
X2472Y1437D01*
X2474Y1437D01*
X2474Y1439D01*
X2476Y1439D01*
X2476Y1921D01*
X1194Y1921D01*
G37*
D02*
G36*
X334Y1865D02*
X334Y1847D01*
X332Y1847D01*
X332Y1839D01*
X330Y1839D01*
X330Y1833D01*
X328Y1833D01*
X328Y1829D01*
X326Y1829D01*
X326Y1825D01*
X324Y1825D01*
X324Y1823D01*
X322Y1823D01*
X322Y1797D01*
X324Y1797D01*
X324Y1795D01*
X326Y1795D01*
X326Y1791D01*
X328Y1791D01*
X328Y1787D01*
X330Y1787D01*
X330Y1781D01*
X332Y1781D01*
X332Y1771D01*
X334Y1771D01*
X334Y1747D01*
X332Y1747D01*
X332Y1739D01*
X330Y1739D01*
X330Y1733D01*
X328Y1733D01*
X328Y1729D01*
X326Y1729D01*
X326Y1727D01*
X572Y1727D01*
X572Y1729D01*
X566Y1729D01*
X566Y1731D01*
X560Y1731D01*
X560Y1733D01*
X556Y1733D01*
X556Y1735D01*
X554Y1735D01*
X554Y1737D01*
X550Y1737D01*
X550Y1739D01*
X548Y1739D01*
X548Y1741D01*
X546Y1741D01*
X546Y1743D01*
X542Y1743D01*
X542Y1745D01*
X540Y1745D01*
X540Y1747D01*
X538Y1747D01*
X538Y1749D01*
X536Y1749D01*
X536Y1751D01*
X534Y1751D01*
X534Y1755D01*
X532Y1755D01*
X532Y1757D01*
X530Y1757D01*
X530Y1759D01*
X528Y1759D01*
X528Y1763D01*
X526Y1763D01*
X526Y1767D01*
X524Y1767D01*
X524Y1771D01*
X522Y1771D01*
X522Y1777D01*
X520Y1777D01*
X520Y1815D01*
X522Y1815D01*
X522Y1821D01*
X524Y1821D01*
X524Y1827D01*
X526Y1827D01*
X526Y1829D01*
X528Y1829D01*
X528Y1833D01*
X530Y1833D01*
X530Y1835D01*
X532Y1835D01*
X532Y1839D01*
X534Y1839D01*
X534Y1841D01*
X536Y1841D01*
X536Y1843D01*
X538Y1843D01*
X538Y1845D01*
X540Y1845D01*
X540Y1847D01*
X542Y1847D01*
X542Y1849D01*
X544Y1849D01*
X544Y1851D01*
X546Y1851D01*
X546Y1853D01*
X548Y1853D01*
X548Y1855D01*
X552Y1855D01*
X552Y1857D01*
X554Y1857D01*
X554Y1859D01*
X558Y1859D01*
X558Y1861D01*
X564Y1861D01*
X564Y1863D01*
X568Y1863D01*
X568Y1865D01*
X334Y1865D01*
G37*
D02*
G36*
X326Y1727D02*
X326Y1725D01*
X1110Y1725D01*
X1110Y1727D01*
X326Y1727D01*
G37*
D02*
G36*
X326Y1727D02*
X326Y1725D01*
X1110Y1725D01*
X1110Y1727D01*
X326Y1727D01*
G37*
D02*
G36*
X324Y1725D02*
X324Y1723D01*
X322Y1723D01*
X322Y1697D01*
X324Y1697D01*
X324Y1695D01*
X326Y1695D01*
X326Y1691D01*
X328Y1691D01*
X328Y1687D01*
X330Y1687D01*
X330Y1681D01*
X332Y1681D01*
X332Y1671D01*
X334Y1671D01*
X334Y1647D01*
X332Y1647D01*
X332Y1639D01*
X330Y1639D01*
X330Y1633D01*
X328Y1633D01*
X328Y1629D01*
X326Y1629D01*
X326Y1625D01*
X324Y1625D01*
X324Y1623D01*
X322Y1623D01*
X322Y1597D01*
X324Y1597D01*
X324Y1595D01*
X326Y1595D01*
X326Y1591D01*
X328Y1591D01*
X328Y1587D01*
X330Y1587D01*
X330Y1581D01*
X332Y1581D01*
X332Y1571D01*
X334Y1571D01*
X334Y1547D01*
X332Y1547D01*
X332Y1539D01*
X330Y1539D01*
X330Y1533D01*
X328Y1533D01*
X328Y1529D01*
X326Y1529D01*
X326Y1525D01*
X324Y1525D01*
X324Y1523D01*
X322Y1523D01*
X322Y1519D01*
X320Y1519D01*
X320Y1517D01*
X318Y1517D01*
X318Y1515D01*
X316Y1515D01*
X316Y1513D01*
X314Y1513D01*
X314Y1511D01*
X312Y1511D01*
X312Y1509D01*
X310Y1509D01*
X310Y1507D01*
X308Y1507D01*
X308Y1505D01*
X306Y1505D01*
X306Y1503D01*
X304Y1503D01*
X304Y1501D01*
X300Y1501D01*
X300Y1499D01*
X296Y1499D01*
X296Y1497D01*
X292Y1497D01*
X292Y1495D01*
X288Y1495D01*
X288Y1493D01*
X282Y1493D01*
X282Y1491D01*
X1050Y1491D01*
X1050Y1493D01*
X1052Y1493D01*
X1052Y1495D01*
X1056Y1495D01*
X1056Y1497D01*
X1058Y1497D01*
X1058Y1499D01*
X1062Y1499D01*
X1062Y1501D01*
X1066Y1501D01*
X1066Y1503D01*
X1072Y1503D01*
X1072Y1505D01*
X1114Y1505D01*
X1114Y1579D01*
X1112Y1579D01*
X1112Y1681D01*
X1110Y1681D01*
X1110Y1725D01*
X324Y1725D01*
G37*
D02*
G36*
X1202Y1513D02*
X1202Y1493D01*
X1204Y1493D01*
X1204Y1393D01*
X1206Y1393D01*
X1206Y1381D01*
X1460Y1381D01*
X1460Y1383D01*
X1454Y1383D01*
X1454Y1385D01*
X1450Y1385D01*
X1450Y1387D01*
X1446Y1387D01*
X1446Y1389D01*
X1444Y1389D01*
X1444Y1391D01*
X1440Y1391D01*
X1440Y1393D01*
X1438Y1393D01*
X1438Y1395D01*
X1436Y1395D01*
X1436Y1397D01*
X1434Y1397D01*
X1434Y1399D01*
X1432Y1399D01*
X1432Y1401D01*
X1430Y1401D01*
X1430Y1403D01*
X1428Y1403D01*
X1428Y1405D01*
X1426Y1405D01*
X1426Y1409D01*
X1424Y1409D01*
X1424Y1411D01*
X1422Y1411D01*
X1422Y1415D01*
X1420Y1415D01*
X1420Y1417D01*
X1418Y1417D01*
X1418Y1423D01*
X1416Y1423D01*
X1416Y1429D01*
X1414Y1429D01*
X1414Y1463D01*
X1416Y1463D01*
X1416Y1469D01*
X1418Y1469D01*
X1418Y1475D01*
X1420Y1475D01*
X1420Y1477D01*
X1422Y1477D01*
X1422Y1481D01*
X1424Y1481D01*
X1424Y1485D01*
X1426Y1485D01*
X1426Y1487D01*
X1428Y1487D01*
X1428Y1489D01*
X1430Y1489D01*
X1430Y1491D01*
X1432Y1491D01*
X1432Y1493D01*
X1434Y1493D01*
X1434Y1495D01*
X1436Y1495D01*
X1436Y1497D01*
X1438Y1497D01*
X1438Y1499D01*
X1440Y1499D01*
X1440Y1501D01*
X1444Y1501D01*
X1444Y1503D01*
X1446Y1503D01*
X1446Y1505D01*
X1450Y1505D01*
X1450Y1507D01*
X1454Y1507D01*
X1454Y1509D01*
X1460Y1509D01*
X1460Y1511D01*
X1470Y1511D01*
X1470Y1513D01*
X1202Y1513D01*
G37*
D02*
G36*
X1488Y1513D02*
X1488Y1511D01*
X1500Y1511D01*
X1500Y1509D01*
X1504Y1509D01*
X1504Y1507D01*
X1508Y1507D01*
X1508Y1505D01*
X1530Y1505D01*
X1530Y1507D01*
X1534Y1507D01*
X1534Y1509D01*
X1538Y1509D01*
X1538Y1511D01*
X1550Y1511D01*
X1550Y1513D01*
X1488Y1513D01*
G37*
D02*
G36*
X1568Y1513D02*
X1568Y1511D01*
X1578Y1511D01*
X1578Y1509D01*
X1584Y1509D01*
X1584Y1507D01*
X1588Y1507D01*
X1588Y1505D01*
X1608Y1505D01*
X1608Y1507D01*
X1612Y1507D01*
X1612Y1509D01*
X1618Y1509D01*
X1618Y1511D01*
X1628Y1511D01*
X1628Y1513D01*
X1568Y1513D01*
G37*
D02*
G36*
X1646Y1513D02*
X1646Y1511D01*
X1658Y1511D01*
X1658Y1509D01*
X1662Y1509D01*
X1662Y1507D01*
X1666Y1507D01*
X1666Y1505D01*
X1688Y1505D01*
X1688Y1507D01*
X1692Y1507D01*
X1692Y1509D01*
X1696Y1509D01*
X1696Y1511D01*
X1708Y1511D01*
X1708Y1513D01*
X1646Y1513D01*
G37*
D02*
G36*
X1726Y1513D02*
X1726Y1511D01*
X1736Y1511D01*
X1736Y1509D01*
X1742Y1509D01*
X1742Y1507D01*
X1746Y1507D01*
X1746Y1505D01*
X1766Y1505D01*
X1766Y1507D01*
X1770Y1507D01*
X1770Y1509D01*
X1776Y1509D01*
X1776Y1511D01*
X1786Y1511D01*
X1786Y1513D01*
X1726Y1513D01*
G37*
D02*
G36*
X1804Y1513D02*
X1804Y1511D01*
X1816Y1511D01*
X1816Y1509D01*
X1820Y1509D01*
X1820Y1507D01*
X1824Y1507D01*
X1824Y1505D01*
X1846Y1505D01*
X1846Y1507D01*
X1850Y1507D01*
X1850Y1509D01*
X1854Y1509D01*
X1854Y1511D01*
X1866Y1511D01*
X1866Y1513D01*
X1804Y1513D01*
G37*
D02*
G36*
X1884Y1513D02*
X1884Y1511D01*
X1894Y1511D01*
X1894Y1509D01*
X1900Y1509D01*
X1900Y1507D01*
X1904Y1507D01*
X1904Y1505D01*
X1924Y1505D01*
X1924Y1507D01*
X1928Y1507D01*
X1928Y1509D01*
X1934Y1509D01*
X1934Y1511D01*
X1944Y1511D01*
X1944Y1513D01*
X1884Y1513D01*
G37*
D02*
G36*
X1962Y1513D02*
X1962Y1511D01*
X1974Y1511D01*
X1974Y1509D01*
X1978Y1509D01*
X1978Y1507D01*
X1982Y1507D01*
X1982Y1505D01*
X2004Y1505D01*
X2004Y1507D01*
X2008Y1507D01*
X2008Y1509D01*
X2012Y1509D01*
X2012Y1511D01*
X2024Y1511D01*
X2024Y1513D01*
X1962Y1513D01*
G37*
D02*
G36*
X2042Y1513D02*
X2042Y1511D01*
X2052Y1511D01*
X2052Y1509D01*
X2058Y1509D01*
X2058Y1507D01*
X2062Y1507D01*
X2062Y1505D01*
X2082Y1505D01*
X2082Y1507D01*
X2086Y1507D01*
X2086Y1509D01*
X2092Y1509D01*
X2092Y1511D01*
X2102Y1511D01*
X2102Y1513D01*
X2042Y1513D01*
G37*
D02*
G36*
X52Y1491D02*
X52Y1489D01*
X1048Y1489D01*
X1048Y1491D01*
X52Y1491D01*
G37*
D02*
G36*
X52Y1491D02*
X52Y1489D01*
X1048Y1489D01*
X1048Y1491D01*
X52Y1491D01*
G37*
D02*
G36*
X52Y1489D02*
X52Y1467D01*
X658Y1467D01*
X658Y1465D01*
X762Y1465D01*
X762Y1325D01*
X632Y1325D01*
X632Y1115D01*
X1080Y1115D01*
X1080Y1117D01*
X1070Y1117D01*
X1070Y1119D01*
X1064Y1119D01*
X1064Y1121D01*
X1060Y1121D01*
X1060Y1123D01*
X1056Y1123D01*
X1056Y1125D01*
X1054Y1125D01*
X1054Y1127D01*
X1050Y1127D01*
X1050Y1129D01*
X1048Y1129D01*
X1048Y1131D01*
X1046Y1131D01*
X1046Y1133D01*
X1044Y1133D01*
X1044Y1135D01*
X1042Y1135D01*
X1042Y1137D01*
X1040Y1137D01*
X1040Y1139D01*
X1038Y1139D01*
X1038Y1141D01*
X1036Y1141D01*
X1036Y1143D01*
X1034Y1143D01*
X1034Y1145D01*
X1032Y1145D01*
X1032Y1149D01*
X1030Y1149D01*
X1030Y1151D01*
X1028Y1151D01*
X1028Y1155D01*
X1026Y1155D01*
X1026Y1161D01*
X1024Y1161D01*
X1024Y1165D01*
X1022Y1165D01*
X1022Y1205D01*
X1024Y1205D01*
X1024Y1211D01*
X1026Y1211D01*
X1026Y1215D01*
X1028Y1215D01*
X1028Y1219D01*
X1030Y1219D01*
X1030Y1221D01*
X1032Y1221D01*
X1032Y1225D01*
X1034Y1225D01*
X1034Y1227D01*
X1036Y1227D01*
X1036Y1229D01*
X1038Y1229D01*
X1038Y1233D01*
X1040Y1233D01*
X1040Y1235D01*
X1042Y1235D01*
X1042Y1237D01*
X1044Y1237D01*
X1044Y1239D01*
X1046Y1239D01*
X1046Y1281D01*
X1028Y1281D01*
X1028Y1461D01*
X1030Y1461D01*
X1030Y1467D01*
X1032Y1467D01*
X1032Y1471D01*
X1034Y1471D01*
X1034Y1475D01*
X1036Y1475D01*
X1036Y1477D01*
X1038Y1477D01*
X1038Y1481D01*
X1040Y1481D01*
X1040Y1483D01*
X1042Y1483D01*
X1042Y1485D01*
X1044Y1485D01*
X1044Y1487D01*
X1046Y1487D01*
X1046Y1489D01*
X52Y1489D01*
G37*
D02*
G36*
X52Y1467D02*
X52Y1209D01*
X246Y1209D01*
X246Y1065D01*
X230Y1065D01*
X230Y1045D01*
X232Y1045D01*
X232Y1041D01*
X234Y1041D01*
X234Y1039D01*
X236Y1039D01*
X236Y1037D01*
X238Y1037D01*
X238Y1033D01*
X240Y1033D01*
X240Y1029D01*
X242Y1029D01*
X242Y1025D01*
X244Y1025D01*
X244Y1019D01*
X246Y1019D01*
X246Y981D01*
X244Y981D01*
X244Y973D01*
X242Y973D01*
X242Y969D01*
X240Y969D01*
X240Y965D01*
X390Y965D01*
X390Y963D01*
X410Y963D01*
X410Y965D01*
X544Y965D01*
X544Y1327D01*
X520Y1327D01*
X520Y1467D01*
X52Y1467D01*
G37*
D02*
G36*
X1508Y1387D02*
X1508Y1385D01*
X1504Y1385D01*
X1504Y1383D01*
X1498Y1383D01*
X1498Y1381D01*
X1540Y1381D01*
X1540Y1383D01*
X1534Y1383D01*
X1534Y1385D01*
X1530Y1385D01*
X1530Y1387D01*
X1508Y1387D01*
G37*
D02*
G36*
X1588Y1387D02*
X1588Y1385D01*
X1584Y1385D01*
X1584Y1383D01*
X1578Y1383D01*
X1578Y1381D01*
X1618Y1381D01*
X1618Y1383D01*
X1612Y1383D01*
X1612Y1385D01*
X1608Y1385D01*
X1608Y1387D01*
X1588Y1387D01*
G37*
D02*
G36*
X1666Y1387D02*
X1666Y1385D01*
X1662Y1385D01*
X1662Y1383D01*
X1656Y1383D01*
X1656Y1381D01*
X1698Y1381D01*
X1698Y1383D01*
X1692Y1383D01*
X1692Y1385D01*
X1688Y1385D01*
X1688Y1387D01*
X1666Y1387D01*
G37*
D02*
G36*
X1206Y1381D02*
X1206Y1379D01*
X1752Y1379D01*
X1752Y1381D01*
X1206Y1381D01*
G37*
D02*
G36*
X1206Y1381D02*
X1206Y1379D01*
X1752Y1379D01*
X1752Y1381D01*
X1206Y1381D01*
G37*
D02*
G36*
X1206Y1381D02*
X1206Y1379D01*
X1752Y1379D01*
X1752Y1381D01*
X1206Y1381D01*
G37*
D02*
G36*
X1206Y1381D02*
X1206Y1379D01*
X1752Y1379D01*
X1752Y1381D01*
X1206Y1381D01*
G37*
D02*
G36*
X1206Y1379D02*
X1206Y1331D01*
X1598Y1331D01*
X1598Y1329D01*
X1604Y1329D01*
X1604Y1327D01*
X1610Y1327D01*
X1610Y1325D01*
X1614Y1325D01*
X1614Y1323D01*
X1616Y1323D01*
X1616Y1321D01*
X1620Y1321D01*
X1620Y1319D01*
X1622Y1319D01*
X1622Y1317D01*
X1624Y1317D01*
X1624Y1315D01*
X1628Y1315D01*
X1628Y1313D01*
X1630Y1313D01*
X1630Y1311D01*
X1632Y1311D01*
X1632Y1309D01*
X1634Y1309D01*
X1634Y1307D01*
X1636Y1307D01*
X1636Y1303D01*
X1638Y1303D01*
X1638Y1301D01*
X1640Y1301D01*
X1640Y1297D01*
X1642Y1297D01*
X1642Y1295D01*
X1644Y1295D01*
X1644Y1291D01*
X1646Y1291D01*
X1646Y1287D01*
X1648Y1287D01*
X1648Y1279D01*
X1650Y1279D01*
X1650Y1243D01*
X1648Y1243D01*
X1648Y1237D01*
X1646Y1237D01*
X1646Y1233D01*
X1644Y1233D01*
X1644Y1229D01*
X1642Y1229D01*
X1642Y1225D01*
X1640Y1225D01*
X1640Y1223D01*
X1638Y1223D01*
X1638Y1219D01*
X1636Y1219D01*
X1636Y1217D01*
X1634Y1217D01*
X1634Y1215D01*
X1632Y1215D01*
X1632Y1213D01*
X1630Y1213D01*
X1630Y1211D01*
X1628Y1211D01*
X1628Y1209D01*
X1626Y1209D01*
X1626Y1207D01*
X1624Y1207D01*
X1624Y1205D01*
X1620Y1205D01*
X1620Y1203D01*
X1618Y1203D01*
X1618Y1201D01*
X1614Y1201D01*
X1614Y1199D01*
X1610Y1199D01*
X1610Y1197D01*
X1606Y1197D01*
X1606Y1195D01*
X1600Y1195D01*
X1600Y1193D01*
X1560Y1193D01*
X1560Y1115D01*
X1750Y1115D01*
X1750Y1329D01*
X1752Y1329D01*
X1752Y1379D01*
X1206Y1379D01*
G37*
D02*
G36*
X1206Y1331D02*
X1206Y1291D01*
X1208Y1291D01*
X1208Y1263D01*
X1210Y1263D01*
X1210Y1261D01*
X1212Y1261D01*
X1212Y1259D01*
X1214Y1259D01*
X1214Y1257D01*
X1216Y1257D01*
X1216Y1255D01*
X1220Y1255D01*
X1220Y1253D01*
X1222Y1253D01*
X1222Y1251D01*
X1224Y1251D01*
X1224Y1249D01*
X1228Y1249D01*
X1228Y1247D01*
X1230Y1247D01*
X1230Y1245D01*
X1232Y1245D01*
X1232Y1243D01*
X1234Y1243D01*
X1234Y1241D01*
X1238Y1241D01*
X1238Y1239D01*
X1240Y1239D01*
X1240Y1237D01*
X1242Y1237D01*
X1242Y1235D01*
X1246Y1235D01*
X1246Y1233D01*
X1248Y1233D01*
X1248Y1231D01*
X1422Y1231D01*
X1422Y1255D01*
X1512Y1255D01*
X1512Y1281D01*
X1514Y1281D01*
X1514Y1287D01*
X1516Y1287D01*
X1516Y1291D01*
X1518Y1291D01*
X1518Y1295D01*
X1520Y1295D01*
X1520Y1299D01*
X1522Y1299D01*
X1522Y1301D01*
X1524Y1301D01*
X1524Y1303D01*
X1526Y1303D01*
X1526Y1307D01*
X1528Y1307D01*
X1528Y1309D01*
X1530Y1309D01*
X1530Y1311D01*
X1532Y1311D01*
X1532Y1313D01*
X1534Y1313D01*
X1534Y1315D01*
X1536Y1315D01*
X1536Y1317D01*
X1540Y1317D01*
X1540Y1319D01*
X1542Y1319D01*
X1542Y1321D01*
X1546Y1321D01*
X1546Y1323D01*
X1548Y1323D01*
X1548Y1325D01*
X1552Y1325D01*
X1552Y1327D01*
X1558Y1327D01*
X1558Y1329D01*
X1564Y1329D01*
X1564Y1331D01*
X1206Y1331D01*
G37*
D02*
G36*
X52Y1209D02*
X52Y789D01*
X160Y789D01*
X160Y791D01*
X152Y791D01*
X152Y793D01*
X146Y793D01*
X146Y795D01*
X142Y795D01*
X142Y797D01*
X138Y797D01*
X138Y799D01*
X136Y799D01*
X136Y801D01*
X132Y801D01*
X132Y803D01*
X130Y803D01*
X130Y805D01*
X128Y805D01*
X128Y807D01*
X126Y807D01*
X126Y809D01*
X124Y809D01*
X124Y811D01*
X122Y811D01*
X122Y813D01*
X120Y813D01*
X120Y815D01*
X118Y815D01*
X118Y817D01*
X116Y817D01*
X116Y819D01*
X114Y819D01*
X114Y823D01*
X112Y823D01*
X112Y827D01*
X110Y827D01*
X110Y829D01*
X108Y829D01*
X108Y835D01*
X106Y835D01*
X106Y839D01*
X104Y839D01*
X104Y849D01*
X102Y849D01*
X102Y875D01*
X104Y875D01*
X104Y883D01*
X106Y883D01*
X106Y889D01*
X108Y889D01*
X108Y893D01*
X110Y893D01*
X110Y897D01*
X112Y897D01*
X112Y899D01*
X114Y899D01*
X114Y903D01*
X116Y903D01*
X116Y905D01*
X118Y905D01*
X118Y907D01*
X120Y907D01*
X120Y909D01*
X122Y909D01*
X122Y911D01*
X124Y911D01*
X124Y913D01*
X126Y913D01*
X126Y915D01*
X128Y915D01*
X128Y917D01*
X130Y917D01*
X130Y919D01*
X132Y919D01*
X132Y941D01*
X130Y941D01*
X130Y943D01*
X128Y943D01*
X128Y945D01*
X126Y945D01*
X126Y947D01*
X124Y947D01*
X124Y949D01*
X122Y949D01*
X122Y951D01*
X120Y951D01*
X120Y953D01*
X118Y953D01*
X118Y955D01*
X116Y955D01*
X116Y957D01*
X114Y957D01*
X114Y961D01*
X112Y961D01*
X112Y963D01*
X110Y963D01*
X110Y967D01*
X108Y967D01*
X108Y971D01*
X106Y971D01*
X106Y977D01*
X104Y977D01*
X104Y987D01*
X102Y987D01*
X102Y1013D01*
X104Y1013D01*
X104Y1021D01*
X106Y1021D01*
X106Y1027D01*
X108Y1027D01*
X108Y1031D01*
X110Y1031D01*
X110Y1035D01*
X112Y1035D01*
X112Y1037D01*
X114Y1037D01*
X114Y1041D01*
X116Y1041D01*
X116Y1043D01*
X118Y1043D01*
X118Y1045D01*
X120Y1045D01*
X120Y1065D01*
X102Y1065D01*
X102Y1209D01*
X52Y1209D01*
G37*
D02*
G36*
X1158Y1169D02*
X1158Y1161D01*
X1156Y1161D01*
X1156Y1157D01*
X1154Y1157D01*
X1154Y1153D01*
X1152Y1153D01*
X1152Y1149D01*
X1150Y1149D01*
X1150Y1147D01*
X1148Y1147D01*
X1148Y1143D01*
X1146Y1143D01*
X1146Y1141D01*
X1144Y1141D01*
X1144Y1139D01*
X1142Y1139D01*
X1142Y1137D01*
X1140Y1137D01*
X1140Y1135D01*
X1138Y1135D01*
X1138Y1133D01*
X1136Y1133D01*
X1136Y1131D01*
X1134Y1131D01*
X1134Y1129D01*
X1130Y1129D01*
X1130Y1127D01*
X1128Y1127D01*
X1128Y1125D01*
X1124Y1125D01*
X1124Y1123D01*
X1122Y1123D01*
X1122Y1121D01*
X1116Y1121D01*
X1116Y1119D01*
X1112Y1119D01*
X1112Y1117D01*
X1102Y1117D01*
X1102Y1115D01*
X1422Y1115D01*
X1422Y1141D01*
X1414Y1141D01*
X1414Y1143D01*
X1226Y1143D01*
X1226Y1145D01*
X1208Y1145D01*
X1208Y1147D01*
X1204Y1147D01*
X1204Y1149D01*
X1200Y1149D01*
X1200Y1151D01*
X1198Y1151D01*
X1198Y1153D01*
X1196Y1153D01*
X1196Y1155D01*
X1192Y1155D01*
X1192Y1157D01*
X1190Y1157D01*
X1190Y1159D01*
X1188Y1159D01*
X1188Y1161D01*
X1186Y1161D01*
X1186Y1163D01*
X1182Y1163D01*
X1182Y1165D01*
X1180Y1165D01*
X1180Y1167D01*
X1178Y1167D01*
X1178Y1169D01*
X1158Y1169D01*
G37*
D02*
G36*
X632Y1115D02*
X632Y1113D01*
X1750Y1113D01*
X1750Y1115D01*
X632Y1115D01*
G37*
D02*
G36*
X632Y1115D02*
X632Y1113D01*
X1750Y1113D01*
X1750Y1115D01*
X632Y1115D01*
G37*
D02*
G36*
X632Y1115D02*
X632Y1113D01*
X1750Y1113D01*
X1750Y1115D01*
X632Y1115D01*
G37*
D02*
G36*
X632Y1113D02*
X632Y1065D01*
X710Y1065D01*
X710Y1063D01*
X716Y1063D01*
X716Y1061D01*
X720Y1061D01*
X720Y1059D01*
X724Y1059D01*
X724Y1057D01*
X728Y1057D01*
X728Y1055D01*
X732Y1055D01*
X732Y1053D01*
X734Y1053D01*
X734Y1051D01*
X736Y1051D01*
X736Y1049D01*
X738Y1049D01*
X738Y1047D01*
X742Y1047D01*
X742Y1045D01*
X744Y1045D01*
X744Y1041D01*
X746Y1041D01*
X746Y1039D01*
X748Y1039D01*
X748Y1037D01*
X750Y1037D01*
X750Y1035D01*
X752Y1035D01*
X752Y1031D01*
X754Y1031D01*
X754Y1029D01*
X756Y1029D01*
X756Y1025D01*
X758Y1025D01*
X758Y1019D01*
X760Y1019D01*
X760Y1013D01*
X762Y1013D01*
X762Y979D01*
X760Y979D01*
X760Y971D01*
X758Y971D01*
X758Y967D01*
X756Y967D01*
X756Y963D01*
X754Y963D01*
X754Y959D01*
X752Y959D01*
X752Y957D01*
X750Y957D01*
X750Y953D01*
X748Y953D01*
X748Y951D01*
X746Y951D01*
X746Y949D01*
X744Y949D01*
X744Y947D01*
X742Y947D01*
X742Y945D01*
X740Y945D01*
X740Y943D01*
X738Y943D01*
X738Y941D01*
X736Y941D01*
X736Y939D01*
X732Y939D01*
X732Y937D01*
X730Y937D01*
X730Y935D01*
X726Y935D01*
X726Y933D01*
X722Y933D01*
X722Y931D01*
X718Y931D01*
X718Y929D01*
X712Y929D01*
X712Y927D01*
X1724Y927D01*
X1724Y1059D01*
X1750Y1059D01*
X1750Y1113D01*
X632Y1113D01*
G37*
D02*
G36*
X632Y1065D02*
X632Y1051D01*
X652Y1051D01*
X652Y1053D01*
X654Y1053D01*
X654Y1055D01*
X658Y1055D01*
X658Y1057D01*
X660Y1057D01*
X660Y1059D01*
X664Y1059D01*
X664Y1061D01*
X670Y1061D01*
X670Y1063D01*
X676Y1063D01*
X676Y1065D01*
X632Y1065D01*
G37*
D02*
G36*
X238Y965D02*
X238Y963D01*
X236Y963D01*
X236Y959D01*
X234Y959D01*
X234Y957D01*
X232Y957D01*
X232Y953D01*
X230Y953D01*
X230Y951D01*
X228Y951D01*
X228Y949D01*
X226Y949D01*
X226Y947D01*
X224Y947D01*
X224Y945D01*
X222Y945D01*
X222Y943D01*
X220Y943D01*
X220Y941D01*
X216Y941D01*
X216Y919D01*
X220Y919D01*
X220Y917D01*
X222Y917D01*
X222Y915D01*
X224Y915D01*
X224Y913D01*
X226Y913D01*
X226Y911D01*
X228Y911D01*
X228Y909D01*
X230Y909D01*
X230Y907D01*
X232Y907D01*
X232Y905D01*
X234Y905D01*
X234Y901D01*
X236Y901D01*
X236Y899D01*
X238Y899D01*
X238Y895D01*
X240Y895D01*
X240Y891D01*
X242Y891D01*
X242Y887D01*
X244Y887D01*
X244Y881D01*
X246Y881D01*
X246Y843D01*
X244Y843D01*
X244Y837D01*
X366Y837D01*
X366Y839D01*
X356Y839D01*
X356Y841D01*
X350Y841D01*
X350Y843D01*
X346Y843D01*
X346Y845D01*
X342Y845D01*
X342Y847D01*
X340Y847D01*
X340Y849D01*
X336Y849D01*
X336Y851D01*
X334Y851D01*
X334Y853D01*
X332Y853D01*
X332Y855D01*
X330Y855D01*
X330Y857D01*
X328Y857D01*
X328Y859D01*
X326Y859D01*
X326Y861D01*
X324Y861D01*
X324Y863D01*
X322Y863D01*
X322Y867D01*
X320Y867D01*
X320Y869D01*
X318Y869D01*
X318Y873D01*
X316Y873D01*
X316Y877D01*
X314Y877D01*
X314Y883D01*
X312Y883D01*
X312Y919D01*
X314Y919D01*
X314Y925D01*
X316Y925D01*
X316Y929D01*
X318Y929D01*
X318Y933D01*
X320Y933D01*
X320Y937D01*
X322Y937D01*
X322Y939D01*
X324Y939D01*
X324Y941D01*
X326Y941D01*
X326Y943D01*
X328Y943D01*
X328Y945D01*
X330Y945D01*
X330Y947D01*
X332Y947D01*
X332Y949D01*
X334Y949D01*
X334Y951D01*
X336Y951D01*
X336Y953D01*
X338Y953D01*
X338Y955D01*
X342Y955D01*
X342Y957D01*
X344Y957D01*
X344Y959D01*
X348Y959D01*
X348Y961D01*
X352Y961D01*
X352Y963D01*
X360Y963D01*
X360Y965D01*
X238Y965D01*
G37*
D02*
G36*
X632Y939D02*
X632Y927D01*
X672Y927D01*
X672Y929D01*
X668Y929D01*
X668Y931D01*
X662Y931D01*
X662Y933D01*
X660Y933D01*
X660Y935D01*
X656Y935D01*
X656Y937D01*
X652Y937D01*
X652Y939D01*
X632Y939D01*
G37*
D02*
G36*
X632Y927D02*
X632Y925D01*
X1724Y925D01*
X1724Y927D01*
X632Y927D01*
G37*
D02*
G36*
X632Y927D02*
X632Y925D01*
X1724Y925D01*
X1724Y927D01*
X632Y927D01*
G37*
D02*
G36*
X632Y925D02*
X632Y877D01*
X1558Y877D01*
X1558Y739D01*
X1756Y739D01*
X1756Y747D01*
X1758Y747D01*
X1758Y779D01*
X1736Y779D01*
X1736Y921D01*
X1724Y921D01*
X1724Y925D01*
X632Y925D01*
G37*
D02*
G36*
X632Y877D02*
X632Y651D01*
X630Y651D01*
X630Y629D01*
X860Y629D01*
X860Y627D01*
X868Y627D01*
X868Y625D01*
X872Y625D01*
X872Y623D01*
X876Y623D01*
X876Y621D01*
X880Y621D01*
X880Y619D01*
X884Y619D01*
X884Y617D01*
X886Y617D01*
X886Y615D01*
X888Y615D01*
X888Y613D01*
X892Y613D01*
X892Y611D01*
X894Y611D01*
X894Y609D01*
X896Y609D01*
X896Y607D01*
X898Y607D01*
X898Y603D01*
X900Y603D01*
X900Y601D01*
X902Y601D01*
X902Y599D01*
X904Y599D01*
X904Y597D01*
X906Y597D01*
X906Y593D01*
X908Y593D01*
X908Y589D01*
X910Y589D01*
X910Y585D01*
X912Y585D01*
X912Y579D01*
X914Y579D01*
X914Y571D01*
X916Y571D01*
X916Y559D01*
X918Y559D01*
X918Y557D01*
X920Y557D01*
X920Y555D01*
X924Y555D01*
X924Y553D01*
X926Y553D01*
X926Y551D01*
X928Y551D01*
X928Y549D01*
X930Y549D01*
X930Y547D01*
X934Y547D01*
X934Y545D01*
X936Y545D01*
X936Y543D01*
X938Y543D01*
X938Y541D01*
X940Y541D01*
X940Y539D01*
X942Y539D01*
X942Y537D01*
X946Y537D01*
X946Y535D01*
X948Y535D01*
X948Y533D01*
X950Y533D01*
X950Y531D01*
X952Y531D01*
X952Y529D01*
X956Y529D01*
X956Y527D01*
X958Y527D01*
X958Y525D01*
X960Y525D01*
X960Y523D01*
X962Y523D01*
X962Y521D01*
X964Y521D01*
X964Y519D01*
X968Y519D01*
X968Y517D01*
X970Y517D01*
X970Y515D01*
X972Y515D01*
X972Y513D01*
X974Y513D01*
X974Y511D01*
X978Y511D01*
X978Y509D01*
X980Y509D01*
X980Y507D01*
X982Y507D01*
X982Y505D01*
X984Y505D01*
X984Y503D01*
X988Y503D01*
X988Y501D01*
X990Y501D01*
X990Y499D01*
X992Y499D01*
X992Y497D01*
X994Y497D01*
X994Y495D01*
X996Y495D01*
X996Y493D01*
X1000Y493D01*
X1000Y491D01*
X1002Y491D01*
X1002Y489D01*
X1004Y489D01*
X1004Y487D01*
X1006Y487D01*
X1006Y485D01*
X1010Y485D01*
X1010Y483D01*
X1012Y483D01*
X1012Y481D01*
X1014Y481D01*
X1014Y479D01*
X1016Y479D01*
X1016Y477D01*
X1018Y477D01*
X1018Y475D01*
X1022Y475D01*
X1022Y473D01*
X1024Y473D01*
X1024Y471D01*
X1026Y471D01*
X1026Y469D01*
X1028Y469D01*
X1028Y467D01*
X1050Y467D01*
X1050Y485D01*
X1048Y485D01*
X1048Y525D01*
X1046Y525D01*
X1046Y527D01*
X1044Y527D01*
X1044Y529D01*
X1042Y529D01*
X1042Y531D01*
X1040Y531D01*
X1040Y533D01*
X1038Y533D01*
X1038Y535D01*
X1036Y535D01*
X1036Y539D01*
X1034Y539D01*
X1034Y541D01*
X1032Y541D01*
X1032Y545D01*
X1030Y545D01*
X1030Y551D01*
X1028Y551D01*
X1028Y557D01*
X1026Y557D01*
X1026Y585D01*
X1028Y585D01*
X1028Y607D01*
X1026Y607D01*
X1026Y733D01*
X1044Y733D01*
X1044Y755D01*
X1042Y755D01*
X1042Y757D01*
X1040Y757D01*
X1040Y759D01*
X1038Y759D01*
X1038Y761D01*
X1036Y761D01*
X1036Y763D01*
X1034Y763D01*
X1034Y765D01*
X1032Y765D01*
X1032Y767D01*
X1030Y767D01*
X1030Y771D01*
X1028Y771D01*
X1028Y773D01*
X1026Y773D01*
X1026Y777D01*
X1024Y777D01*
X1024Y781D01*
X1022Y781D01*
X1022Y787D01*
X1020Y787D01*
X1020Y795D01*
X1018Y795D01*
X1018Y823D01*
X1020Y823D01*
X1020Y831D01*
X1022Y831D01*
X1022Y835D01*
X1024Y835D01*
X1024Y839D01*
X1026Y839D01*
X1026Y843D01*
X1028Y843D01*
X1028Y847D01*
X1030Y847D01*
X1030Y849D01*
X1032Y849D01*
X1032Y851D01*
X1034Y851D01*
X1034Y855D01*
X1036Y855D01*
X1036Y857D01*
X1038Y857D01*
X1038Y859D01*
X1040Y859D01*
X1040Y861D01*
X1044Y861D01*
X1044Y863D01*
X1046Y863D01*
X1046Y865D01*
X1048Y865D01*
X1048Y867D01*
X1050Y867D01*
X1050Y869D01*
X1054Y869D01*
X1054Y871D01*
X1058Y871D01*
X1058Y873D01*
X1062Y873D01*
X1062Y875D01*
X1068Y875D01*
X1068Y877D01*
X632Y877D01*
G37*
D02*
G36*
X1108Y877D02*
X1108Y875D01*
X1114Y875D01*
X1114Y873D01*
X1118Y873D01*
X1118Y871D01*
X1122Y871D01*
X1122Y869D01*
X1124Y869D01*
X1124Y867D01*
X1128Y867D01*
X1128Y865D01*
X1130Y865D01*
X1130Y863D01*
X1132Y863D01*
X1132Y861D01*
X1136Y861D01*
X1136Y859D01*
X1138Y859D01*
X1138Y857D01*
X1140Y857D01*
X1140Y855D01*
X1272Y855D01*
X1272Y853D01*
X1418Y853D01*
X1418Y877D01*
X1108Y877D01*
G37*
D02*
G36*
X1140Y855D02*
X1140Y853D01*
X1142Y853D01*
X1142Y851D01*
X1144Y851D01*
X1144Y849D01*
X1146Y849D01*
X1146Y847D01*
X1148Y847D01*
X1148Y843D01*
X1150Y843D01*
X1150Y839D01*
X1152Y839D01*
X1152Y835D01*
X1154Y835D01*
X1154Y829D01*
X1156Y829D01*
X1156Y825D01*
X1176Y825D01*
X1176Y827D01*
X1178Y827D01*
X1178Y829D01*
X1180Y829D01*
X1180Y833D01*
X1182Y833D01*
X1182Y835D01*
X1184Y835D01*
X1184Y837D01*
X1186Y837D01*
X1186Y841D01*
X1188Y841D01*
X1188Y843D01*
X1190Y843D01*
X1190Y845D01*
X1192Y845D01*
X1192Y847D01*
X1196Y847D01*
X1196Y849D01*
X1198Y849D01*
X1198Y851D01*
X1204Y851D01*
X1204Y853D01*
X1212Y853D01*
X1212Y855D01*
X1140Y855D01*
G37*
D02*
G36*
X384Y839D02*
X384Y837D01*
X410Y837D01*
X410Y839D01*
X384Y839D01*
G37*
D02*
G36*
X242Y837D02*
X242Y835D01*
X544Y835D01*
X544Y837D01*
X242Y837D01*
G37*
D02*
G36*
X242Y837D02*
X242Y835D01*
X544Y835D01*
X544Y837D01*
X242Y837D01*
G37*
D02*
G36*
X242Y835D02*
X242Y831D01*
X240Y831D01*
X240Y827D01*
X238Y827D01*
X238Y825D01*
X236Y825D01*
X236Y821D01*
X234Y821D01*
X234Y819D01*
X232Y819D01*
X232Y815D01*
X230Y815D01*
X230Y813D01*
X228Y813D01*
X228Y811D01*
X226Y811D01*
X226Y809D01*
X224Y809D01*
X224Y807D01*
X222Y807D01*
X222Y805D01*
X218Y805D01*
X218Y803D01*
X216Y803D01*
X216Y801D01*
X214Y801D01*
X214Y799D01*
X210Y799D01*
X210Y797D01*
X206Y797D01*
X206Y795D01*
X202Y795D01*
X202Y793D01*
X198Y793D01*
X198Y791D01*
X190Y791D01*
X190Y789D01*
X544Y789D01*
X544Y835D01*
X242Y835D01*
G37*
D02*
G36*
X52Y789D02*
X52Y787D01*
X544Y787D01*
X544Y789D01*
X52Y789D01*
G37*
D02*
G36*
X52Y789D02*
X52Y787D01*
X544Y787D01*
X544Y789D01*
X52Y789D01*
G37*
D02*
G36*
X52Y787D02*
X52Y51D01*
X1052Y51D01*
X1052Y73D01*
X1050Y73D01*
X1050Y111D01*
X1052Y111D01*
X1052Y117D01*
X1054Y117D01*
X1054Y121D01*
X1056Y121D01*
X1056Y125D01*
X1058Y125D01*
X1058Y129D01*
X1060Y129D01*
X1060Y131D01*
X1062Y131D01*
X1062Y135D01*
X1064Y135D01*
X1064Y137D01*
X1066Y137D01*
X1066Y139D01*
X1068Y139D01*
X1068Y141D01*
X1070Y141D01*
X1070Y143D01*
X1072Y143D01*
X1072Y145D01*
X1074Y145D01*
X1074Y147D01*
X1076Y147D01*
X1076Y149D01*
X1080Y149D01*
X1080Y151D01*
X1082Y151D01*
X1082Y153D01*
X1086Y153D01*
X1086Y155D01*
X1088Y155D01*
X1088Y175D01*
X1032Y175D01*
X1032Y177D01*
X836Y177D01*
X836Y179D01*
X638Y179D01*
X638Y181D01*
X612Y181D01*
X612Y183D01*
X608Y183D01*
X608Y185D01*
X604Y185D01*
X604Y187D01*
X600Y187D01*
X600Y189D01*
X598Y189D01*
X598Y191D01*
X596Y191D01*
X596Y193D01*
X594Y193D01*
X594Y197D01*
X592Y197D01*
X592Y199D01*
X590Y199D01*
X590Y203D01*
X588Y203D01*
X588Y205D01*
X586Y205D01*
X586Y209D01*
X584Y209D01*
X584Y211D01*
X582Y211D01*
X582Y215D01*
X580Y215D01*
X580Y217D01*
X578Y217D01*
X578Y221D01*
X576Y221D01*
X576Y223D01*
X574Y223D01*
X574Y227D01*
X572Y227D01*
X572Y229D01*
X570Y229D01*
X570Y233D01*
X568Y233D01*
X568Y235D01*
X566Y235D01*
X566Y239D01*
X564Y239D01*
X564Y241D01*
X562Y241D01*
X562Y245D01*
X560Y245D01*
X560Y247D01*
X558Y247D01*
X558Y251D01*
X556Y251D01*
X556Y253D01*
X554Y253D01*
X554Y257D01*
X552Y257D01*
X552Y259D01*
X550Y259D01*
X550Y263D01*
X548Y263D01*
X548Y265D01*
X546Y265D01*
X546Y269D01*
X544Y269D01*
X544Y275D01*
X542Y275D01*
X542Y671D01*
X544Y671D01*
X544Y787D01*
X52Y787D01*
G37*
D02*
G36*
X1246Y765D02*
X1246Y763D01*
X1244Y763D01*
X1244Y759D01*
X1242Y759D01*
X1242Y757D01*
X1240Y757D01*
X1240Y755D01*
X1238Y755D01*
X1238Y753D01*
X1236Y753D01*
X1236Y749D01*
X1234Y749D01*
X1234Y747D01*
X1232Y747D01*
X1232Y745D01*
X1230Y745D01*
X1230Y743D01*
X1228Y743D01*
X1228Y739D01*
X1418Y739D01*
X1418Y765D01*
X1246Y765D01*
G37*
D02*
G36*
X1226Y739D02*
X1226Y737D01*
X1756Y737D01*
X1756Y739D01*
X1226Y739D01*
G37*
D02*
G36*
X1226Y739D02*
X1226Y737D01*
X1756Y737D01*
X1756Y739D01*
X1226Y739D01*
G37*
D02*
G36*
X1224Y737D02*
X1224Y735D01*
X1222Y735D01*
X1222Y731D01*
X1220Y731D01*
X1220Y729D01*
X1218Y729D01*
X1218Y727D01*
X1216Y727D01*
X1216Y725D01*
X1214Y725D01*
X1214Y659D01*
X1216Y659D01*
X1216Y643D01*
X1726Y643D01*
X1726Y641D01*
X1754Y641D01*
X1754Y687D01*
X1756Y687D01*
X1756Y737D01*
X1224Y737D01*
G37*
D02*
G36*
X1216Y643D02*
X1216Y607D01*
X1218Y607D01*
X1218Y567D01*
X1220Y567D01*
X1220Y565D01*
X1222Y565D01*
X1222Y563D01*
X1224Y563D01*
X1224Y561D01*
X1226Y561D01*
X1226Y559D01*
X1228Y559D01*
X1228Y557D01*
X1230Y557D01*
X1230Y555D01*
X1232Y555D01*
X1232Y553D01*
X1234Y553D01*
X1234Y551D01*
X1236Y551D01*
X1236Y549D01*
X1238Y549D01*
X1238Y547D01*
X1240Y547D01*
X1240Y543D01*
X1242Y543D01*
X1242Y541D01*
X1244Y541D01*
X1244Y539D01*
X1246Y539D01*
X1246Y537D01*
X1248Y537D01*
X1248Y535D01*
X1250Y535D01*
X1250Y533D01*
X1252Y533D01*
X1252Y531D01*
X1254Y531D01*
X1254Y529D01*
X1256Y529D01*
X1256Y527D01*
X1258Y527D01*
X1258Y525D01*
X1260Y525D01*
X1260Y523D01*
X1262Y523D01*
X1262Y521D01*
X1424Y521D01*
X1424Y541D01*
X1422Y541D01*
X1422Y545D01*
X1420Y545D01*
X1420Y547D01*
X1418Y547D01*
X1418Y553D01*
X1416Y553D01*
X1416Y559D01*
X1414Y559D01*
X1414Y593D01*
X1416Y593D01*
X1416Y599D01*
X1418Y599D01*
X1418Y605D01*
X1420Y605D01*
X1420Y607D01*
X1422Y607D01*
X1422Y611D01*
X1424Y611D01*
X1424Y615D01*
X1426Y615D01*
X1426Y617D01*
X1428Y617D01*
X1428Y619D01*
X1430Y619D01*
X1430Y621D01*
X1432Y621D01*
X1432Y623D01*
X1434Y623D01*
X1434Y625D01*
X1436Y625D01*
X1436Y627D01*
X1438Y627D01*
X1438Y629D01*
X1440Y629D01*
X1440Y631D01*
X1444Y631D01*
X1444Y633D01*
X1446Y633D01*
X1446Y635D01*
X1450Y635D01*
X1450Y637D01*
X1454Y637D01*
X1454Y639D01*
X1460Y639D01*
X1460Y641D01*
X1470Y641D01*
X1470Y643D01*
X1216Y643D01*
G37*
D02*
G36*
X1488Y643D02*
X1488Y641D01*
X1500Y641D01*
X1500Y639D01*
X1504Y639D01*
X1504Y637D01*
X1508Y637D01*
X1508Y635D01*
X1530Y635D01*
X1530Y637D01*
X1534Y637D01*
X1534Y639D01*
X1538Y639D01*
X1538Y641D01*
X1550Y641D01*
X1550Y643D01*
X1488Y643D01*
G37*
D02*
G36*
X1568Y643D02*
X1568Y641D01*
X1578Y641D01*
X1578Y639D01*
X1584Y639D01*
X1584Y637D01*
X1588Y637D01*
X1588Y635D01*
X1608Y635D01*
X1608Y637D01*
X1612Y637D01*
X1612Y639D01*
X1618Y639D01*
X1618Y641D01*
X1628Y641D01*
X1628Y643D01*
X1568Y643D01*
G37*
D02*
G36*
X1646Y643D02*
X1646Y641D01*
X1658Y641D01*
X1658Y639D01*
X1662Y639D01*
X1662Y637D01*
X1666Y637D01*
X1666Y635D01*
X1688Y635D01*
X1688Y637D01*
X1692Y637D01*
X1692Y639D01*
X1696Y639D01*
X1696Y641D01*
X1708Y641D01*
X1708Y643D01*
X1646Y643D01*
G37*
D02*
G36*
X630Y629D02*
X630Y307D01*
X632Y307D01*
X632Y305D01*
X634Y305D01*
X634Y301D01*
X636Y301D01*
X636Y299D01*
X638Y299D01*
X638Y295D01*
X640Y295D01*
X640Y293D01*
X642Y293D01*
X642Y289D01*
X644Y289D01*
X644Y287D01*
X646Y287D01*
X646Y283D01*
X648Y283D01*
X648Y281D01*
X650Y281D01*
X650Y277D01*
X652Y277D01*
X652Y275D01*
X654Y275D01*
X654Y271D01*
X656Y271D01*
X656Y269D01*
X658Y269D01*
X658Y267D01*
X824Y267D01*
X824Y287D01*
X774Y287D01*
X774Y477D01*
X776Y477D01*
X776Y483D01*
X778Y483D01*
X778Y487D01*
X780Y487D01*
X780Y491D01*
X782Y491D01*
X782Y495D01*
X784Y495D01*
X784Y497D01*
X786Y497D01*
X786Y519D01*
X784Y519D01*
X784Y521D01*
X782Y521D01*
X782Y525D01*
X780Y525D01*
X780Y529D01*
X778Y529D01*
X778Y533D01*
X776Y533D01*
X776Y539D01*
X774Y539D01*
X774Y577D01*
X776Y577D01*
X776Y583D01*
X778Y583D01*
X778Y587D01*
X780Y587D01*
X780Y591D01*
X782Y591D01*
X782Y595D01*
X784Y595D01*
X784Y597D01*
X786Y597D01*
X786Y601D01*
X788Y601D01*
X788Y603D01*
X790Y603D01*
X790Y605D01*
X792Y605D01*
X792Y607D01*
X794Y607D01*
X794Y609D01*
X796Y609D01*
X796Y611D01*
X798Y611D01*
X798Y613D01*
X800Y613D01*
X800Y615D01*
X802Y615D01*
X802Y617D01*
X806Y617D01*
X806Y619D01*
X808Y619D01*
X808Y621D01*
X812Y621D01*
X812Y623D01*
X816Y623D01*
X816Y625D01*
X820Y625D01*
X820Y627D01*
X828Y627D01*
X828Y629D01*
X630Y629D01*
G37*
D02*
G36*
X2228Y381D02*
X2228Y361D01*
X2230Y361D01*
X2230Y359D01*
X2232Y359D01*
X2232Y357D01*
X2236Y357D01*
X2236Y355D01*
X2238Y355D01*
X2238Y353D01*
X2240Y353D01*
X2240Y351D01*
X2244Y351D01*
X2244Y349D01*
X2246Y349D01*
X2246Y345D01*
X2248Y345D01*
X2248Y343D01*
X2250Y343D01*
X2250Y339D01*
X2252Y339D01*
X2252Y335D01*
X2254Y335D01*
X2254Y325D01*
X2256Y325D01*
X2256Y269D01*
X2258Y269D01*
X2258Y213D01*
X2260Y213D01*
X2260Y161D01*
X2340Y161D01*
X2340Y159D01*
X2344Y159D01*
X2344Y157D01*
X2350Y157D01*
X2350Y155D01*
X2352Y155D01*
X2352Y153D01*
X2372Y153D01*
X2372Y177D01*
X2370Y177D01*
X2370Y223D01*
X2368Y223D01*
X2368Y269D01*
X2366Y269D01*
X2366Y313D01*
X2364Y313D01*
X2364Y315D01*
X2362Y315D01*
X2362Y317D01*
X2360Y317D01*
X2360Y319D01*
X2356Y319D01*
X2356Y321D01*
X2354Y321D01*
X2354Y323D01*
X2352Y323D01*
X2352Y325D01*
X2350Y325D01*
X2350Y327D01*
X2348Y327D01*
X2348Y329D01*
X2344Y329D01*
X2344Y331D01*
X2342Y331D01*
X2342Y333D01*
X2340Y333D01*
X2340Y335D01*
X2338Y335D01*
X2338Y337D01*
X2336Y337D01*
X2336Y339D01*
X2334Y339D01*
X2334Y341D01*
X2330Y341D01*
X2330Y343D01*
X2328Y343D01*
X2328Y345D01*
X2326Y345D01*
X2326Y347D01*
X2324Y347D01*
X2324Y349D01*
X2322Y349D01*
X2322Y351D01*
X2318Y351D01*
X2318Y353D01*
X2316Y353D01*
X2316Y355D01*
X2314Y355D01*
X2314Y357D01*
X2312Y357D01*
X2312Y359D01*
X2310Y359D01*
X2310Y361D01*
X2306Y361D01*
X2306Y363D01*
X2304Y363D01*
X2304Y365D01*
X2302Y365D01*
X2302Y367D01*
X2300Y367D01*
X2300Y369D01*
X2298Y369D01*
X2298Y371D01*
X2294Y371D01*
X2294Y373D01*
X2292Y373D01*
X2292Y375D01*
X2290Y375D01*
X2290Y377D01*
X2288Y377D01*
X2288Y379D01*
X2286Y379D01*
X2286Y381D01*
X2228Y381D01*
G37*
D02*
G36*
X2260Y161D02*
X2260Y157D01*
X2262Y157D01*
X2262Y151D01*
X2282Y151D01*
X2282Y153D01*
X2286Y153D01*
X2286Y155D01*
X2288Y155D01*
X2288Y157D01*
X2294Y157D01*
X2294Y159D01*
X2300Y159D01*
X2300Y161D01*
X2260Y161D01*
G37*
D02*
G36*
X2654Y365D02*
X2654Y363D01*
X2652Y363D01*
X2652Y361D01*
X2648Y361D01*
X2648Y359D01*
X2646Y359D01*
X2646Y357D01*
X2644Y357D01*
X2644Y355D01*
X2640Y355D01*
X2640Y353D01*
X2636Y353D01*
X2636Y351D01*
X2632Y351D01*
X2632Y349D01*
X2624Y349D01*
X2624Y347D01*
X2674Y347D01*
X2674Y365D01*
X2654Y365D01*
G37*
D02*
G36*
X2574Y349D02*
X2574Y347D01*
X2596Y347D01*
X2596Y349D01*
X2574Y349D01*
G37*
D02*
G36*
X2558Y347D02*
X2558Y345D01*
X2674Y345D01*
X2674Y347D01*
X2558Y347D01*
G37*
D02*
G36*
X2558Y347D02*
X2558Y345D01*
X2674Y345D01*
X2674Y347D01*
X2558Y347D01*
G37*
D02*
G36*
X2558Y345D02*
X2558Y275D01*
X2560Y275D01*
X2560Y189D01*
X2562Y189D01*
X2562Y147D01*
X2564Y147D01*
X2564Y145D01*
X2566Y145D01*
X2566Y143D01*
X2568Y143D01*
X2568Y141D01*
X2570Y141D01*
X2570Y139D01*
X2572Y139D01*
X2572Y137D01*
X2574Y137D01*
X2574Y135D01*
X2576Y135D01*
X2576Y131D01*
X2596Y131D01*
X2596Y133D01*
X2598Y133D01*
X2598Y135D01*
X2600Y135D01*
X2600Y137D01*
X2602Y137D01*
X2602Y139D01*
X2604Y139D01*
X2604Y141D01*
X2606Y141D01*
X2606Y143D01*
X2608Y143D01*
X2608Y145D01*
X2610Y145D01*
X2610Y147D01*
X2612Y147D01*
X2612Y149D01*
X2614Y149D01*
X2614Y151D01*
X2616Y151D01*
X2616Y153D01*
X2618Y153D01*
X2618Y155D01*
X2620Y155D01*
X2620Y157D01*
X2622Y157D01*
X2622Y159D01*
X2624Y159D01*
X2624Y161D01*
X2626Y161D01*
X2626Y163D01*
X2628Y163D01*
X2628Y165D01*
X2630Y165D01*
X2630Y167D01*
X2632Y167D01*
X2632Y169D01*
X2634Y169D01*
X2634Y171D01*
X2636Y171D01*
X2636Y173D01*
X2638Y173D01*
X2638Y175D01*
X2640Y175D01*
X2640Y177D01*
X2642Y177D01*
X2642Y179D01*
X2644Y179D01*
X2644Y181D01*
X2646Y181D01*
X2646Y183D01*
X2648Y183D01*
X2648Y185D01*
X2650Y185D01*
X2650Y187D01*
X2652Y187D01*
X2652Y189D01*
X2654Y189D01*
X2654Y191D01*
X2656Y191D01*
X2656Y193D01*
X2658Y193D01*
X2658Y195D01*
X2660Y195D01*
X2660Y197D01*
X2662Y197D01*
X2662Y199D01*
X2664Y199D01*
X2664Y201D01*
X2666Y201D01*
X2666Y203D01*
X2668Y203D01*
X2668Y205D01*
X2670Y205D01*
X2670Y207D01*
X2672Y207D01*
X2672Y209D01*
X2674Y209D01*
X2674Y345D01*
X2558Y345D01*
G37*
D02*
G36*
X2100Y325D02*
X2100Y315D01*
X2102Y315D01*
X2102Y313D01*
X2104Y313D01*
X2104Y311D01*
X2106Y311D01*
X2106Y309D01*
X2108Y309D01*
X2108Y307D01*
X2110Y307D01*
X2110Y305D01*
X2114Y305D01*
X2114Y303D01*
X2116Y303D01*
X2116Y301D01*
X2118Y301D01*
X2118Y299D01*
X2120Y299D01*
X2120Y297D01*
X2122Y297D01*
X2122Y295D01*
X2124Y295D01*
X2124Y293D01*
X2126Y293D01*
X2126Y291D01*
X2130Y291D01*
X2130Y289D01*
X2132Y289D01*
X2132Y287D01*
X2134Y287D01*
X2134Y285D01*
X2136Y285D01*
X2136Y283D01*
X2138Y283D01*
X2138Y281D01*
X2140Y281D01*
X2140Y279D01*
X2142Y279D01*
X2142Y277D01*
X2146Y277D01*
X2146Y273D01*
X2148Y273D01*
X2148Y271D01*
X2168Y271D01*
X2168Y291D01*
X2164Y291D01*
X2164Y293D01*
X2162Y293D01*
X2162Y295D01*
X2160Y295D01*
X2160Y297D01*
X2156Y297D01*
X2156Y299D01*
X2154Y299D01*
X2154Y301D01*
X2152Y301D01*
X2152Y303D01*
X2148Y303D01*
X2148Y305D01*
X2146Y305D01*
X2146Y307D01*
X2144Y307D01*
X2144Y309D01*
X2140Y309D01*
X2140Y311D01*
X2138Y311D01*
X2138Y313D01*
X2136Y313D01*
X2136Y315D01*
X2132Y315D01*
X2132Y317D01*
X2130Y317D01*
X2130Y319D01*
X2126Y319D01*
X2126Y321D01*
X2124Y321D01*
X2124Y323D01*
X2122Y323D01*
X2122Y325D01*
X2100Y325D01*
G37*
D02*
G36*
X1556Y219D02*
X1556Y199D01*
X1558Y199D01*
X1558Y195D01*
X1560Y195D01*
X1560Y171D01*
X1562Y171D01*
X1562Y161D01*
X1838Y161D01*
X1838Y159D01*
X1844Y159D01*
X1844Y157D01*
X1850Y157D01*
X1850Y155D01*
X1852Y155D01*
X1852Y153D01*
X1856Y153D01*
X1856Y151D01*
X1858Y151D01*
X1858Y149D01*
X1862Y149D01*
X1862Y147D01*
X1864Y147D01*
X1864Y145D01*
X1866Y145D01*
X1866Y143D01*
X1868Y143D01*
X1868Y141D01*
X1870Y141D01*
X1870Y139D01*
X1872Y139D01*
X1872Y137D01*
X1874Y137D01*
X1874Y135D01*
X1876Y135D01*
X1876Y131D01*
X1878Y131D01*
X1878Y129D01*
X1880Y129D01*
X1880Y125D01*
X1882Y125D01*
X1882Y123D01*
X1884Y123D01*
X1884Y117D01*
X1886Y117D01*
X1886Y111D01*
X1888Y111D01*
X1888Y73D01*
X1886Y73D01*
X1886Y51D01*
X1952Y51D01*
X1952Y73D01*
X1950Y73D01*
X1950Y111D01*
X1952Y111D01*
X1952Y117D01*
X1954Y117D01*
X1954Y121D01*
X1956Y121D01*
X1956Y125D01*
X1958Y125D01*
X1958Y129D01*
X1960Y129D01*
X1960Y131D01*
X1962Y131D01*
X1962Y135D01*
X1964Y135D01*
X1964Y137D01*
X1966Y137D01*
X1966Y139D01*
X1968Y139D01*
X1968Y141D01*
X1970Y141D01*
X1970Y143D01*
X1972Y143D01*
X1972Y145D01*
X1974Y145D01*
X1974Y185D01*
X1970Y185D01*
X1970Y187D01*
X1968Y187D01*
X1968Y189D01*
X1966Y189D01*
X1966Y191D01*
X1962Y191D01*
X1962Y193D01*
X1960Y193D01*
X1960Y195D01*
X1956Y195D01*
X1956Y197D01*
X1954Y197D01*
X1954Y199D01*
X1952Y199D01*
X1952Y201D01*
X1948Y201D01*
X1948Y203D01*
X1946Y203D01*
X1946Y205D01*
X1944Y205D01*
X1944Y207D01*
X1940Y207D01*
X1940Y209D01*
X1938Y209D01*
X1938Y211D01*
X1934Y211D01*
X1934Y213D01*
X1932Y213D01*
X1932Y215D01*
X1930Y215D01*
X1930Y217D01*
X1926Y217D01*
X1926Y219D01*
X1556Y219D01*
G37*
D02*
G36*
X1562Y161D02*
X1562Y151D01*
X1582Y151D01*
X1582Y153D01*
X1586Y153D01*
X1586Y155D01*
X1588Y155D01*
X1588Y157D01*
X1594Y157D01*
X1594Y159D01*
X1600Y159D01*
X1600Y161D01*
X1562Y161D01*
G37*
D02*
G36*
X1638Y161D02*
X1638Y159D01*
X1644Y159D01*
X1644Y157D01*
X1650Y157D01*
X1650Y155D01*
X1652Y155D01*
X1652Y153D01*
X1656Y153D01*
X1656Y151D01*
X1658Y151D01*
X1658Y149D01*
X1680Y149D01*
X1680Y151D01*
X1682Y151D01*
X1682Y153D01*
X1686Y153D01*
X1686Y155D01*
X1688Y155D01*
X1688Y157D01*
X1694Y157D01*
X1694Y159D01*
X1700Y159D01*
X1700Y161D01*
X1638Y161D01*
G37*
D02*
G36*
X1738Y161D02*
X1738Y159D01*
X1744Y159D01*
X1744Y157D01*
X1750Y157D01*
X1750Y155D01*
X1752Y155D01*
X1752Y153D01*
X1756Y153D01*
X1756Y151D01*
X1758Y151D01*
X1758Y149D01*
X1780Y149D01*
X1780Y151D01*
X1782Y151D01*
X1782Y153D01*
X1786Y153D01*
X1786Y155D01*
X1790Y155D01*
X1790Y157D01*
X1794Y157D01*
X1794Y159D01*
X1800Y159D01*
X1800Y161D01*
X1738Y161D01*
G37*
D02*
G36*
X1461Y1517D02*
X1494Y1517D01*
X1494Y1459D01*
X1461Y1459D01*
X1461Y1517D01*
G37*
D02*
G36*
X1410Y1464D02*
X1466Y1464D01*
X1466Y1431D01*
X1410Y1431D01*
X1410Y1464D01*
G37*
D02*
G36*
X1561Y1251D02*
X1598Y1251D01*
X1598Y1193D01*
X1561Y1193D01*
X1561Y1251D01*
G37*
D02*
G36*
X1592Y1282D02*
X1650Y1282D01*
X1650Y1245D01*
X1592Y1245D01*
X1592Y1282D01*
G37*
D02*
G36*
X1024Y1459D02*
X1078Y1459D01*
X1078Y1428D01*
X1024Y1428D01*
X1024Y1459D01*
G37*
D02*
G36*
X2480Y735D02*
X2511Y735D01*
X2511Y681D01*
X2480Y681D01*
X2480Y735D01*
G37*
D02*
G36*
X2430Y685D02*
X2484Y685D01*
X2484Y654D01*
X2430Y654D01*
X2430Y685D01*
G37*
D02*
G36*
X1599Y165D02*
X1636Y165D01*
X1636Y109D01*
X1599Y109D01*
X1599Y165D01*
G37*
D02*
G36*
X1599Y83D02*
X1636Y83D01*
X1636Y1D01*
X1599Y1D01*
X1599Y83D01*
G37*
D02*
G36*
X1699Y165D02*
X1736Y165D01*
X1736Y109D01*
X1699Y109D01*
X1699Y165D01*
G37*
D02*
G36*
X1699Y83D02*
X1736Y83D01*
X1736Y1D01*
X1699Y1D01*
X1699Y83D01*
G37*
D02*
G36*
X2592Y403D02*
X2623Y403D01*
X2623Y347D01*
X2592Y347D01*
X2592Y403D01*
G37*
D02*
G54D23*
X1029Y2101D02*
X1065Y2101D01*
X1029Y2100D02*
X1065Y2100D01*
X1029Y2099D02*
X1065Y2099D01*
X1029Y2098D02*
X1065Y2098D01*
X1029Y2097D02*
X1065Y2097D01*
X1029Y2096D02*
X1065Y2096D01*
X1029Y2095D02*
X1065Y2095D01*
X1029Y2094D02*
X1065Y2094D01*
X1029Y2093D02*
X1065Y2093D01*
X1029Y2092D02*
X1065Y2092D01*
X1029Y2091D02*
X1065Y2091D01*
X1029Y2090D02*
X1065Y2090D01*
X1029Y2089D02*
X1065Y2089D01*
X1029Y2088D02*
X1065Y2088D01*
X1029Y2087D02*
X1065Y2087D01*
X1029Y2086D02*
X1065Y2086D01*
X1029Y2085D02*
X1065Y2085D01*
X1029Y2084D02*
X1065Y2084D01*
X1029Y2083D02*
X1065Y2083D01*
X1029Y2082D02*
X1065Y2082D01*
X1029Y2081D02*
X1065Y2081D01*
X1029Y2080D02*
X1065Y2080D01*
X1029Y2079D02*
X1065Y2079D01*
X1029Y2078D02*
X1065Y2078D01*
X1029Y2077D02*
X1065Y2077D01*
X1029Y2076D02*
X1065Y2076D01*
X1029Y2075D02*
X1065Y2075D01*
X1029Y2074D02*
X1065Y2074D01*
X1029Y2073D02*
X1065Y2073D01*
X1029Y2072D02*
X1065Y2072D01*
X1029Y2071D02*
X1065Y2071D01*
X1029Y2070D02*
X1065Y2070D01*
X1029Y2069D02*
X1065Y2069D01*
X1029Y2068D02*
X1065Y2068D01*
X1029Y2067D02*
X1065Y2067D01*
X1029Y2066D02*
X1065Y2066D01*
X1029Y2065D02*
X1065Y2065D01*
X1029Y2064D02*
X1065Y2064D01*
X1029Y2063D02*
X1065Y2063D01*
X1029Y2062D02*
X1065Y2062D01*
X1029Y2061D02*
X1065Y2061D01*
X1029Y2060D02*
X1065Y2060D01*
X1029Y2059D02*
X1065Y2059D01*
X1029Y2058D02*
X1065Y2058D01*
X1029Y2057D02*
X1065Y2057D01*
X1029Y2056D02*
X1065Y2056D01*
X1029Y2055D02*
X1065Y2055D01*
X1029Y2054D02*
X1065Y2054D01*
X1029Y2053D02*
X1065Y2053D01*
X1029Y2052D02*
X1065Y2052D01*
X1029Y2051D02*
X1065Y2051D01*
X1029Y2050D02*
X1065Y2050D01*
X1029Y2049D02*
X1065Y2049D01*
X1029Y2048D02*
X1065Y2048D01*
X1029Y2047D02*
X1065Y2047D01*
X1029Y2046D02*
X1065Y2046D01*
X1029Y2045D02*
X1065Y2045D01*
X1029Y2044D02*
X1065Y2044D01*
X1029Y2043D02*
X1065Y2043D01*
X1029Y2042D02*
X1065Y2042D01*
X1029Y2041D02*
X1065Y2041D01*
X1029Y2040D02*
X1065Y2040D01*
X1029Y2039D02*
X1065Y2039D01*
X1029Y2038D02*
X1065Y2038D01*
X1029Y2037D02*
X1065Y2037D01*
X1029Y2036D02*
X1065Y2036D01*
X1029Y2035D02*
X1065Y2035D01*
X1029Y2034D02*
X1065Y2034D01*
X1029Y2033D02*
X1065Y2033D01*
X1029Y2032D02*
X1065Y2032D01*
X1029Y2031D02*
X1065Y2031D01*
X1029Y2030D02*
X1065Y2030D01*
X1029Y2029D02*
X1065Y2029D01*
X1029Y2028D02*
X1065Y2028D01*
X1029Y2027D02*
X1065Y2027D01*
X1029Y2026D02*
X1065Y2026D01*
X1029Y2025D02*
X1065Y2025D01*
X1029Y2024D02*
X1065Y2024D01*
X1029Y2023D02*
X1065Y2023D01*
X1029Y2022D02*
X1065Y2022D01*
X1029Y2021D02*
X1065Y2021D01*
X1029Y2020D02*
X1065Y2020D01*
X1029Y2019D02*
X1065Y2019D01*
X1029Y2018D02*
X1065Y2018D01*
X1029Y2017D02*
X1065Y2017D01*
X1029Y2016D02*
X1065Y2016D01*
X1029Y2015D02*
X1065Y2015D01*
X1029Y2014D02*
X1065Y2014D01*
X1029Y2013D02*
X1065Y2013D01*
X1029Y2012D02*
X1065Y2012D01*
X1029Y2011D02*
X1065Y2011D01*
X1029Y2010D02*
X1065Y2010D01*
X1029Y2009D02*
X1065Y2009D01*
X1029Y2008D02*
X1065Y2008D01*
D02*
G04 End of Copper0*
M02*