G04 MADE WITH FRITZING*
G04 WWW.FRITZING.ORG*
G04 DOUBLE SIDED*
G04 HOLES PLATED*
G04 CONTOUR ON CENTER OF CONTOUR VECTOR*
%ASAXBY*%
%FSLAX23Y23*%
%MOIN*%
%OFA0B0*%
%SFA1.0B1.0*%
%ADD10C,0.075000*%
%ADD11C,0.075833*%
%ADD12C,0.068000*%
%ADD13C,0.062992*%
%ADD14C,0.073889*%
%ADD15C,0.078000*%
%ADD16C,0.080000*%
%ADD17R,0.068000X0.068000*%
%ADD18R,0.075000X0.075000*%
%ADD19R,0.062992X0.062992*%
%ADD20R,0.078000X0.078000*%
%ADD21R,0.080000X0.080000*%
%ADD22C,0.024000*%
%ADD23R,0.001000X0.001000*%
%LNCOPPER1*%
G90*
G70*
G54D10*
X130Y1990D03*
X1545Y1862D03*
X2121Y1847D03*
X2530Y1531D03*
G54D11*
X742Y1992D03*
X842Y1992D03*
X949Y1992D03*
X1049Y1992D03*
X1149Y1992D03*
X1249Y1992D03*
X1349Y1992D03*
X1449Y1992D03*
X1549Y1992D03*
X1649Y1992D03*
X1819Y1992D03*
X1919Y1992D03*
X2019Y1992D03*
X2119Y1992D03*
X2219Y1992D03*
X2319Y1992D03*
X2419Y1992D03*
X2519Y1992D03*
X1119Y92D03*
X1219Y92D03*
X1319Y92D03*
X1419Y92D03*
X1519Y92D03*
X1619Y92D03*
X1719Y92D03*
X1819Y92D03*
X2019Y92D03*
X2119Y92D03*
X2219Y92D03*
X2319Y92D03*
X2419Y92D03*
X2519Y92D03*
G54D12*
X2191Y1446D03*
X2112Y1446D03*
X2033Y1446D03*
X1954Y1446D03*
X1875Y1446D03*
X1796Y1446D03*
X1717Y1446D03*
X1638Y1446D03*
X1559Y1446D03*
X1480Y1446D03*
X1480Y576D03*
X1559Y576D03*
X1638Y576D03*
X1717Y576D03*
X1796Y576D03*
X1875Y576D03*
X1954Y576D03*
X2033Y576D03*
X2112Y576D03*
X2191Y576D03*
G54D10*
X1794Y990D03*
X2194Y990D03*
X1488Y809D03*
X1088Y809D03*
X1491Y1186D03*
X1091Y1186D03*
X693Y1396D03*
X693Y996D03*
X1805Y849D03*
X2205Y849D03*
G54D13*
X2596Y667D03*
X2498Y667D03*
X1090Y671D03*
X1090Y572D03*
X473Y902D03*
X375Y902D03*
G54D14*
X264Y1560D03*
X264Y1660D03*
X264Y1760D03*
X264Y1860D03*
G54D10*
X589Y1397D03*
X589Y1797D03*
X2502Y1264D03*
X2102Y1264D03*
X1981Y1262D03*
X1581Y1262D03*
G54D13*
X2511Y411D03*
X2610Y411D03*
X1091Y1344D03*
X1091Y1443D03*
G54D15*
X844Y358D03*
X844Y458D03*
X844Y558D03*
G54D16*
X175Y1137D03*
X175Y999D03*
X175Y862D03*
G54D17*
X2191Y1446D03*
G54D18*
X1794Y990D03*
X1488Y809D03*
X1491Y1186D03*
X693Y1396D03*
X1805Y849D03*
G54D19*
X2596Y667D03*
X1090Y671D03*
X473Y902D03*
G54D18*
X589Y1397D03*
X2502Y1264D03*
X1981Y1262D03*
G54D19*
X2511Y411D03*
X1091Y1344D03*
G54D20*
X844Y358D03*
G54D21*
X175Y1137D03*
G54D22*
X2487Y647D02*
X2412Y496D01*
D02*
X1790Y496D02*
X1714Y422D01*
D02*
X1714Y422D02*
X1719Y117D01*
D02*
X2153Y1336D02*
X1450Y1338D01*
D02*
X2183Y1425D02*
X2153Y1336D01*
D02*
X1450Y1338D02*
X1403Y1255D01*
D02*
X1403Y1255D02*
X1419Y117D01*
D02*
X1456Y1446D02*
X1114Y1443D01*
D02*
X2324Y1580D02*
X2251Y1515D01*
D02*
X2319Y1968D02*
X2324Y1580D01*
D02*
X2220Y1968D02*
X2228Y1613D01*
D02*
X680Y974D02*
X638Y903D01*
D02*
X638Y903D02*
X496Y902D01*
D02*
X1347Y1919D02*
X1348Y1968D01*
D02*
X290Y1860D02*
X1295Y1873D01*
D02*
X1295Y1873D02*
X1347Y1919D01*
D02*
X1451Y1864D02*
X1379Y1804D01*
D02*
X1449Y1968D02*
X1451Y1864D01*
D02*
X433Y1742D02*
X282Y1579D01*
D02*
X1649Y1968D02*
X1648Y1817D01*
D02*
X1648Y1817D02*
X1597Y1748D01*
D02*
X564Y1796D02*
X348Y1793D01*
D02*
X1764Y1704D02*
X455Y1691D01*
D02*
X1819Y1773D02*
X1764Y1704D01*
D02*
X1819Y1968D02*
X1819Y1773D01*
D02*
X342Y1202D02*
X199Y1147D01*
D02*
X455Y1691D02*
X342Y1533D01*
D02*
X447Y1116D02*
X194Y879D01*
D02*
X524Y1591D02*
X455Y1500D01*
D02*
X2024Y1684D02*
X1942Y1602D01*
D02*
X2019Y1968D02*
X2024Y1684D01*
D02*
X1868Y1653D02*
X493Y1637D01*
D02*
X397Y1147D02*
X196Y1014D01*
D02*
X493Y1637D02*
X397Y1511D01*
D02*
X1926Y1711D02*
X1868Y1653D01*
D02*
X1920Y1968D02*
X1926Y1711D01*
D02*
X1379Y1804D02*
X614Y1797D01*
D02*
X568Y1548D02*
X506Y1450D01*
D02*
X506Y1450D02*
X503Y1094D01*
D02*
X503Y1094D02*
X388Y921D01*
D02*
X2175Y1562D02*
X568Y1548D01*
D02*
X2228Y1613D02*
X2175Y1562D01*
D02*
X397Y1511D02*
X397Y1147D01*
D02*
X455Y1500D02*
X447Y1116D01*
D02*
X348Y1793D02*
X289Y1770D01*
D02*
X342Y1533D02*
X342Y1202D01*
D02*
X1597Y1748D02*
X433Y1742D01*
D02*
X1942Y1602D02*
X524Y1591D01*
D02*
X744Y1504D02*
X703Y1418D01*
D02*
X2251Y1515D02*
X744Y1504D01*
D02*
X2485Y1282D02*
X2422Y1350D01*
D02*
X2422Y1350D02*
X2419Y1968D01*
D02*
X2412Y496D02*
X1790Y496D01*
G36*
X52Y2049D02*
X52Y1929D01*
X280Y1929D01*
X280Y1927D01*
X286Y1927D01*
X286Y1925D01*
X292Y1925D01*
X292Y1923D01*
X296Y1923D01*
X296Y1921D01*
X300Y1921D01*
X300Y1919D01*
X302Y1919D01*
X302Y1917D01*
X306Y1917D01*
X306Y1915D01*
X308Y1915D01*
X308Y1913D01*
X310Y1913D01*
X310Y1911D01*
X312Y1911D01*
X312Y1909D01*
X314Y1909D01*
X314Y1907D01*
X316Y1907D01*
X316Y1905D01*
X436Y1905D01*
X436Y1907D01*
X598Y1907D01*
X598Y1909D01*
X712Y1909D01*
X712Y1929D01*
X708Y1929D01*
X708Y1931D01*
X706Y1931D01*
X706Y1933D01*
X702Y1933D01*
X702Y1935D01*
X700Y1935D01*
X700Y1937D01*
X698Y1937D01*
X698Y1939D01*
X694Y1939D01*
X694Y1941D01*
X692Y1941D01*
X692Y1943D01*
X690Y1943D01*
X690Y1945D01*
X688Y1945D01*
X688Y1949D01*
X686Y1949D01*
X686Y1951D01*
X684Y1951D01*
X684Y1953D01*
X682Y1953D01*
X682Y1957D01*
X680Y1957D01*
X680Y1961D01*
X678Y1961D01*
X678Y1965D01*
X676Y1965D01*
X676Y1969D01*
X674Y1969D01*
X674Y1977D01*
X672Y1977D01*
X672Y2007D01*
X674Y2007D01*
X674Y2015D01*
X676Y2015D01*
X676Y2019D01*
X678Y2019D01*
X678Y2023D01*
X680Y2023D01*
X680Y2027D01*
X682Y2027D01*
X682Y2049D01*
X52Y2049D01*
G37*
D02*
G36*
X52Y1929D02*
X52Y789D01*
X160Y789D01*
X160Y791D01*
X152Y791D01*
X152Y793D01*
X146Y793D01*
X146Y795D01*
X142Y795D01*
X142Y797D01*
X138Y797D01*
X138Y799D01*
X136Y799D01*
X136Y801D01*
X132Y801D01*
X132Y803D01*
X130Y803D01*
X130Y805D01*
X128Y805D01*
X128Y807D01*
X126Y807D01*
X126Y809D01*
X124Y809D01*
X124Y811D01*
X122Y811D01*
X122Y813D01*
X120Y813D01*
X120Y815D01*
X118Y815D01*
X118Y817D01*
X116Y817D01*
X116Y819D01*
X114Y819D01*
X114Y823D01*
X112Y823D01*
X112Y827D01*
X110Y827D01*
X110Y829D01*
X108Y829D01*
X108Y835D01*
X106Y835D01*
X106Y839D01*
X104Y839D01*
X104Y849D01*
X102Y849D01*
X102Y875D01*
X104Y875D01*
X104Y883D01*
X106Y883D01*
X106Y889D01*
X108Y889D01*
X108Y893D01*
X110Y893D01*
X110Y897D01*
X112Y897D01*
X112Y899D01*
X114Y899D01*
X114Y903D01*
X116Y903D01*
X116Y905D01*
X118Y905D01*
X118Y907D01*
X120Y907D01*
X120Y909D01*
X122Y909D01*
X122Y911D01*
X124Y911D01*
X124Y913D01*
X126Y913D01*
X126Y915D01*
X128Y915D01*
X128Y917D01*
X130Y917D01*
X130Y919D01*
X132Y919D01*
X132Y941D01*
X130Y941D01*
X130Y943D01*
X128Y943D01*
X128Y945D01*
X126Y945D01*
X126Y947D01*
X124Y947D01*
X124Y949D01*
X122Y949D01*
X122Y951D01*
X120Y951D01*
X120Y953D01*
X118Y953D01*
X118Y955D01*
X116Y955D01*
X116Y957D01*
X114Y957D01*
X114Y961D01*
X112Y961D01*
X112Y963D01*
X110Y963D01*
X110Y967D01*
X108Y967D01*
X108Y971D01*
X106Y971D01*
X106Y977D01*
X104Y977D01*
X104Y987D01*
X102Y987D01*
X102Y1013D01*
X104Y1013D01*
X104Y1021D01*
X106Y1021D01*
X106Y1027D01*
X108Y1027D01*
X108Y1031D01*
X110Y1031D01*
X110Y1035D01*
X112Y1035D01*
X112Y1037D01*
X114Y1037D01*
X114Y1041D01*
X116Y1041D01*
X116Y1043D01*
X118Y1043D01*
X118Y1045D01*
X120Y1045D01*
X120Y1065D01*
X102Y1065D01*
X102Y1209D01*
X236Y1209D01*
X236Y1211D01*
X240Y1211D01*
X240Y1213D01*
X246Y1213D01*
X246Y1215D01*
X250Y1215D01*
X250Y1217D01*
X256Y1217D01*
X256Y1219D01*
X262Y1219D01*
X262Y1221D01*
X266Y1221D01*
X266Y1223D01*
X272Y1223D01*
X272Y1225D01*
X276Y1225D01*
X276Y1227D01*
X282Y1227D01*
X282Y1229D01*
X286Y1229D01*
X286Y1231D01*
X292Y1231D01*
X292Y1233D01*
X298Y1233D01*
X298Y1491D01*
X248Y1491D01*
X248Y1493D01*
X240Y1493D01*
X240Y1495D01*
X236Y1495D01*
X236Y1497D01*
X232Y1497D01*
X232Y1499D01*
X228Y1499D01*
X228Y1501D01*
X226Y1501D01*
X226Y1503D01*
X222Y1503D01*
X222Y1505D01*
X220Y1505D01*
X220Y1507D01*
X218Y1507D01*
X218Y1509D01*
X216Y1509D01*
X216Y1511D01*
X214Y1511D01*
X214Y1513D01*
X212Y1513D01*
X212Y1515D01*
X210Y1515D01*
X210Y1517D01*
X208Y1517D01*
X208Y1521D01*
X206Y1521D01*
X206Y1523D01*
X204Y1523D01*
X204Y1527D01*
X202Y1527D01*
X202Y1531D01*
X200Y1531D01*
X200Y1535D01*
X198Y1535D01*
X198Y1541D01*
X196Y1541D01*
X196Y1579D01*
X198Y1579D01*
X198Y1585D01*
X200Y1585D01*
X200Y1589D01*
X202Y1589D01*
X202Y1593D01*
X204Y1593D01*
X204Y1597D01*
X206Y1597D01*
X206Y1599D01*
X208Y1599D01*
X208Y1621D01*
X206Y1621D01*
X206Y1623D01*
X204Y1623D01*
X204Y1627D01*
X202Y1627D01*
X202Y1631D01*
X200Y1631D01*
X200Y1635D01*
X198Y1635D01*
X198Y1641D01*
X196Y1641D01*
X196Y1679D01*
X198Y1679D01*
X198Y1685D01*
X200Y1685D01*
X200Y1689D01*
X202Y1689D01*
X202Y1693D01*
X204Y1693D01*
X204Y1697D01*
X206Y1697D01*
X206Y1699D01*
X208Y1699D01*
X208Y1721D01*
X206Y1721D01*
X206Y1723D01*
X204Y1723D01*
X204Y1727D01*
X202Y1727D01*
X202Y1731D01*
X200Y1731D01*
X200Y1735D01*
X198Y1735D01*
X198Y1741D01*
X196Y1741D01*
X196Y1779D01*
X198Y1779D01*
X198Y1785D01*
X200Y1785D01*
X200Y1789D01*
X202Y1789D01*
X202Y1793D01*
X204Y1793D01*
X204Y1797D01*
X206Y1797D01*
X206Y1799D01*
X208Y1799D01*
X208Y1821D01*
X206Y1821D01*
X206Y1823D01*
X204Y1823D01*
X204Y1827D01*
X202Y1827D01*
X202Y1831D01*
X200Y1831D01*
X200Y1835D01*
X198Y1835D01*
X198Y1841D01*
X196Y1841D01*
X196Y1879D01*
X198Y1879D01*
X198Y1885D01*
X200Y1885D01*
X200Y1889D01*
X202Y1889D01*
X202Y1893D01*
X204Y1893D01*
X204Y1897D01*
X206Y1897D01*
X206Y1899D01*
X208Y1899D01*
X208Y1901D01*
X210Y1901D01*
X210Y1905D01*
X212Y1905D01*
X212Y1907D01*
X214Y1907D01*
X214Y1909D01*
X216Y1909D01*
X216Y1911D01*
X218Y1911D01*
X218Y1913D01*
X220Y1913D01*
X220Y1915D01*
X224Y1915D01*
X224Y1917D01*
X226Y1917D01*
X226Y1919D01*
X230Y1919D01*
X230Y1921D01*
X232Y1921D01*
X232Y1923D01*
X236Y1923D01*
X236Y1925D01*
X242Y1925D01*
X242Y1927D01*
X250Y1927D01*
X250Y1929D01*
X52Y1929D01*
G37*
D02*
G36*
X1348Y1465D02*
X1348Y1463D01*
X1154Y1463D01*
X1154Y1281D01*
X1364Y1281D01*
X1364Y1283D01*
X1366Y1283D01*
X1366Y1287D01*
X1368Y1287D01*
X1368Y1289D01*
X1370Y1289D01*
X1370Y1293D01*
X1372Y1293D01*
X1372Y1297D01*
X1374Y1297D01*
X1374Y1301D01*
X1376Y1301D01*
X1376Y1303D01*
X1378Y1303D01*
X1378Y1307D01*
X1380Y1307D01*
X1380Y1311D01*
X1382Y1311D01*
X1382Y1315D01*
X1384Y1315D01*
X1384Y1317D01*
X1386Y1317D01*
X1386Y1321D01*
X1388Y1321D01*
X1388Y1325D01*
X1390Y1325D01*
X1390Y1329D01*
X1392Y1329D01*
X1392Y1331D01*
X1394Y1331D01*
X1394Y1335D01*
X1396Y1335D01*
X1396Y1339D01*
X1398Y1339D01*
X1398Y1343D01*
X1400Y1343D01*
X1400Y1347D01*
X1402Y1347D01*
X1402Y1349D01*
X1404Y1349D01*
X1404Y1353D01*
X1406Y1353D01*
X1406Y1357D01*
X1408Y1357D01*
X1408Y1361D01*
X1410Y1361D01*
X1410Y1363D01*
X1412Y1363D01*
X1412Y1367D01*
X1414Y1367D01*
X1414Y1369D01*
X1416Y1369D01*
X1416Y1371D01*
X1418Y1371D01*
X1418Y1373D01*
X1420Y1373D01*
X1420Y1375D01*
X1422Y1375D01*
X1422Y1377D01*
X1426Y1377D01*
X1426Y1379D01*
X1430Y1379D01*
X1430Y1381D01*
X1432Y1381D01*
X1432Y1401D01*
X1430Y1401D01*
X1430Y1403D01*
X1428Y1403D01*
X1428Y1405D01*
X1426Y1405D01*
X1426Y1409D01*
X1424Y1409D01*
X1424Y1411D01*
X1422Y1411D01*
X1422Y1415D01*
X1420Y1415D01*
X1420Y1417D01*
X1418Y1417D01*
X1418Y1423D01*
X1416Y1423D01*
X1416Y1429D01*
X1414Y1429D01*
X1414Y1465D01*
X1348Y1465D01*
G37*
D02*
G36*
X806Y1461D02*
X806Y1459D01*
X774Y1459D01*
X774Y1457D01*
X772Y1457D01*
X772Y1453D01*
X770Y1453D01*
X770Y1449D01*
X768Y1449D01*
X768Y1445D01*
X766Y1445D01*
X766Y1439D01*
X764Y1439D01*
X764Y1435D01*
X762Y1435D01*
X762Y1325D01*
X1028Y1325D01*
X1028Y1461D01*
X806Y1461D01*
G37*
D02*
G36*
X548Y1327D02*
X548Y1325D01*
X624Y1325D01*
X624Y1327D01*
X548Y1327D01*
G37*
D02*
G36*
X548Y1325D02*
X548Y1323D01*
X1028Y1323D01*
X1028Y1325D01*
X548Y1325D01*
G37*
D02*
G36*
X548Y1325D02*
X548Y1323D01*
X1028Y1323D01*
X1028Y1325D01*
X548Y1325D01*
G37*
D02*
G36*
X548Y1323D02*
X548Y1281D01*
X1028Y1281D01*
X1028Y1323D01*
X548Y1323D01*
G37*
D02*
G36*
X548Y1281D02*
X548Y1279D01*
X1364Y1279D01*
X1364Y1281D01*
X548Y1281D01*
G37*
D02*
G36*
X548Y1281D02*
X548Y1279D01*
X1364Y1279D01*
X1364Y1281D01*
X548Y1281D01*
G37*
D02*
G36*
X548Y1279D02*
X548Y1255D01*
X1106Y1255D01*
X1106Y1253D01*
X1114Y1253D01*
X1114Y1251D01*
X1118Y1251D01*
X1118Y1249D01*
X1122Y1249D01*
X1122Y1247D01*
X1126Y1247D01*
X1126Y1245D01*
X1128Y1245D01*
X1128Y1243D01*
X1132Y1243D01*
X1132Y1241D01*
X1134Y1241D01*
X1134Y1239D01*
X1136Y1239D01*
X1136Y1237D01*
X1138Y1237D01*
X1138Y1235D01*
X1140Y1235D01*
X1140Y1233D01*
X1142Y1233D01*
X1142Y1231D01*
X1144Y1231D01*
X1144Y1229D01*
X1146Y1229D01*
X1146Y1227D01*
X1148Y1227D01*
X1148Y1225D01*
X1150Y1225D01*
X1150Y1221D01*
X1152Y1221D01*
X1152Y1217D01*
X1154Y1217D01*
X1154Y1213D01*
X1156Y1213D01*
X1156Y1209D01*
X1158Y1209D01*
X1158Y1203D01*
X1160Y1203D01*
X1160Y1169D01*
X1158Y1169D01*
X1158Y1161D01*
X1156Y1161D01*
X1156Y1157D01*
X1154Y1157D01*
X1154Y1153D01*
X1152Y1153D01*
X1152Y1149D01*
X1150Y1149D01*
X1150Y1147D01*
X1148Y1147D01*
X1148Y1143D01*
X1146Y1143D01*
X1146Y1141D01*
X1144Y1141D01*
X1144Y1139D01*
X1142Y1139D01*
X1142Y1137D01*
X1140Y1137D01*
X1140Y1135D01*
X1138Y1135D01*
X1138Y1133D01*
X1136Y1133D01*
X1136Y1131D01*
X1134Y1131D01*
X1134Y1129D01*
X1130Y1129D01*
X1130Y1127D01*
X1128Y1127D01*
X1128Y1125D01*
X1124Y1125D01*
X1124Y1123D01*
X1122Y1123D01*
X1122Y1121D01*
X1116Y1121D01*
X1116Y1119D01*
X1112Y1119D01*
X1112Y1117D01*
X1102Y1117D01*
X1102Y1115D01*
X1360Y1115D01*
X1360Y1231D01*
X1358Y1231D01*
X1358Y1267D01*
X1360Y1267D01*
X1360Y1275D01*
X1362Y1275D01*
X1362Y1279D01*
X548Y1279D01*
G37*
D02*
G36*
X548Y1255D02*
X548Y1119D01*
X546Y1119D01*
X546Y1115D01*
X1080Y1115D01*
X1080Y1117D01*
X1070Y1117D01*
X1070Y1119D01*
X1064Y1119D01*
X1064Y1121D01*
X1060Y1121D01*
X1060Y1123D01*
X1056Y1123D01*
X1056Y1125D01*
X1054Y1125D01*
X1054Y1127D01*
X1050Y1127D01*
X1050Y1129D01*
X1048Y1129D01*
X1048Y1131D01*
X1046Y1131D01*
X1046Y1133D01*
X1044Y1133D01*
X1044Y1135D01*
X1042Y1135D01*
X1042Y1137D01*
X1040Y1137D01*
X1040Y1139D01*
X1038Y1139D01*
X1038Y1141D01*
X1036Y1141D01*
X1036Y1143D01*
X1034Y1143D01*
X1034Y1145D01*
X1032Y1145D01*
X1032Y1149D01*
X1030Y1149D01*
X1030Y1151D01*
X1028Y1151D01*
X1028Y1155D01*
X1026Y1155D01*
X1026Y1161D01*
X1024Y1161D01*
X1024Y1165D01*
X1022Y1165D01*
X1022Y1205D01*
X1024Y1205D01*
X1024Y1211D01*
X1026Y1211D01*
X1026Y1215D01*
X1028Y1215D01*
X1028Y1219D01*
X1030Y1219D01*
X1030Y1221D01*
X1032Y1221D01*
X1032Y1225D01*
X1034Y1225D01*
X1034Y1227D01*
X1036Y1227D01*
X1036Y1229D01*
X1038Y1229D01*
X1038Y1233D01*
X1040Y1233D01*
X1040Y1235D01*
X1042Y1235D01*
X1042Y1237D01*
X1044Y1237D01*
X1044Y1239D01*
X1048Y1239D01*
X1048Y1241D01*
X1050Y1241D01*
X1050Y1243D01*
X1052Y1243D01*
X1052Y1245D01*
X1056Y1245D01*
X1056Y1247D01*
X1060Y1247D01*
X1060Y1249D01*
X1064Y1249D01*
X1064Y1251D01*
X1068Y1251D01*
X1068Y1253D01*
X1076Y1253D01*
X1076Y1255D01*
X548Y1255D01*
G37*
D02*
G36*
X546Y1115D02*
X546Y1113D01*
X1360Y1113D01*
X1360Y1115D01*
X546Y1115D01*
G37*
D02*
G36*
X546Y1115D02*
X546Y1113D01*
X1360Y1113D01*
X1360Y1115D01*
X546Y1115D01*
G37*
D02*
G36*
X546Y1113D02*
X546Y1075D01*
X544Y1075D01*
X544Y1071D01*
X542Y1071D01*
X542Y1067D01*
X540Y1067D01*
X540Y1065D01*
X710Y1065D01*
X710Y1063D01*
X716Y1063D01*
X716Y1061D01*
X720Y1061D01*
X720Y1059D01*
X724Y1059D01*
X724Y1057D01*
X728Y1057D01*
X728Y1055D01*
X732Y1055D01*
X732Y1053D01*
X734Y1053D01*
X734Y1051D01*
X736Y1051D01*
X736Y1049D01*
X738Y1049D01*
X738Y1047D01*
X742Y1047D01*
X742Y1045D01*
X744Y1045D01*
X744Y1041D01*
X746Y1041D01*
X746Y1039D01*
X748Y1039D01*
X748Y1037D01*
X750Y1037D01*
X750Y1035D01*
X752Y1035D01*
X752Y1031D01*
X754Y1031D01*
X754Y1029D01*
X756Y1029D01*
X756Y1025D01*
X758Y1025D01*
X758Y1019D01*
X760Y1019D01*
X760Y1013D01*
X762Y1013D01*
X762Y979D01*
X760Y979D01*
X760Y971D01*
X758Y971D01*
X758Y967D01*
X756Y967D01*
X756Y963D01*
X754Y963D01*
X754Y959D01*
X752Y959D01*
X752Y957D01*
X750Y957D01*
X750Y953D01*
X748Y953D01*
X748Y951D01*
X746Y951D01*
X746Y949D01*
X744Y949D01*
X744Y947D01*
X742Y947D01*
X742Y945D01*
X740Y945D01*
X740Y943D01*
X738Y943D01*
X738Y941D01*
X736Y941D01*
X736Y939D01*
X732Y939D01*
X732Y937D01*
X730Y937D01*
X730Y935D01*
X726Y935D01*
X726Y933D01*
X722Y933D01*
X722Y931D01*
X718Y931D01*
X718Y929D01*
X712Y929D01*
X712Y927D01*
X706Y927D01*
X706Y925D01*
X704Y925D01*
X704Y921D01*
X702Y921D01*
X702Y917D01*
X700Y917D01*
X700Y915D01*
X698Y915D01*
X698Y911D01*
X696Y911D01*
X696Y907D01*
X694Y907D01*
X694Y905D01*
X692Y905D01*
X692Y901D01*
X690Y901D01*
X690Y897D01*
X688Y897D01*
X688Y895D01*
X686Y895D01*
X686Y891D01*
X684Y891D01*
X684Y887D01*
X682Y887D01*
X682Y885D01*
X680Y885D01*
X680Y881D01*
X678Y881D01*
X678Y877D01*
X1108Y877D01*
X1108Y875D01*
X1114Y875D01*
X1114Y873D01*
X1118Y873D01*
X1118Y871D01*
X1122Y871D01*
X1122Y869D01*
X1124Y869D01*
X1124Y867D01*
X1128Y867D01*
X1128Y865D01*
X1130Y865D01*
X1130Y863D01*
X1132Y863D01*
X1132Y861D01*
X1136Y861D01*
X1136Y859D01*
X1138Y859D01*
X1138Y857D01*
X1140Y857D01*
X1140Y853D01*
X1142Y853D01*
X1142Y851D01*
X1144Y851D01*
X1144Y849D01*
X1146Y849D01*
X1146Y847D01*
X1148Y847D01*
X1148Y843D01*
X1150Y843D01*
X1150Y839D01*
X1152Y839D01*
X1152Y835D01*
X1154Y835D01*
X1154Y829D01*
X1156Y829D01*
X1156Y821D01*
X1158Y821D01*
X1158Y795D01*
X1156Y795D01*
X1156Y787D01*
X1154Y787D01*
X1154Y781D01*
X1152Y781D01*
X1152Y777D01*
X1150Y777D01*
X1150Y773D01*
X1148Y773D01*
X1148Y771D01*
X1146Y771D01*
X1146Y767D01*
X1144Y767D01*
X1144Y765D01*
X1142Y765D01*
X1142Y763D01*
X1140Y763D01*
X1140Y761D01*
X1138Y761D01*
X1138Y759D01*
X1136Y759D01*
X1136Y757D01*
X1134Y757D01*
X1134Y755D01*
X1132Y755D01*
X1132Y753D01*
X1130Y753D01*
X1130Y733D01*
X1154Y733D01*
X1154Y607D01*
X1152Y607D01*
X1152Y583D01*
X1154Y583D01*
X1154Y561D01*
X1152Y561D01*
X1152Y551D01*
X1150Y551D01*
X1150Y547D01*
X1148Y547D01*
X1148Y543D01*
X1146Y543D01*
X1146Y539D01*
X1144Y539D01*
X1144Y535D01*
X1142Y535D01*
X1142Y533D01*
X1140Y533D01*
X1140Y531D01*
X1138Y531D01*
X1138Y529D01*
X1136Y529D01*
X1136Y527D01*
X1134Y527D01*
X1134Y525D01*
X1132Y525D01*
X1132Y523D01*
X1130Y523D01*
X1130Y521D01*
X1128Y521D01*
X1128Y519D01*
X1124Y519D01*
X1124Y517D01*
X1122Y517D01*
X1122Y515D01*
X1118Y515D01*
X1118Y513D01*
X1114Y513D01*
X1114Y511D01*
X1108Y511D01*
X1108Y509D01*
X1370Y509D01*
X1370Y517D01*
X1368Y517D01*
X1368Y659D01*
X1366Y659D01*
X1366Y803D01*
X1364Y803D01*
X1364Y945D01*
X1362Y945D01*
X1362Y1089D01*
X1360Y1089D01*
X1360Y1113D01*
X546Y1113D01*
G37*
D02*
G36*
X540Y1065D02*
X540Y1063D01*
X538Y1063D01*
X538Y1061D01*
X536Y1061D01*
X536Y1057D01*
X534Y1057D01*
X534Y1055D01*
X532Y1055D01*
X532Y1051D01*
X530Y1051D01*
X530Y1049D01*
X528Y1049D01*
X528Y1045D01*
X526Y1045D01*
X526Y1043D01*
X524Y1043D01*
X524Y1039D01*
X522Y1039D01*
X522Y1037D01*
X520Y1037D01*
X520Y1033D01*
X518Y1033D01*
X518Y1031D01*
X516Y1031D01*
X516Y1027D01*
X514Y1027D01*
X514Y1025D01*
X512Y1025D01*
X512Y1021D01*
X510Y1021D01*
X510Y1019D01*
X508Y1019D01*
X508Y1015D01*
X506Y1015D01*
X506Y1013D01*
X504Y1013D01*
X504Y1009D01*
X502Y1009D01*
X502Y1007D01*
X500Y1007D01*
X500Y1003D01*
X498Y1003D01*
X498Y1001D01*
X496Y1001D01*
X496Y997D01*
X494Y997D01*
X494Y995D01*
X492Y995D01*
X492Y991D01*
X490Y991D01*
X490Y989D01*
X488Y989D01*
X488Y985D01*
X486Y985D01*
X486Y965D01*
X536Y965D01*
X536Y947D01*
X610Y947D01*
X610Y949D01*
X612Y949D01*
X612Y953D01*
X614Y953D01*
X614Y955D01*
X616Y955D01*
X616Y959D01*
X618Y959D01*
X618Y963D01*
X620Y963D01*
X620Y965D01*
X622Y965D01*
X622Y969D01*
X624Y969D01*
X624Y1015D01*
X626Y1015D01*
X626Y1021D01*
X628Y1021D01*
X628Y1025D01*
X630Y1025D01*
X630Y1029D01*
X632Y1029D01*
X632Y1033D01*
X634Y1033D01*
X634Y1035D01*
X636Y1035D01*
X636Y1037D01*
X638Y1037D01*
X638Y1041D01*
X640Y1041D01*
X640Y1043D01*
X642Y1043D01*
X642Y1045D01*
X644Y1045D01*
X644Y1047D01*
X646Y1047D01*
X646Y1049D01*
X650Y1049D01*
X650Y1051D01*
X652Y1051D01*
X652Y1053D01*
X654Y1053D01*
X654Y1055D01*
X658Y1055D01*
X658Y1057D01*
X660Y1057D01*
X660Y1059D01*
X664Y1059D01*
X664Y1061D01*
X670Y1061D01*
X670Y1063D01*
X676Y1063D01*
X676Y1065D01*
X540Y1065D01*
G37*
D02*
G36*
X292Y907D02*
X292Y905D01*
X290Y905D01*
X290Y903D01*
X286Y903D01*
X286Y901D01*
X284Y901D01*
X284Y899D01*
X282Y899D01*
X282Y897D01*
X280Y897D01*
X280Y895D01*
X278Y895D01*
X278Y893D01*
X276Y893D01*
X276Y891D01*
X274Y891D01*
X274Y889D01*
X272Y889D01*
X272Y887D01*
X270Y887D01*
X270Y885D01*
X268Y885D01*
X268Y883D01*
X266Y883D01*
X266Y881D01*
X264Y881D01*
X264Y879D01*
X262Y879D01*
X262Y877D01*
X260Y877D01*
X260Y875D01*
X256Y875D01*
X256Y873D01*
X254Y873D01*
X254Y871D01*
X252Y871D01*
X252Y869D01*
X250Y869D01*
X250Y867D01*
X248Y867D01*
X248Y865D01*
X246Y865D01*
X246Y843D01*
X244Y843D01*
X244Y837D01*
X366Y837D01*
X366Y839D01*
X356Y839D01*
X356Y841D01*
X350Y841D01*
X350Y843D01*
X346Y843D01*
X346Y845D01*
X342Y845D01*
X342Y847D01*
X340Y847D01*
X340Y849D01*
X336Y849D01*
X336Y851D01*
X334Y851D01*
X334Y853D01*
X332Y853D01*
X332Y855D01*
X330Y855D01*
X330Y857D01*
X328Y857D01*
X328Y859D01*
X326Y859D01*
X326Y861D01*
X324Y861D01*
X324Y863D01*
X322Y863D01*
X322Y867D01*
X320Y867D01*
X320Y869D01*
X318Y869D01*
X318Y873D01*
X316Y873D01*
X316Y877D01*
X314Y877D01*
X314Y883D01*
X312Y883D01*
X312Y907D01*
X292Y907D01*
G37*
D02*
G36*
X676Y877D02*
X676Y875D01*
X674Y875D01*
X674Y871D01*
X672Y871D01*
X672Y869D01*
X670Y869D01*
X670Y867D01*
X666Y867D01*
X666Y865D01*
X664Y865D01*
X664Y863D01*
X660Y863D01*
X660Y861D01*
X654Y861D01*
X654Y859D01*
X548Y859D01*
X548Y857D01*
X536Y857D01*
X536Y837D01*
X1024Y837D01*
X1024Y839D01*
X1026Y839D01*
X1026Y843D01*
X1028Y843D01*
X1028Y847D01*
X1030Y847D01*
X1030Y849D01*
X1032Y849D01*
X1032Y851D01*
X1034Y851D01*
X1034Y855D01*
X1036Y855D01*
X1036Y857D01*
X1038Y857D01*
X1038Y859D01*
X1040Y859D01*
X1040Y861D01*
X1044Y861D01*
X1044Y863D01*
X1046Y863D01*
X1046Y865D01*
X1048Y865D01*
X1048Y867D01*
X1050Y867D01*
X1050Y869D01*
X1054Y869D01*
X1054Y871D01*
X1058Y871D01*
X1058Y873D01*
X1062Y873D01*
X1062Y875D01*
X1068Y875D01*
X1068Y877D01*
X676Y877D01*
G37*
D02*
G36*
X384Y839D02*
X384Y837D01*
X410Y837D01*
X410Y839D01*
X384Y839D01*
G37*
D02*
G36*
X242Y837D02*
X242Y835D01*
X1024Y835D01*
X1024Y837D01*
X242Y837D01*
G37*
D02*
G36*
X242Y837D02*
X242Y835D01*
X1024Y835D01*
X1024Y837D01*
X242Y837D01*
G37*
D02*
G36*
X242Y837D02*
X242Y835D01*
X1024Y835D01*
X1024Y837D01*
X242Y837D01*
G37*
D02*
G36*
X242Y835D02*
X242Y831D01*
X240Y831D01*
X240Y827D01*
X238Y827D01*
X238Y825D01*
X236Y825D01*
X236Y821D01*
X234Y821D01*
X234Y819D01*
X232Y819D01*
X232Y815D01*
X230Y815D01*
X230Y813D01*
X228Y813D01*
X228Y811D01*
X226Y811D01*
X226Y809D01*
X224Y809D01*
X224Y807D01*
X222Y807D01*
X222Y805D01*
X218Y805D01*
X218Y803D01*
X216Y803D01*
X216Y801D01*
X214Y801D01*
X214Y799D01*
X210Y799D01*
X210Y797D01*
X206Y797D01*
X206Y795D01*
X202Y795D01*
X202Y793D01*
X198Y793D01*
X198Y791D01*
X190Y791D01*
X190Y789D01*
X1020Y789D01*
X1020Y795D01*
X1018Y795D01*
X1018Y823D01*
X1020Y823D01*
X1020Y831D01*
X1022Y831D01*
X1022Y835D01*
X242Y835D01*
G37*
D02*
G36*
X52Y789D02*
X52Y787D01*
X1020Y787D01*
X1020Y789D01*
X52Y789D01*
G37*
D02*
G36*
X52Y789D02*
X52Y787D01*
X1020Y787D01*
X1020Y789D01*
X52Y789D01*
G37*
D02*
G36*
X52Y787D02*
X52Y629D01*
X860Y629D01*
X860Y627D01*
X868Y627D01*
X868Y625D01*
X872Y625D01*
X872Y623D01*
X876Y623D01*
X876Y621D01*
X880Y621D01*
X880Y619D01*
X884Y619D01*
X884Y617D01*
X886Y617D01*
X886Y615D01*
X888Y615D01*
X888Y613D01*
X892Y613D01*
X892Y611D01*
X894Y611D01*
X894Y609D01*
X896Y609D01*
X896Y607D01*
X898Y607D01*
X898Y603D01*
X900Y603D01*
X900Y601D01*
X902Y601D01*
X902Y599D01*
X904Y599D01*
X904Y597D01*
X906Y597D01*
X906Y593D01*
X908Y593D01*
X908Y589D01*
X910Y589D01*
X910Y585D01*
X912Y585D01*
X912Y579D01*
X914Y579D01*
X914Y571D01*
X916Y571D01*
X916Y545D01*
X914Y545D01*
X914Y537D01*
X912Y537D01*
X912Y531D01*
X910Y531D01*
X910Y527D01*
X908Y527D01*
X908Y523D01*
X906Y523D01*
X906Y519D01*
X904Y519D01*
X904Y509D01*
X1072Y509D01*
X1072Y511D01*
X1066Y511D01*
X1066Y513D01*
X1062Y513D01*
X1062Y515D01*
X1058Y515D01*
X1058Y517D01*
X1054Y517D01*
X1054Y519D01*
X1052Y519D01*
X1052Y521D01*
X1050Y521D01*
X1050Y523D01*
X1048Y523D01*
X1048Y525D01*
X1046Y525D01*
X1046Y527D01*
X1044Y527D01*
X1044Y529D01*
X1042Y529D01*
X1042Y531D01*
X1040Y531D01*
X1040Y533D01*
X1038Y533D01*
X1038Y535D01*
X1036Y535D01*
X1036Y539D01*
X1034Y539D01*
X1034Y541D01*
X1032Y541D01*
X1032Y545D01*
X1030Y545D01*
X1030Y551D01*
X1028Y551D01*
X1028Y557D01*
X1026Y557D01*
X1026Y585D01*
X1028Y585D01*
X1028Y607D01*
X1026Y607D01*
X1026Y733D01*
X1046Y733D01*
X1046Y753D01*
X1044Y753D01*
X1044Y755D01*
X1042Y755D01*
X1042Y757D01*
X1040Y757D01*
X1040Y759D01*
X1038Y759D01*
X1038Y761D01*
X1036Y761D01*
X1036Y763D01*
X1034Y763D01*
X1034Y765D01*
X1032Y765D01*
X1032Y767D01*
X1030Y767D01*
X1030Y771D01*
X1028Y771D01*
X1028Y773D01*
X1026Y773D01*
X1026Y777D01*
X1024Y777D01*
X1024Y781D01*
X1022Y781D01*
X1022Y787D01*
X52Y787D01*
G37*
D02*
G36*
X52Y629D02*
X52Y287D01*
X774Y287D01*
X774Y477D01*
X776Y477D01*
X776Y483D01*
X778Y483D01*
X778Y487D01*
X780Y487D01*
X780Y491D01*
X782Y491D01*
X782Y495D01*
X784Y495D01*
X784Y497D01*
X786Y497D01*
X786Y519D01*
X784Y519D01*
X784Y521D01*
X782Y521D01*
X782Y525D01*
X780Y525D01*
X780Y529D01*
X778Y529D01*
X778Y533D01*
X776Y533D01*
X776Y539D01*
X774Y539D01*
X774Y577D01*
X776Y577D01*
X776Y583D01*
X778Y583D01*
X778Y587D01*
X780Y587D01*
X780Y591D01*
X782Y591D01*
X782Y595D01*
X784Y595D01*
X784Y597D01*
X786Y597D01*
X786Y601D01*
X788Y601D01*
X788Y603D01*
X790Y603D01*
X790Y605D01*
X792Y605D01*
X792Y607D01*
X794Y607D01*
X794Y609D01*
X796Y609D01*
X796Y611D01*
X798Y611D01*
X798Y613D01*
X800Y613D01*
X800Y615D01*
X802Y615D01*
X802Y617D01*
X806Y617D01*
X806Y619D01*
X808Y619D01*
X808Y621D01*
X812Y621D01*
X812Y623D01*
X816Y623D01*
X816Y625D01*
X820Y625D01*
X820Y627D01*
X828Y627D01*
X828Y629D01*
X52Y629D01*
G37*
D02*
G36*
X904Y509D02*
X904Y507D01*
X1370Y507D01*
X1370Y509D01*
X904Y509D01*
G37*
D02*
G36*
X904Y509D02*
X904Y507D01*
X1370Y507D01*
X1370Y509D01*
X904Y509D01*
G37*
D02*
G36*
X904Y507D02*
X904Y497D01*
X906Y497D01*
X906Y493D01*
X908Y493D01*
X908Y489D01*
X910Y489D01*
X910Y485D01*
X912Y485D01*
X912Y479D01*
X914Y479D01*
X914Y471D01*
X916Y471D01*
X916Y287D01*
X1372Y287D01*
X1372Y375D01*
X1370Y375D01*
X1370Y507D01*
X904Y507D01*
G37*
D02*
G36*
X52Y287D02*
X52Y285D01*
X1372Y285D01*
X1372Y287D01*
X52Y287D01*
G37*
D02*
G36*
X52Y287D02*
X52Y285D01*
X1372Y285D01*
X1372Y287D01*
X52Y287D01*
G37*
D02*
G36*
X52Y285D02*
X52Y161D01*
X1338Y161D01*
X1338Y159D01*
X1344Y159D01*
X1344Y157D01*
X1350Y157D01*
X1350Y155D01*
X1352Y155D01*
X1352Y153D01*
X1374Y153D01*
X1374Y231D01*
X1372Y231D01*
X1372Y285D01*
X52Y285D01*
G37*
D02*
G36*
X52Y161D02*
X52Y51D01*
X1052Y51D01*
X1052Y73D01*
X1050Y73D01*
X1050Y111D01*
X1052Y111D01*
X1052Y117D01*
X1054Y117D01*
X1054Y121D01*
X1056Y121D01*
X1056Y125D01*
X1058Y125D01*
X1058Y129D01*
X1060Y129D01*
X1060Y131D01*
X1062Y131D01*
X1062Y135D01*
X1064Y135D01*
X1064Y137D01*
X1066Y137D01*
X1066Y139D01*
X1068Y139D01*
X1068Y141D01*
X1070Y141D01*
X1070Y143D01*
X1072Y143D01*
X1072Y145D01*
X1074Y145D01*
X1074Y147D01*
X1076Y147D01*
X1076Y149D01*
X1080Y149D01*
X1080Y151D01*
X1082Y151D01*
X1082Y153D01*
X1086Y153D01*
X1086Y155D01*
X1088Y155D01*
X1088Y157D01*
X1094Y157D01*
X1094Y159D01*
X1100Y159D01*
X1100Y161D01*
X52Y161D01*
G37*
D02*
G36*
X1138Y161D02*
X1138Y159D01*
X1144Y159D01*
X1144Y157D01*
X1150Y157D01*
X1150Y155D01*
X1152Y155D01*
X1152Y153D01*
X1156Y153D01*
X1156Y151D01*
X1158Y151D01*
X1158Y149D01*
X1180Y149D01*
X1180Y151D01*
X1182Y151D01*
X1182Y153D01*
X1186Y153D01*
X1186Y155D01*
X1188Y155D01*
X1188Y157D01*
X1194Y157D01*
X1194Y159D01*
X1200Y159D01*
X1200Y161D01*
X1138Y161D01*
G37*
D02*
G36*
X1238Y161D02*
X1238Y159D01*
X1244Y159D01*
X1244Y157D01*
X1250Y157D01*
X1250Y155D01*
X1252Y155D01*
X1252Y153D01*
X1256Y153D01*
X1256Y151D01*
X1258Y151D01*
X1258Y149D01*
X1280Y149D01*
X1280Y151D01*
X1282Y151D01*
X1282Y153D01*
X1286Y153D01*
X1286Y155D01*
X1290Y155D01*
X1290Y157D01*
X1294Y157D01*
X1294Y159D01*
X1300Y159D01*
X1300Y161D01*
X1238Y161D01*
G37*
D02*
G36*
X1708Y2049D02*
X1708Y2029D01*
X1710Y2029D01*
X1710Y2025D01*
X1712Y2025D01*
X1712Y2023D01*
X1714Y2023D01*
X1714Y2017D01*
X1716Y2017D01*
X1716Y2011D01*
X1718Y2011D01*
X1718Y1973D01*
X1716Y1973D01*
X1716Y1967D01*
X1714Y1967D01*
X1714Y1961D01*
X1712Y1961D01*
X1712Y1959D01*
X1710Y1959D01*
X1710Y1955D01*
X1708Y1955D01*
X1708Y1953D01*
X1706Y1953D01*
X1706Y1949D01*
X1704Y1949D01*
X1704Y1947D01*
X1702Y1947D01*
X1702Y1945D01*
X1700Y1945D01*
X1700Y1943D01*
X1698Y1943D01*
X1698Y1941D01*
X1696Y1941D01*
X1696Y1939D01*
X1694Y1939D01*
X1694Y1937D01*
X1692Y1937D01*
X1692Y1801D01*
X1690Y1801D01*
X1690Y1795D01*
X1688Y1795D01*
X1688Y1791D01*
X1686Y1791D01*
X1686Y1787D01*
X1684Y1787D01*
X1684Y1785D01*
X1682Y1785D01*
X1682Y1783D01*
X1680Y1783D01*
X1680Y1779D01*
X1678Y1779D01*
X1678Y1777D01*
X1676Y1777D01*
X1676Y1775D01*
X1674Y1775D01*
X1674Y1771D01*
X1672Y1771D01*
X1672Y1769D01*
X1670Y1769D01*
X1670Y1767D01*
X1668Y1767D01*
X1668Y1747D01*
X1740Y1747D01*
X1740Y1749D01*
X1742Y1749D01*
X1742Y1753D01*
X1744Y1753D01*
X1744Y1755D01*
X1746Y1755D01*
X1746Y1757D01*
X1748Y1757D01*
X1748Y1759D01*
X1750Y1759D01*
X1750Y1763D01*
X1752Y1763D01*
X1752Y1765D01*
X1754Y1765D01*
X1754Y1767D01*
X1756Y1767D01*
X1756Y1769D01*
X1758Y1769D01*
X1758Y1773D01*
X1760Y1773D01*
X1760Y1775D01*
X1762Y1775D01*
X1762Y1777D01*
X1764Y1777D01*
X1764Y1779D01*
X1766Y1779D01*
X1766Y1783D01*
X1768Y1783D01*
X1768Y1785D01*
X1770Y1785D01*
X1770Y1787D01*
X1772Y1787D01*
X1772Y1789D01*
X1774Y1789D01*
X1774Y1793D01*
X1776Y1793D01*
X1776Y1937D01*
X1774Y1937D01*
X1774Y1939D01*
X1772Y1939D01*
X1772Y1941D01*
X1770Y1941D01*
X1770Y1943D01*
X1768Y1943D01*
X1768Y1945D01*
X1766Y1945D01*
X1766Y1947D01*
X1764Y1947D01*
X1764Y1949D01*
X1762Y1949D01*
X1762Y1953D01*
X1760Y1953D01*
X1760Y1955D01*
X1758Y1955D01*
X1758Y1959D01*
X1756Y1959D01*
X1756Y1963D01*
X1754Y1963D01*
X1754Y1967D01*
X1752Y1967D01*
X1752Y1973D01*
X1750Y1973D01*
X1750Y2011D01*
X1752Y2011D01*
X1752Y2017D01*
X1754Y2017D01*
X1754Y2021D01*
X1756Y2021D01*
X1756Y2025D01*
X1758Y2025D01*
X1758Y2029D01*
X1760Y2029D01*
X1760Y2049D01*
X1708Y2049D01*
G37*
D02*
G36*
X1494Y1931D02*
X1494Y1923D01*
X1530Y1923D01*
X1530Y1925D01*
X1524Y1925D01*
X1524Y1927D01*
X1520Y1927D01*
X1520Y1929D01*
X1516Y1929D01*
X1516Y1931D01*
X1494Y1931D01*
G37*
D02*
G36*
X1582Y1931D02*
X1582Y1929D01*
X1578Y1929D01*
X1578Y1927D01*
X1574Y1927D01*
X1574Y1925D01*
X1568Y1925D01*
X1568Y1923D01*
X1604Y1923D01*
X1604Y1931D01*
X1582Y1931D01*
G37*
D02*
G36*
X1494Y1923D02*
X1494Y1921D01*
X1604Y1921D01*
X1604Y1923D01*
X1494Y1923D01*
G37*
D02*
G36*
X1494Y1923D02*
X1494Y1921D01*
X1604Y1921D01*
X1604Y1923D01*
X1494Y1923D01*
G37*
D02*
G36*
X1494Y1921D02*
X1494Y1847D01*
X1492Y1847D01*
X1492Y1841D01*
X1490Y1841D01*
X1490Y1837D01*
X1488Y1837D01*
X1488Y1835D01*
X1486Y1835D01*
X1486Y1831D01*
X1484Y1831D01*
X1484Y1829D01*
X1482Y1829D01*
X1482Y1827D01*
X1478Y1827D01*
X1478Y1825D01*
X1476Y1825D01*
X1476Y1823D01*
X1474Y1823D01*
X1474Y1821D01*
X1472Y1821D01*
X1472Y1819D01*
X1470Y1819D01*
X1470Y1817D01*
X1466Y1817D01*
X1466Y1815D01*
X1464Y1815D01*
X1464Y1813D01*
X1462Y1813D01*
X1462Y1811D01*
X1460Y1811D01*
X1460Y1791D01*
X1572Y1791D01*
X1572Y1793D01*
X1574Y1793D01*
X1574Y1797D01*
X1576Y1797D01*
X1576Y1799D01*
X1578Y1799D01*
X1578Y1803D01*
X1580Y1803D01*
X1580Y1805D01*
X1582Y1805D01*
X1582Y1807D01*
X1584Y1807D01*
X1584Y1811D01*
X1586Y1811D01*
X1586Y1813D01*
X1588Y1813D01*
X1588Y1815D01*
X1590Y1815D01*
X1590Y1819D01*
X1592Y1819D01*
X1592Y1821D01*
X1594Y1821D01*
X1594Y1823D01*
X1596Y1823D01*
X1596Y1827D01*
X1598Y1827D01*
X1598Y1829D01*
X1600Y1829D01*
X1600Y1831D01*
X1602Y1831D01*
X1602Y1835D01*
X1604Y1835D01*
X1604Y1921D01*
X1494Y1921D01*
G37*
D02*
G36*
X2156Y1933D02*
X2156Y1931D01*
X2152Y1931D01*
X2152Y1929D01*
X2150Y1929D01*
X2150Y1927D01*
X2144Y1927D01*
X2144Y1925D01*
X2138Y1925D01*
X2138Y1923D01*
X2176Y1923D01*
X2176Y1933D01*
X2156Y1933D01*
G37*
D02*
G36*
X2064Y1931D02*
X2064Y1923D01*
X2100Y1923D01*
X2100Y1925D01*
X2094Y1925D01*
X2094Y1927D01*
X2090Y1927D01*
X2090Y1929D01*
X2086Y1929D01*
X2086Y1931D01*
X2064Y1931D01*
G37*
D02*
G36*
X2064Y1923D02*
X2064Y1921D01*
X2176Y1921D01*
X2176Y1923D01*
X2064Y1923D01*
G37*
D02*
G36*
X2064Y1923D02*
X2064Y1921D01*
X2176Y1921D01*
X2176Y1923D01*
X2064Y1923D01*
G37*
D02*
G36*
X2064Y1921D02*
X2064Y1875D01*
X2066Y1875D01*
X2066Y1747D01*
X2068Y1747D01*
X2068Y1669D01*
X2066Y1669D01*
X2066Y1663D01*
X2064Y1663D01*
X2064Y1659D01*
X2062Y1659D01*
X2062Y1655D01*
X2060Y1655D01*
X2060Y1653D01*
X2058Y1653D01*
X2058Y1651D01*
X2056Y1651D01*
X2056Y1649D01*
X2054Y1649D01*
X2054Y1647D01*
X2052Y1647D01*
X2052Y1645D01*
X2050Y1645D01*
X2050Y1643D01*
X2048Y1643D01*
X2048Y1641D01*
X2046Y1641D01*
X2046Y1639D01*
X2044Y1639D01*
X2044Y1637D01*
X2042Y1637D01*
X2042Y1635D01*
X2040Y1635D01*
X2040Y1633D01*
X2038Y1633D01*
X2038Y1631D01*
X2036Y1631D01*
X2036Y1629D01*
X2034Y1629D01*
X2034Y1627D01*
X2032Y1627D01*
X2032Y1625D01*
X2030Y1625D01*
X2030Y1605D01*
X2154Y1605D01*
X2154Y1607D01*
X2156Y1607D01*
X2156Y1609D01*
X2158Y1609D01*
X2158Y1611D01*
X2160Y1611D01*
X2160Y1613D01*
X2162Y1613D01*
X2162Y1615D01*
X2164Y1615D01*
X2164Y1617D01*
X2166Y1617D01*
X2166Y1619D01*
X2168Y1619D01*
X2168Y1621D01*
X2170Y1621D01*
X2170Y1623D01*
X2172Y1623D01*
X2172Y1625D01*
X2174Y1625D01*
X2174Y1627D01*
X2176Y1627D01*
X2176Y1629D01*
X2178Y1629D01*
X2178Y1631D01*
X2180Y1631D01*
X2180Y1633D01*
X2182Y1633D01*
X2182Y1725D01*
X2180Y1725D01*
X2180Y1813D01*
X2178Y1813D01*
X2178Y1899D01*
X2176Y1899D01*
X2176Y1921D01*
X2064Y1921D01*
G37*
D02*
G36*
X1860Y1753D02*
X1860Y1747D01*
X1858Y1747D01*
X1858Y1745D01*
X1856Y1745D01*
X1856Y1743D01*
X1854Y1743D01*
X1854Y1739D01*
X1852Y1739D01*
X1852Y1737D01*
X1850Y1737D01*
X1850Y1735D01*
X1848Y1735D01*
X1848Y1733D01*
X1846Y1733D01*
X1846Y1729D01*
X1844Y1729D01*
X1844Y1727D01*
X1842Y1727D01*
X1842Y1725D01*
X1840Y1725D01*
X1840Y1723D01*
X1838Y1723D01*
X1838Y1719D01*
X1836Y1719D01*
X1836Y1717D01*
X1834Y1717D01*
X1834Y1703D01*
X1854Y1703D01*
X1854Y1705D01*
X1856Y1705D01*
X1856Y1707D01*
X1858Y1707D01*
X1858Y1709D01*
X1860Y1709D01*
X1860Y1711D01*
X1862Y1711D01*
X1862Y1713D01*
X1864Y1713D01*
X1864Y1715D01*
X1866Y1715D01*
X1866Y1717D01*
X1868Y1717D01*
X1868Y1719D01*
X1870Y1719D01*
X1870Y1721D01*
X1872Y1721D01*
X1872Y1723D01*
X1874Y1723D01*
X1874Y1725D01*
X1876Y1725D01*
X1876Y1727D01*
X1878Y1727D01*
X1878Y1729D01*
X1880Y1729D01*
X1880Y1753D01*
X1860Y1753D01*
G37*
D02*
G36*
X596Y1505D02*
X596Y1503D01*
X594Y1503D01*
X594Y1499D01*
X592Y1499D01*
X592Y1497D01*
X590Y1497D01*
X590Y1493D01*
X588Y1493D01*
X588Y1491D01*
X586Y1491D01*
X586Y1487D01*
X584Y1487D01*
X584Y1467D01*
X676Y1467D01*
X676Y1471D01*
X678Y1471D01*
X678Y1475D01*
X680Y1475D01*
X680Y1479D01*
X682Y1479D01*
X682Y1483D01*
X684Y1483D01*
X684Y1505D01*
X596Y1505D01*
G37*
D02*
G36*
X2464Y1931D02*
X2464Y1605D01*
X2466Y1605D01*
X2466Y1369D01*
X2468Y1369D01*
X2468Y1367D01*
X2470Y1367D01*
X2470Y1365D01*
X2472Y1365D01*
X2472Y1363D01*
X2474Y1363D01*
X2474Y1361D01*
X2476Y1361D01*
X2476Y1359D01*
X2478Y1359D01*
X2478Y1357D01*
X2480Y1357D01*
X2480Y1355D01*
X2482Y1355D01*
X2482Y1353D01*
X2484Y1353D01*
X2484Y1351D01*
X2486Y1351D01*
X2486Y1349D01*
X2488Y1349D01*
X2488Y1347D01*
X2490Y1347D01*
X2490Y1345D01*
X2492Y1345D01*
X2492Y1343D01*
X2494Y1343D01*
X2494Y1341D01*
X2496Y1341D01*
X2496Y1337D01*
X2498Y1337D01*
X2498Y1335D01*
X2500Y1335D01*
X2500Y1333D01*
X2572Y1333D01*
X2572Y1195D01*
X2674Y1195D01*
X2674Y1491D01*
X2672Y1491D01*
X2672Y1493D01*
X2670Y1493D01*
X2670Y1495D01*
X2666Y1495D01*
X2666Y1497D01*
X2664Y1497D01*
X2664Y1499D01*
X2662Y1499D01*
X2662Y1501D01*
X2660Y1501D01*
X2660Y1503D01*
X2658Y1503D01*
X2658Y1505D01*
X2654Y1505D01*
X2654Y1507D01*
X2652Y1507D01*
X2652Y1509D01*
X2650Y1509D01*
X2650Y1511D01*
X2648Y1511D01*
X2648Y1513D01*
X2646Y1513D01*
X2646Y1515D01*
X2644Y1515D01*
X2644Y1517D01*
X2640Y1517D01*
X2640Y1519D01*
X2638Y1519D01*
X2638Y1521D01*
X2636Y1521D01*
X2636Y1523D01*
X2634Y1523D01*
X2634Y1525D01*
X2632Y1525D01*
X2632Y1527D01*
X2628Y1527D01*
X2628Y1529D01*
X2626Y1529D01*
X2626Y1531D01*
X2624Y1531D01*
X2624Y1533D01*
X2622Y1533D01*
X2622Y1535D01*
X2620Y1535D01*
X2620Y1537D01*
X2618Y1537D01*
X2618Y1539D01*
X2614Y1539D01*
X2614Y1541D01*
X2612Y1541D01*
X2612Y1543D01*
X2610Y1543D01*
X2610Y1545D01*
X2608Y1545D01*
X2608Y1547D01*
X2606Y1547D01*
X2606Y1549D01*
X2602Y1549D01*
X2602Y1551D01*
X2600Y1551D01*
X2600Y1553D01*
X2598Y1553D01*
X2598Y1555D01*
X2596Y1555D01*
X2596Y1557D01*
X2594Y1557D01*
X2594Y1559D01*
X2592Y1559D01*
X2592Y1561D01*
X2590Y1561D01*
X2590Y1563D01*
X2588Y1563D01*
X2588Y1565D01*
X2586Y1565D01*
X2586Y1567D01*
X2584Y1567D01*
X2584Y1569D01*
X2582Y1569D01*
X2582Y1571D01*
X2580Y1571D01*
X2580Y1573D01*
X2578Y1573D01*
X2578Y1575D01*
X2576Y1575D01*
X2576Y1577D01*
X2574Y1577D01*
X2574Y1579D01*
X2572Y1579D01*
X2572Y1581D01*
X2570Y1581D01*
X2570Y1583D01*
X2568Y1583D01*
X2568Y1585D01*
X2566Y1585D01*
X2566Y1587D01*
X2564Y1587D01*
X2564Y1589D01*
X2562Y1589D01*
X2562Y1591D01*
X2560Y1591D01*
X2560Y1593D01*
X2558Y1593D01*
X2558Y1595D01*
X2556Y1595D01*
X2556Y1923D01*
X2500Y1923D01*
X2500Y1925D01*
X2494Y1925D01*
X2494Y1927D01*
X2490Y1927D01*
X2490Y1929D01*
X2486Y1929D01*
X2486Y1931D01*
X2464Y1931D01*
G37*
D02*
G36*
X2358Y1549D02*
X2358Y1545D01*
X2354Y1545D01*
X2354Y1543D01*
X2352Y1543D01*
X2352Y1541D01*
X2350Y1541D01*
X2350Y1539D01*
X2348Y1539D01*
X2348Y1537D01*
X2346Y1537D01*
X2346Y1535D01*
X2344Y1535D01*
X2344Y1533D01*
X2342Y1533D01*
X2342Y1531D01*
X2338Y1531D01*
X2338Y1529D01*
X2336Y1529D01*
X2336Y1527D01*
X2334Y1527D01*
X2334Y1525D01*
X2332Y1525D01*
X2332Y1523D01*
X2330Y1523D01*
X2330Y1521D01*
X2328Y1521D01*
X2328Y1519D01*
X2326Y1519D01*
X2326Y1517D01*
X2324Y1517D01*
X2324Y1515D01*
X2320Y1515D01*
X2320Y1513D01*
X2318Y1513D01*
X2318Y1511D01*
X2316Y1511D01*
X2316Y1509D01*
X2314Y1509D01*
X2314Y1507D01*
X2312Y1507D01*
X2312Y1505D01*
X2310Y1505D01*
X2310Y1503D01*
X2308Y1503D01*
X2308Y1501D01*
X2304Y1501D01*
X2304Y1499D01*
X2302Y1499D01*
X2302Y1497D01*
X2300Y1497D01*
X2300Y1495D01*
X2298Y1495D01*
X2298Y1493D01*
X2296Y1493D01*
X2296Y1491D01*
X2294Y1491D01*
X2294Y1489D01*
X2292Y1489D01*
X2292Y1487D01*
X2288Y1487D01*
X2288Y1485D01*
X2286Y1485D01*
X2286Y1483D01*
X2284Y1483D01*
X2284Y1481D01*
X2282Y1481D01*
X2282Y1479D01*
X2280Y1479D01*
X2280Y1477D01*
X2276Y1477D01*
X2276Y1475D01*
X2272Y1475D01*
X2272Y1473D01*
X2268Y1473D01*
X2268Y1471D01*
X2256Y1471D01*
X2256Y1381D01*
X2216Y1381D01*
X2216Y1375D01*
X2214Y1375D01*
X2214Y1369D01*
X2212Y1369D01*
X2212Y1363D01*
X2210Y1363D01*
X2210Y1357D01*
X2208Y1357D01*
X2208Y1353D01*
X2206Y1353D01*
X2206Y1347D01*
X2204Y1347D01*
X2204Y1341D01*
X2202Y1341D01*
X2202Y1335D01*
X2200Y1335D01*
X2200Y1329D01*
X2198Y1329D01*
X2198Y1323D01*
X2196Y1323D01*
X2196Y1317D01*
X2194Y1317D01*
X2194Y1313D01*
X2192Y1313D01*
X2192Y1309D01*
X2190Y1309D01*
X2190Y1305D01*
X2188Y1305D01*
X2188Y1303D01*
X2186Y1303D01*
X2186Y1301D01*
X2184Y1301D01*
X2184Y1299D01*
X2182Y1299D01*
X2182Y1297D01*
X2178Y1297D01*
X2178Y1295D01*
X2174Y1295D01*
X2174Y1293D01*
X2172Y1293D01*
X2172Y1249D01*
X2170Y1249D01*
X2170Y1241D01*
X2168Y1241D01*
X2168Y1235D01*
X2166Y1235D01*
X2166Y1231D01*
X2164Y1231D01*
X2164Y1229D01*
X2162Y1229D01*
X2162Y1225D01*
X2160Y1225D01*
X2160Y1223D01*
X2158Y1223D01*
X2158Y1221D01*
X2156Y1221D01*
X2156Y1217D01*
X2154Y1217D01*
X2154Y1215D01*
X2152Y1215D01*
X2152Y1213D01*
X2150Y1213D01*
X2150Y1211D01*
X2148Y1211D01*
X2148Y1209D01*
X2144Y1209D01*
X2144Y1207D01*
X2142Y1207D01*
X2142Y1205D01*
X2140Y1205D01*
X2140Y1203D01*
X2136Y1203D01*
X2136Y1201D01*
X2132Y1201D01*
X2132Y1199D01*
X2128Y1199D01*
X2128Y1197D01*
X2122Y1197D01*
X2122Y1195D01*
X2432Y1195D01*
X2432Y1271D01*
X2430Y1271D01*
X2430Y1273D01*
X2428Y1273D01*
X2428Y1275D01*
X2426Y1275D01*
X2426Y1277D01*
X2424Y1277D01*
X2424Y1279D01*
X2422Y1279D01*
X2422Y1281D01*
X2420Y1281D01*
X2420Y1283D01*
X2418Y1283D01*
X2418Y1287D01*
X2416Y1287D01*
X2416Y1289D01*
X2414Y1289D01*
X2414Y1291D01*
X2412Y1291D01*
X2412Y1293D01*
X2410Y1293D01*
X2410Y1295D01*
X2408Y1295D01*
X2408Y1297D01*
X2406Y1297D01*
X2406Y1299D01*
X2404Y1299D01*
X2404Y1301D01*
X2402Y1301D01*
X2402Y1303D01*
X2400Y1303D01*
X2400Y1305D01*
X2398Y1305D01*
X2398Y1307D01*
X2396Y1307D01*
X2396Y1309D01*
X2394Y1309D01*
X2394Y1311D01*
X2392Y1311D01*
X2392Y1313D01*
X2390Y1313D01*
X2390Y1315D01*
X2388Y1315D01*
X2388Y1319D01*
X2386Y1319D01*
X2386Y1321D01*
X2384Y1321D01*
X2384Y1323D01*
X2382Y1323D01*
X2382Y1327D01*
X2380Y1327D01*
X2380Y1335D01*
X2378Y1335D01*
X2378Y1549D01*
X2358Y1549D01*
G37*
D02*
G36*
X1650Y1293D02*
X1650Y1243D01*
X1648Y1243D01*
X1648Y1237D01*
X1646Y1237D01*
X1646Y1233D01*
X1644Y1233D01*
X1644Y1229D01*
X1642Y1229D01*
X1642Y1225D01*
X1640Y1225D01*
X1640Y1223D01*
X1638Y1223D01*
X1638Y1219D01*
X1636Y1219D01*
X1636Y1217D01*
X1634Y1217D01*
X1634Y1215D01*
X1632Y1215D01*
X1632Y1213D01*
X1630Y1213D01*
X1630Y1211D01*
X1628Y1211D01*
X1628Y1209D01*
X1626Y1209D01*
X1626Y1207D01*
X1624Y1207D01*
X1624Y1205D01*
X1620Y1205D01*
X1620Y1203D01*
X1618Y1203D01*
X1618Y1201D01*
X1614Y1201D01*
X1614Y1199D01*
X1610Y1199D01*
X1610Y1197D01*
X1606Y1197D01*
X1606Y1195D01*
X1600Y1195D01*
X1600Y1193D01*
X1912Y1193D01*
X1912Y1293D01*
X1650Y1293D01*
G37*
D02*
G36*
X2050Y1201D02*
X2050Y1195D01*
X2082Y1195D01*
X2082Y1197D01*
X2076Y1197D01*
X2076Y1199D01*
X2072Y1199D01*
X2072Y1201D01*
X2050Y1201D01*
G37*
D02*
G36*
X2050Y1195D02*
X2050Y1193D01*
X2674Y1193D01*
X2674Y1195D01*
X2050Y1195D01*
G37*
D02*
G36*
X2050Y1195D02*
X2050Y1193D01*
X2674Y1193D01*
X2674Y1195D01*
X2050Y1195D01*
G37*
D02*
G36*
X2050Y1195D02*
X2050Y1193D01*
X2674Y1193D01*
X2674Y1195D01*
X2050Y1195D01*
G37*
D02*
G36*
X1560Y1193D02*
X1560Y1191D01*
X2674Y1191D01*
X2674Y1193D01*
X1560Y1193D01*
G37*
D02*
G36*
X1560Y1193D02*
X1560Y1191D01*
X2674Y1191D01*
X2674Y1193D01*
X1560Y1193D01*
G37*
D02*
G36*
X1560Y1191D02*
X1560Y1115D01*
X1450Y1115D01*
X1450Y1059D01*
X2212Y1059D01*
X2212Y1057D01*
X2218Y1057D01*
X2218Y1055D01*
X2222Y1055D01*
X2222Y1053D01*
X2226Y1053D01*
X2226Y1051D01*
X2230Y1051D01*
X2230Y1049D01*
X2232Y1049D01*
X2232Y1047D01*
X2236Y1047D01*
X2236Y1045D01*
X2238Y1045D01*
X2238Y1043D01*
X2240Y1043D01*
X2240Y1041D01*
X2242Y1041D01*
X2242Y1039D01*
X2244Y1039D01*
X2244Y1037D01*
X2246Y1037D01*
X2246Y1035D01*
X2248Y1035D01*
X2248Y1033D01*
X2250Y1033D01*
X2250Y1029D01*
X2252Y1029D01*
X2252Y1027D01*
X2254Y1027D01*
X2254Y1023D01*
X2256Y1023D01*
X2256Y1021D01*
X2258Y1021D01*
X2258Y1015D01*
X2260Y1015D01*
X2260Y1011D01*
X2262Y1011D01*
X2262Y969D01*
X2260Y969D01*
X2260Y965D01*
X2258Y965D01*
X2258Y959D01*
X2256Y959D01*
X2256Y957D01*
X2254Y957D01*
X2254Y953D01*
X2252Y953D01*
X2252Y951D01*
X2250Y951D01*
X2250Y947D01*
X2248Y947D01*
X2248Y945D01*
X2246Y945D01*
X2246Y943D01*
X2244Y943D01*
X2244Y941D01*
X2242Y941D01*
X2242Y939D01*
X2240Y939D01*
X2240Y937D01*
X2238Y937D01*
X2238Y935D01*
X2236Y935D01*
X2236Y933D01*
X2232Y933D01*
X2232Y913D01*
X2234Y913D01*
X2234Y911D01*
X2238Y911D01*
X2238Y909D01*
X2242Y909D01*
X2242Y907D01*
X2244Y907D01*
X2244Y905D01*
X2248Y905D01*
X2248Y903D01*
X2250Y903D01*
X2250Y901D01*
X2252Y901D01*
X2252Y899D01*
X2254Y899D01*
X2254Y897D01*
X2256Y897D01*
X2256Y895D01*
X2258Y895D01*
X2258Y893D01*
X2260Y893D01*
X2260Y889D01*
X2262Y889D01*
X2262Y887D01*
X2264Y887D01*
X2264Y885D01*
X2266Y885D01*
X2266Y881D01*
X2268Y881D01*
X2268Y877D01*
X2270Y877D01*
X2270Y873D01*
X2272Y873D01*
X2272Y865D01*
X2274Y865D01*
X2274Y831D01*
X2272Y831D01*
X2272Y825D01*
X2270Y825D01*
X2270Y821D01*
X2268Y821D01*
X2268Y817D01*
X2266Y817D01*
X2266Y813D01*
X2264Y813D01*
X2264Y809D01*
X2262Y809D01*
X2262Y807D01*
X2260Y807D01*
X2260Y805D01*
X2258Y805D01*
X2258Y803D01*
X2256Y803D01*
X2256Y801D01*
X2254Y801D01*
X2254Y799D01*
X2252Y799D01*
X2252Y797D01*
X2250Y797D01*
X2250Y795D01*
X2248Y795D01*
X2248Y793D01*
X2246Y793D01*
X2246Y791D01*
X2244Y791D01*
X2244Y789D01*
X2240Y789D01*
X2240Y787D01*
X2236Y787D01*
X2236Y785D01*
X2232Y785D01*
X2232Y783D01*
X2228Y783D01*
X2228Y781D01*
X2220Y781D01*
X2220Y779D01*
X2674Y779D01*
X2674Y1191D01*
X1560Y1191D01*
G37*
D02*
G36*
X1450Y1059D02*
X1450Y959D01*
X1452Y959D01*
X1452Y877D01*
X1558Y877D01*
X1558Y779D01*
X1736Y779D01*
X1736Y921D01*
X1724Y921D01*
X1724Y1059D01*
X1450Y1059D01*
G37*
D02*
G36*
X1864Y1059D02*
X1864Y917D01*
X1874Y917D01*
X1874Y779D01*
X2188Y779D01*
X2188Y781D01*
X2182Y781D01*
X2182Y783D01*
X2176Y783D01*
X2176Y785D01*
X2172Y785D01*
X2172Y787D01*
X2170Y787D01*
X2170Y789D01*
X2166Y789D01*
X2166Y791D01*
X2164Y791D01*
X2164Y793D01*
X2160Y793D01*
X2160Y795D01*
X2158Y795D01*
X2158Y797D01*
X2156Y797D01*
X2156Y799D01*
X2154Y799D01*
X2154Y801D01*
X2152Y801D01*
X2152Y803D01*
X2150Y803D01*
X2150Y807D01*
X2148Y807D01*
X2148Y809D01*
X2146Y809D01*
X2146Y811D01*
X2144Y811D01*
X2144Y815D01*
X2142Y815D01*
X2142Y819D01*
X2140Y819D01*
X2140Y823D01*
X2138Y823D01*
X2138Y829D01*
X2136Y829D01*
X2136Y869D01*
X2138Y869D01*
X2138Y873D01*
X2140Y873D01*
X2140Y879D01*
X2142Y879D01*
X2142Y883D01*
X2144Y883D01*
X2144Y885D01*
X2146Y885D01*
X2146Y889D01*
X2148Y889D01*
X2148Y891D01*
X2150Y891D01*
X2150Y893D01*
X2152Y893D01*
X2152Y895D01*
X2154Y895D01*
X2154Y897D01*
X2156Y897D01*
X2156Y899D01*
X2158Y899D01*
X2158Y901D01*
X2160Y901D01*
X2160Y903D01*
X2162Y903D01*
X2162Y905D01*
X2164Y905D01*
X2164Y927D01*
X2160Y927D01*
X2160Y929D01*
X2158Y929D01*
X2158Y931D01*
X2154Y931D01*
X2154Y933D01*
X2152Y933D01*
X2152Y935D01*
X2150Y935D01*
X2150Y937D01*
X2146Y937D01*
X2146Y939D01*
X2144Y939D01*
X2144Y941D01*
X2142Y941D01*
X2142Y943D01*
X2140Y943D01*
X2140Y947D01*
X2138Y947D01*
X2138Y949D01*
X2136Y949D01*
X2136Y951D01*
X2134Y951D01*
X2134Y955D01*
X2132Y955D01*
X2132Y957D01*
X2130Y957D01*
X2130Y961D01*
X2128Y961D01*
X2128Y967D01*
X2126Y967D01*
X2126Y973D01*
X2124Y973D01*
X2124Y1007D01*
X2126Y1007D01*
X2126Y1013D01*
X2128Y1013D01*
X2128Y1017D01*
X2130Y1017D01*
X2130Y1021D01*
X2132Y1021D01*
X2132Y1025D01*
X2134Y1025D01*
X2134Y1029D01*
X2136Y1029D01*
X2136Y1031D01*
X2138Y1031D01*
X2138Y1033D01*
X2140Y1033D01*
X2140Y1037D01*
X2142Y1037D01*
X2142Y1039D01*
X2144Y1039D01*
X2144Y1041D01*
X2146Y1041D01*
X2146Y1043D01*
X2150Y1043D01*
X2150Y1045D01*
X2152Y1045D01*
X2152Y1047D01*
X2154Y1047D01*
X2154Y1049D01*
X2158Y1049D01*
X2158Y1051D01*
X2160Y1051D01*
X2160Y1053D01*
X2164Y1053D01*
X2164Y1055D01*
X2170Y1055D01*
X2170Y1057D01*
X2176Y1057D01*
X2176Y1059D01*
X1864Y1059D01*
G37*
D02*
G36*
X1558Y779D02*
X1558Y777D01*
X2674Y777D01*
X2674Y779D01*
X1558Y779D01*
G37*
D02*
G36*
X1558Y779D02*
X1558Y777D01*
X2674Y777D01*
X2674Y779D01*
X1558Y779D01*
G37*
D02*
G36*
X1558Y779D02*
X1558Y777D01*
X2674Y777D01*
X2674Y779D01*
X1558Y779D01*
G37*
D02*
G36*
X1558Y777D02*
X1558Y739D01*
X1454Y739D01*
X1454Y731D01*
X2508Y731D01*
X2508Y729D01*
X2534Y729D01*
X2534Y731D01*
X2674Y731D01*
X2674Y777D01*
X1558Y777D01*
G37*
D02*
G36*
X1454Y731D02*
X1454Y675D01*
X1456Y675D01*
X1456Y643D01*
X2200Y643D01*
X2200Y641D01*
X2210Y641D01*
X2210Y639D01*
X2216Y639D01*
X2216Y637D01*
X2220Y637D01*
X2220Y635D01*
X2224Y635D01*
X2224Y633D01*
X2226Y633D01*
X2226Y631D01*
X2230Y631D01*
X2230Y629D01*
X2232Y629D01*
X2232Y627D01*
X2234Y627D01*
X2234Y625D01*
X2236Y625D01*
X2236Y623D01*
X2238Y623D01*
X2238Y621D01*
X2240Y621D01*
X2240Y619D01*
X2242Y619D01*
X2242Y617D01*
X2244Y617D01*
X2244Y615D01*
X2246Y615D01*
X2246Y611D01*
X2248Y611D01*
X2248Y609D01*
X2250Y609D01*
X2250Y605D01*
X2252Y605D01*
X2252Y603D01*
X2484Y603D01*
X2484Y605D01*
X2476Y605D01*
X2476Y607D01*
X2472Y607D01*
X2472Y609D01*
X2468Y609D01*
X2468Y611D01*
X2464Y611D01*
X2464Y613D01*
X2462Y613D01*
X2462Y615D01*
X2458Y615D01*
X2458Y617D01*
X2456Y617D01*
X2456Y619D01*
X2454Y619D01*
X2454Y621D01*
X2452Y621D01*
X2452Y623D01*
X2450Y623D01*
X2450Y625D01*
X2448Y625D01*
X2448Y627D01*
X2446Y627D01*
X2446Y631D01*
X2444Y631D01*
X2444Y633D01*
X2442Y633D01*
X2442Y637D01*
X2440Y637D01*
X2440Y639D01*
X2438Y639D01*
X2438Y645D01*
X2436Y645D01*
X2436Y651D01*
X2434Y651D01*
X2434Y683D01*
X2436Y683D01*
X2436Y689D01*
X2438Y689D01*
X2438Y693D01*
X2440Y693D01*
X2440Y697D01*
X2442Y697D01*
X2442Y701D01*
X2444Y701D01*
X2444Y703D01*
X2446Y703D01*
X2446Y707D01*
X2448Y707D01*
X2448Y709D01*
X2450Y709D01*
X2450Y711D01*
X2452Y711D01*
X2452Y713D01*
X2454Y713D01*
X2454Y715D01*
X2456Y715D01*
X2456Y717D01*
X2460Y717D01*
X2460Y719D01*
X2462Y719D01*
X2462Y721D01*
X2464Y721D01*
X2464Y723D01*
X2468Y723D01*
X2468Y725D01*
X2472Y725D01*
X2472Y727D01*
X2478Y727D01*
X2478Y729D01*
X2486Y729D01*
X2486Y731D01*
X1454Y731D01*
G37*
D02*
G36*
X1488Y643D02*
X1488Y641D01*
X1500Y641D01*
X1500Y639D01*
X1504Y639D01*
X1504Y637D01*
X1508Y637D01*
X1508Y635D01*
X1530Y635D01*
X1530Y637D01*
X1534Y637D01*
X1534Y639D01*
X1538Y639D01*
X1538Y641D01*
X1550Y641D01*
X1550Y643D01*
X1488Y643D01*
G37*
D02*
G36*
X1568Y643D02*
X1568Y641D01*
X1578Y641D01*
X1578Y639D01*
X1584Y639D01*
X1584Y637D01*
X1588Y637D01*
X1588Y635D01*
X1608Y635D01*
X1608Y637D01*
X1612Y637D01*
X1612Y639D01*
X1618Y639D01*
X1618Y641D01*
X1628Y641D01*
X1628Y643D01*
X1568Y643D01*
G37*
D02*
G36*
X1646Y643D02*
X1646Y641D01*
X1658Y641D01*
X1658Y639D01*
X1662Y639D01*
X1662Y637D01*
X1666Y637D01*
X1666Y635D01*
X1688Y635D01*
X1688Y637D01*
X1692Y637D01*
X1692Y639D01*
X1696Y639D01*
X1696Y641D01*
X1708Y641D01*
X1708Y643D01*
X1646Y643D01*
G37*
D02*
G36*
X1726Y643D02*
X1726Y641D01*
X1736Y641D01*
X1736Y639D01*
X1742Y639D01*
X1742Y637D01*
X1746Y637D01*
X1746Y635D01*
X1766Y635D01*
X1766Y637D01*
X1770Y637D01*
X1770Y639D01*
X1776Y639D01*
X1776Y641D01*
X1786Y641D01*
X1786Y643D01*
X1726Y643D01*
G37*
D02*
G36*
X1804Y643D02*
X1804Y641D01*
X1816Y641D01*
X1816Y639D01*
X1820Y639D01*
X1820Y637D01*
X1824Y637D01*
X1824Y635D01*
X1846Y635D01*
X1846Y637D01*
X1850Y637D01*
X1850Y639D01*
X1854Y639D01*
X1854Y641D01*
X1866Y641D01*
X1866Y643D01*
X1804Y643D01*
G37*
D02*
G36*
X1884Y643D02*
X1884Y641D01*
X1894Y641D01*
X1894Y639D01*
X1900Y639D01*
X1900Y637D01*
X1904Y637D01*
X1904Y635D01*
X1924Y635D01*
X1924Y637D01*
X1928Y637D01*
X1928Y639D01*
X1934Y639D01*
X1934Y641D01*
X1944Y641D01*
X1944Y643D01*
X1884Y643D01*
G37*
D02*
G36*
X1962Y643D02*
X1962Y641D01*
X1974Y641D01*
X1974Y639D01*
X1978Y639D01*
X1978Y637D01*
X1982Y637D01*
X1982Y635D01*
X2004Y635D01*
X2004Y637D01*
X2008Y637D01*
X2008Y639D01*
X2012Y639D01*
X2012Y641D01*
X2024Y641D01*
X2024Y643D01*
X1962Y643D01*
G37*
D02*
G36*
X2042Y643D02*
X2042Y641D01*
X2052Y641D01*
X2052Y639D01*
X2058Y639D01*
X2058Y637D01*
X2062Y637D01*
X2062Y635D01*
X2082Y635D01*
X2082Y637D01*
X2086Y637D01*
X2086Y639D01*
X2092Y639D01*
X2092Y641D01*
X2102Y641D01*
X2102Y643D01*
X2042Y643D01*
G37*
D02*
G36*
X2120Y643D02*
X2120Y641D01*
X2132Y641D01*
X2132Y639D01*
X2136Y639D01*
X2136Y637D01*
X2140Y637D01*
X2140Y635D01*
X2162Y635D01*
X2162Y637D01*
X2166Y637D01*
X2166Y639D01*
X2170Y639D01*
X2170Y641D01*
X2182Y641D01*
X2182Y643D01*
X2120Y643D01*
G37*
D02*
G36*
X2512Y605D02*
X2512Y603D01*
X2532Y603D01*
X2532Y605D01*
X2512Y605D01*
G37*
D02*
G36*
X2252Y603D02*
X2252Y601D01*
X2674Y601D01*
X2674Y603D01*
X2252Y603D01*
G37*
D02*
G36*
X2252Y603D02*
X2252Y601D01*
X2674Y601D01*
X2674Y603D01*
X2252Y603D01*
G37*
D02*
G36*
X2254Y601D02*
X2254Y595D01*
X2256Y595D01*
X2256Y557D01*
X2254Y557D01*
X2254Y553D01*
X2252Y553D01*
X2252Y547D01*
X2250Y547D01*
X2250Y545D01*
X2248Y545D01*
X2248Y541D01*
X2246Y541D01*
X2246Y537D01*
X2244Y537D01*
X2244Y535D01*
X2242Y535D01*
X2242Y533D01*
X2240Y533D01*
X2240Y531D01*
X2238Y531D01*
X2238Y529D01*
X2236Y529D01*
X2236Y527D01*
X2234Y527D01*
X2234Y525D01*
X2232Y525D01*
X2232Y523D01*
X2230Y523D01*
X2230Y521D01*
X2226Y521D01*
X2226Y519D01*
X2224Y519D01*
X2224Y517D01*
X2220Y517D01*
X2220Y515D01*
X2216Y515D01*
X2216Y513D01*
X2210Y513D01*
X2210Y511D01*
X2674Y511D01*
X2674Y601D01*
X2254Y601D01*
G37*
D02*
G36*
X1508Y517D02*
X1508Y515D01*
X1504Y515D01*
X1504Y513D01*
X1498Y513D01*
X1498Y511D01*
X1540Y511D01*
X1540Y513D01*
X1534Y513D01*
X1534Y515D01*
X1530Y515D01*
X1530Y517D01*
X1508Y517D01*
G37*
D02*
G36*
X1588Y517D02*
X1588Y515D01*
X1584Y515D01*
X1584Y513D01*
X1578Y513D01*
X1578Y511D01*
X1618Y511D01*
X1618Y513D01*
X1612Y513D01*
X1612Y515D01*
X1608Y515D01*
X1608Y517D01*
X1588Y517D01*
G37*
D02*
G36*
X1666Y517D02*
X1666Y515D01*
X1662Y515D01*
X1662Y513D01*
X1656Y513D01*
X1656Y511D01*
X1698Y511D01*
X1698Y513D01*
X1692Y513D01*
X1692Y515D01*
X1688Y515D01*
X1688Y517D01*
X1666Y517D01*
G37*
D02*
G36*
X1746Y517D02*
X1746Y515D01*
X1742Y515D01*
X1742Y513D01*
X1736Y513D01*
X1736Y511D01*
X1776Y511D01*
X1776Y513D01*
X1770Y513D01*
X1770Y515D01*
X1766Y515D01*
X1766Y517D01*
X1746Y517D01*
G37*
D02*
G36*
X1824Y517D02*
X1824Y515D01*
X1820Y515D01*
X1820Y513D01*
X1814Y513D01*
X1814Y511D01*
X1856Y511D01*
X1856Y513D01*
X1850Y513D01*
X1850Y515D01*
X1846Y515D01*
X1846Y517D01*
X1824Y517D01*
G37*
D02*
G36*
X1904Y517D02*
X1904Y515D01*
X1900Y515D01*
X1900Y513D01*
X1894Y513D01*
X1894Y511D01*
X1934Y511D01*
X1934Y513D01*
X1928Y513D01*
X1928Y515D01*
X1924Y515D01*
X1924Y517D01*
X1904Y517D01*
G37*
D02*
G36*
X1982Y517D02*
X1982Y515D01*
X1978Y515D01*
X1978Y513D01*
X1972Y513D01*
X1972Y511D01*
X2014Y511D01*
X2014Y513D01*
X2008Y513D01*
X2008Y515D01*
X2004Y515D01*
X2004Y517D01*
X1982Y517D01*
G37*
D02*
G36*
X2062Y517D02*
X2062Y515D01*
X2058Y515D01*
X2058Y513D01*
X2052Y513D01*
X2052Y511D01*
X2092Y511D01*
X2092Y513D01*
X2086Y513D01*
X2086Y515D01*
X2082Y515D01*
X2082Y517D01*
X2062Y517D01*
G37*
D02*
G36*
X2140Y517D02*
X2140Y515D01*
X2136Y515D01*
X2136Y513D01*
X2130Y513D01*
X2130Y511D01*
X2172Y511D01*
X2172Y513D01*
X2166Y513D01*
X2166Y515D01*
X2162Y515D01*
X2162Y517D01*
X2140Y517D01*
G37*
D02*
G36*
X1458Y511D02*
X1458Y509D01*
X2674Y509D01*
X2674Y511D01*
X1458Y511D01*
G37*
D02*
G36*
X1458Y511D02*
X1458Y509D01*
X2674Y509D01*
X2674Y511D01*
X1458Y511D01*
G37*
D02*
G36*
X1458Y511D02*
X1458Y509D01*
X2674Y509D01*
X2674Y511D01*
X1458Y511D01*
G37*
D02*
G36*
X1458Y511D02*
X1458Y509D01*
X2674Y509D01*
X2674Y511D01*
X1458Y511D01*
G37*
D02*
G36*
X1458Y511D02*
X1458Y509D01*
X2674Y509D01*
X2674Y511D01*
X1458Y511D01*
G37*
D02*
G36*
X1458Y511D02*
X1458Y509D01*
X2674Y509D01*
X2674Y511D01*
X1458Y511D01*
G37*
D02*
G36*
X1458Y511D02*
X1458Y509D01*
X2674Y509D01*
X2674Y511D01*
X1458Y511D01*
G37*
D02*
G36*
X1458Y511D02*
X1458Y509D01*
X2674Y509D01*
X2674Y511D01*
X1458Y511D01*
G37*
D02*
G36*
X1458Y511D02*
X1458Y509D01*
X2674Y509D01*
X2674Y511D01*
X1458Y511D01*
G37*
D02*
G36*
X1458Y511D02*
X1458Y509D01*
X2674Y509D01*
X2674Y511D01*
X1458Y511D01*
G37*
D02*
G36*
X1458Y509D02*
X1458Y475D01*
X2622Y475D01*
X2622Y473D01*
X2630Y473D01*
X2630Y471D01*
X2636Y471D01*
X2636Y469D01*
X2640Y469D01*
X2640Y467D01*
X2642Y467D01*
X2642Y465D01*
X2646Y465D01*
X2646Y463D01*
X2648Y463D01*
X2648Y461D01*
X2650Y461D01*
X2650Y459D01*
X2652Y459D01*
X2652Y457D01*
X2674Y457D01*
X2674Y509D01*
X1458Y509D01*
G37*
D02*
G36*
X1458Y475D02*
X1458Y389D01*
X1460Y389D01*
X1460Y347D01*
X2448Y347D01*
X2448Y475D01*
X1458Y475D01*
G37*
D02*
G36*
X2574Y475D02*
X2574Y473D01*
X2598Y473D01*
X2598Y475D01*
X2574Y475D01*
G37*
D02*
G36*
X2654Y365D02*
X2654Y363D01*
X2652Y363D01*
X2652Y361D01*
X2648Y361D01*
X2648Y359D01*
X2646Y359D01*
X2646Y357D01*
X2644Y357D01*
X2644Y355D01*
X2640Y355D01*
X2640Y353D01*
X2636Y353D01*
X2636Y351D01*
X2632Y351D01*
X2632Y349D01*
X2624Y349D01*
X2624Y347D01*
X2674Y347D01*
X2674Y365D01*
X2654Y365D01*
G37*
D02*
G36*
X2574Y349D02*
X2574Y347D01*
X2596Y347D01*
X2596Y349D01*
X2574Y349D01*
G37*
D02*
G36*
X1460Y347D02*
X1460Y345D01*
X2674Y345D01*
X2674Y347D01*
X1460Y347D01*
G37*
D02*
G36*
X1460Y347D02*
X1460Y345D01*
X2674Y345D01*
X2674Y347D01*
X1460Y347D01*
G37*
D02*
G36*
X1460Y347D02*
X1460Y345D01*
X2674Y345D01*
X2674Y347D01*
X1460Y347D01*
G37*
D02*
G36*
X1460Y345D02*
X1460Y247D01*
X1462Y247D01*
X1462Y161D01*
X2540Y161D01*
X2540Y159D01*
X2544Y159D01*
X2544Y157D01*
X2550Y157D01*
X2550Y155D01*
X2552Y155D01*
X2552Y153D01*
X2556Y153D01*
X2556Y151D01*
X2558Y151D01*
X2558Y149D01*
X2562Y149D01*
X2562Y147D01*
X2564Y147D01*
X2564Y145D01*
X2566Y145D01*
X2566Y143D01*
X2568Y143D01*
X2568Y141D01*
X2570Y141D01*
X2570Y139D01*
X2572Y139D01*
X2572Y137D01*
X2574Y137D01*
X2574Y135D01*
X2576Y135D01*
X2576Y131D01*
X2596Y131D01*
X2596Y133D01*
X2598Y133D01*
X2598Y135D01*
X2600Y135D01*
X2600Y137D01*
X2602Y137D01*
X2602Y139D01*
X2604Y139D01*
X2604Y141D01*
X2606Y141D01*
X2606Y143D01*
X2608Y143D01*
X2608Y145D01*
X2610Y145D01*
X2610Y147D01*
X2612Y147D01*
X2612Y149D01*
X2614Y149D01*
X2614Y151D01*
X2616Y151D01*
X2616Y153D01*
X2618Y153D01*
X2618Y155D01*
X2620Y155D01*
X2620Y157D01*
X2622Y157D01*
X2622Y159D01*
X2624Y159D01*
X2624Y161D01*
X2626Y161D01*
X2626Y163D01*
X2628Y163D01*
X2628Y165D01*
X2630Y165D01*
X2630Y167D01*
X2632Y167D01*
X2632Y169D01*
X2634Y169D01*
X2634Y171D01*
X2636Y171D01*
X2636Y173D01*
X2638Y173D01*
X2638Y175D01*
X2640Y175D01*
X2640Y177D01*
X2642Y177D01*
X2642Y179D01*
X2644Y179D01*
X2644Y181D01*
X2646Y181D01*
X2646Y183D01*
X2648Y183D01*
X2648Y185D01*
X2650Y185D01*
X2650Y187D01*
X2652Y187D01*
X2652Y189D01*
X2654Y189D01*
X2654Y191D01*
X2656Y191D01*
X2656Y193D01*
X2658Y193D01*
X2658Y195D01*
X2660Y195D01*
X2660Y197D01*
X2662Y197D01*
X2662Y199D01*
X2664Y199D01*
X2664Y201D01*
X2666Y201D01*
X2666Y203D01*
X2668Y203D01*
X2668Y205D01*
X2670Y205D01*
X2670Y207D01*
X2672Y207D01*
X2672Y209D01*
X2674Y209D01*
X2674Y345D01*
X1460Y345D01*
G37*
D02*
G36*
X1462Y161D02*
X1462Y151D01*
X1482Y151D01*
X1482Y153D01*
X1486Y153D01*
X1486Y155D01*
X1488Y155D01*
X1488Y157D01*
X1494Y157D01*
X1494Y159D01*
X1500Y159D01*
X1500Y161D01*
X1462Y161D01*
G37*
D02*
G36*
X1538Y161D02*
X1538Y159D01*
X1544Y159D01*
X1544Y157D01*
X1550Y157D01*
X1550Y155D01*
X1552Y155D01*
X1552Y153D01*
X1556Y153D01*
X1556Y151D01*
X1558Y151D01*
X1558Y149D01*
X1580Y149D01*
X1580Y151D01*
X1582Y151D01*
X1582Y153D01*
X1586Y153D01*
X1586Y155D01*
X1588Y155D01*
X1588Y157D01*
X1594Y157D01*
X1594Y159D01*
X1600Y159D01*
X1600Y161D01*
X1538Y161D01*
G37*
D02*
G36*
X1638Y161D02*
X1638Y159D01*
X1644Y159D01*
X1644Y157D01*
X1650Y157D01*
X1650Y155D01*
X1652Y155D01*
X1652Y153D01*
X1656Y153D01*
X1656Y151D01*
X1658Y151D01*
X1658Y149D01*
X1680Y149D01*
X1680Y151D01*
X1682Y151D01*
X1682Y153D01*
X1686Y153D01*
X1686Y155D01*
X1688Y155D01*
X1688Y157D01*
X1694Y157D01*
X1694Y159D01*
X1700Y159D01*
X1700Y161D01*
X1638Y161D01*
G37*
D02*
G36*
X1738Y161D02*
X1738Y159D01*
X1744Y159D01*
X1744Y157D01*
X1750Y157D01*
X1750Y155D01*
X1752Y155D01*
X1752Y153D01*
X1756Y153D01*
X1756Y151D01*
X1758Y151D01*
X1758Y149D01*
X1780Y149D01*
X1780Y151D01*
X1782Y151D01*
X1782Y153D01*
X1786Y153D01*
X1786Y155D01*
X1790Y155D01*
X1790Y157D01*
X1794Y157D01*
X1794Y159D01*
X1800Y159D01*
X1800Y161D01*
X1738Y161D01*
G37*
D02*
G36*
X1838Y161D02*
X1838Y159D01*
X1844Y159D01*
X1844Y157D01*
X1850Y157D01*
X1850Y155D01*
X1852Y155D01*
X1852Y153D01*
X1856Y153D01*
X1856Y151D01*
X1858Y151D01*
X1858Y149D01*
X1862Y149D01*
X1862Y147D01*
X1864Y147D01*
X1864Y145D01*
X1866Y145D01*
X1866Y143D01*
X1868Y143D01*
X1868Y141D01*
X1870Y141D01*
X1870Y139D01*
X1872Y139D01*
X1872Y137D01*
X1874Y137D01*
X1874Y135D01*
X1876Y135D01*
X1876Y131D01*
X1878Y131D01*
X1878Y129D01*
X1880Y129D01*
X1880Y125D01*
X1882Y125D01*
X1882Y123D01*
X1884Y123D01*
X1884Y117D01*
X1886Y117D01*
X1886Y111D01*
X1888Y111D01*
X1888Y73D01*
X1886Y73D01*
X1886Y51D01*
X1952Y51D01*
X1952Y73D01*
X1950Y73D01*
X1950Y111D01*
X1952Y111D01*
X1952Y117D01*
X1954Y117D01*
X1954Y121D01*
X1956Y121D01*
X1956Y125D01*
X1958Y125D01*
X1958Y129D01*
X1960Y129D01*
X1960Y131D01*
X1962Y131D01*
X1962Y135D01*
X1964Y135D01*
X1964Y137D01*
X1966Y137D01*
X1966Y139D01*
X1968Y139D01*
X1968Y141D01*
X1970Y141D01*
X1970Y143D01*
X1972Y143D01*
X1972Y145D01*
X1974Y145D01*
X1974Y147D01*
X1976Y147D01*
X1976Y149D01*
X1980Y149D01*
X1980Y151D01*
X1982Y151D01*
X1982Y153D01*
X1986Y153D01*
X1986Y155D01*
X1988Y155D01*
X1988Y157D01*
X1994Y157D01*
X1994Y159D01*
X2000Y159D01*
X2000Y161D01*
X1838Y161D01*
G37*
D02*
G36*
X2040Y161D02*
X2040Y159D01*
X2044Y159D01*
X2044Y157D01*
X2050Y157D01*
X2050Y155D01*
X2052Y155D01*
X2052Y153D01*
X2056Y153D01*
X2056Y151D01*
X2058Y151D01*
X2058Y149D01*
X2080Y149D01*
X2080Y151D01*
X2082Y151D01*
X2082Y153D01*
X2086Y153D01*
X2086Y155D01*
X2088Y155D01*
X2088Y157D01*
X2094Y157D01*
X2094Y159D01*
X2100Y159D01*
X2100Y161D01*
X2040Y161D01*
G37*
D02*
G36*
X2140Y161D02*
X2140Y159D01*
X2144Y159D01*
X2144Y157D01*
X2150Y157D01*
X2150Y155D01*
X2152Y155D01*
X2152Y153D01*
X2156Y153D01*
X2156Y151D01*
X2158Y151D01*
X2158Y149D01*
X2180Y149D01*
X2180Y151D01*
X2182Y151D01*
X2182Y153D01*
X2186Y153D01*
X2186Y155D01*
X2188Y155D01*
X2188Y157D01*
X2194Y157D01*
X2194Y159D01*
X2200Y159D01*
X2200Y161D01*
X2140Y161D01*
G37*
D02*
G36*
X2240Y161D02*
X2240Y159D01*
X2244Y159D01*
X2244Y157D01*
X2250Y157D01*
X2250Y155D01*
X2252Y155D01*
X2252Y153D01*
X2256Y153D01*
X2256Y151D01*
X2258Y151D01*
X2258Y149D01*
X2280Y149D01*
X2280Y151D01*
X2282Y151D01*
X2282Y153D01*
X2286Y153D01*
X2286Y155D01*
X2288Y155D01*
X2288Y157D01*
X2294Y157D01*
X2294Y159D01*
X2300Y159D01*
X2300Y161D01*
X2240Y161D01*
G37*
D02*
G36*
X2340Y161D02*
X2340Y159D01*
X2344Y159D01*
X2344Y157D01*
X2350Y157D01*
X2350Y155D01*
X2352Y155D01*
X2352Y153D01*
X2356Y153D01*
X2356Y151D01*
X2358Y151D01*
X2358Y149D01*
X2380Y149D01*
X2380Y151D01*
X2382Y151D01*
X2382Y153D01*
X2386Y153D01*
X2386Y155D01*
X2388Y155D01*
X2388Y157D01*
X2394Y157D01*
X2394Y159D01*
X2400Y159D01*
X2400Y161D01*
X2340Y161D01*
G37*
D02*
G36*
X2440Y161D02*
X2440Y159D01*
X2444Y159D01*
X2444Y157D01*
X2450Y157D01*
X2450Y155D01*
X2452Y155D01*
X2452Y153D01*
X2456Y153D01*
X2456Y151D01*
X2458Y151D01*
X2458Y149D01*
X2480Y149D01*
X2480Y151D01*
X2482Y151D01*
X2482Y153D01*
X2486Y153D01*
X2486Y155D01*
X2488Y155D01*
X2488Y157D01*
X2494Y157D01*
X2494Y159D01*
X2500Y159D01*
X2500Y161D01*
X2440Y161D01*
G37*
D02*
G36*
X1024Y1459D02*
X1078Y1459D01*
X1078Y1428D01*
X1024Y1428D01*
X1024Y1459D01*
G37*
D02*
G36*
X1561Y1251D02*
X1598Y1251D01*
X1598Y1193D01*
X1561Y1193D01*
X1561Y1251D01*
G37*
D02*
G36*
X1508Y1282D02*
X1566Y1282D01*
X1566Y1245D01*
X1508Y1245D01*
X1508Y1282D01*
G37*
D02*
G36*
X1592Y1282D02*
X1650Y1282D01*
X1650Y1245D01*
X1592Y1245D01*
X1592Y1282D01*
G37*
D02*
G36*
X2480Y735D02*
X2511Y735D01*
X2511Y681D01*
X2480Y681D01*
X2480Y735D01*
G37*
D02*
G36*
X2430Y685D02*
X2484Y685D01*
X2484Y654D01*
X2430Y654D01*
X2430Y685D01*
G37*
D02*
G36*
X1599Y165D02*
X1636Y165D01*
X1636Y109D01*
X1599Y109D01*
X1599Y165D01*
G37*
D02*
G36*
X1599Y83D02*
X1636Y83D01*
X1636Y1D01*
X1599Y1D01*
X1599Y83D01*
G37*
D02*
G36*
X1699Y83D02*
X1736Y83D01*
X1736Y1D01*
X1699Y1D01*
X1699Y83D01*
G37*
D02*
G36*
X2592Y479D02*
X2623Y479D01*
X2623Y425D01*
X2592Y425D01*
X2592Y479D01*
G37*
D02*
G36*
X2592Y403D02*
X2623Y403D01*
X2623Y347D01*
X2592Y347D01*
X2592Y403D01*
G37*
D02*
G54D23*
X1029Y2101D02*
X1065Y2101D01*
X1029Y2100D02*
X1065Y2100D01*
X1029Y2099D02*
X1065Y2099D01*
X1029Y2098D02*
X1065Y2098D01*
X1029Y2097D02*
X1065Y2097D01*
X1029Y2096D02*
X1065Y2096D01*
X1029Y2095D02*
X1065Y2095D01*
X1029Y2094D02*
X1065Y2094D01*
X1029Y2093D02*
X1065Y2093D01*
X1029Y2092D02*
X1065Y2092D01*
X1029Y2091D02*
X1065Y2091D01*
X1029Y2090D02*
X1065Y2090D01*
X1029Y2089D02*
X1065Y2089D01*
X1029Y2088D02*
X1065Y2088D01*
X1029Y2087D02*
X1065Y2087D01*
X1029Y2086D02*
X1065Y2086D01*
X1029Y2085D02*
X1065Y2085D01*
X1029Y2084D02*
X1065Y2084D01*
X1029Y2083D02*
X1065Y2083D01*
X1029Y2082D02*
X1065Y2082D01*
X1029Y2081D02*
X1065Y2081D01*
X1029Y2080D02*
X1065Y2080D01*
X1029Y2079D02*
X1065Y2079D01*
X1029Y2078D02*
X1065Y2078D01*
X1029Y2077D02*
X1065Y2077D01*
X1029Y2076D02*
X1065Y2076D01*
X1029Y2075D02*
X1065Y2075D01*
X1029Y2074D02*
X1065Y2074D01*
X1029Y2073D02*
X1065Y2073D01*
X1029Y2072D02*
X1065Y2072D01*
X1029Y2071D02*
X1065Y2071D01*
X1029Y2070D02*
X1065Y2070D01*
X1029Y2069D02*
X1065Y2069D01*
X1029Y2068D02*
X1065Y2068D01*
X1029Y2067D02*
X1065Y2067D01*
X1029Y2066D02*
X1065Y2066D01*
X1029Y2065D02*
X1065Y2065D01*
X1029Y2064D02*
X1065Y2064D01*
X1029Y2063D02*
X1065Y2063D01*
X1029Y2062D02*
X1065Y2062D01*
X1029Y2061D02*
X1065Y2061D01*
X1029Y2060D02*
X1065Y2060D01*
X1029Y2059D02*
X1065Y2059D01*
X1029Y2058D02*
X1065Y2058D01*
X1029Y2057D02*
X1065Y2057D01*
X1029Y2056D02*
X1065Y2056D01*
X1029Y2055D02*
X1065Y2055D01*
X1029Y2054D02*
X1065Y2054D01*
X1029Y2053D02*
X1065Y2053D01*
X1029Y2052D02*
X1065Y2052D01*
X1029Y2051D02*
X1065Y2051D01*
X1029Y2050D02*
X1065Y2050D01*
X1029Y2049D02*
X1065Y2049D01*
X1029Y2048D02*
X1065Y2048D01*
X1029Y2047D02*
X1065Y2047D01*
X1029Y2046D02*
X1065Y2046D01*
X1029Y2045D02*
X1065Y2045D01*
X1029Y2044D02*
X1065Y2044D01*
X1029Y2043D02*
X1065Y2043D01*
X1029Y2042D02*
X1065Y2042D01*
X1029Y2041D02*
X1065Y2041D01*
X1029Y2040D02*
X1065Y2040D01*
X1029Y2039D02*
X1065Y2039D01*
X1029Y2038D02*
X1065Y2038D01*
X1029Y2037D02*
X1065Y2037D01*
X1029Y2036D02*
X1065Y2036D01*
X1029Y2035D02*
X1065Y2035D01*
X1029Y2034D02*
X1065Y2034D01*
X1029Y2033D02*
X1065Y2033D01*
X1029Y2032D02*
X1065Y2032D01*
X1029Y2031D02*
X1065Y2031D01*
X1029Y2030D02*
X1065Y2030D01*
X1029Y2029D02*
X1065Y2029D01*
X1029Y2028D02*
X1065Y2028D01*
X1029Y2027D02*
X1065Y2027D01*
X1029Y2026D02*
X1065Y2026D01*
X1029Y2025D02*
X1065Y2025D01*
X1029Y2024D02*
X1065Y2024D01*
X1029Y2023D02*
X1065Y2023D01*
X1029Y2022D02*
X1065Y2022D01*
X1029Y2021D02*
X1065Y2021D01*
X1029Y2020D02*
X1065Y2020D01*
X1029Y2019D02*
X1065Y2019D01*
X1029Y2018D02*
X1065Y2018D01*
X1029Y2017D02*
X1065Y2017D01*
X1029Y2016D02*
X1065Y2016D01*
X1029Y2015D02*
X1065Y2015D01*
X1029Y2014D02*
X1065Y2014D01*
X1029Y2013D02*
X1065Y2013D01*
X1029Y2012D02*
X1065Y2012D01*
X1029Y2011D02*
X1065Y2011D01*
X1029Y2010D02*
X1065Y2010D01*
X1029Y2009D02*
X1065Y2009D01*
X1029Y2008D02*
X1065Y2008D01*
D02*
G04 End of Copper1*
M02*