M48
M72,TZ
T10C0.034167
T11C0.028000
T12C0.035000
T13C0.031497
T14C0.046111
T15C0.038000
T16C0.040000
%
T10
X2.519070Y0.092400
X2.419080Y0.092400
X2.319080Y0.092400
X2.219070Y0.092400
X2.119070Y0.092400
X2.019070Y0.092400
X1.819080Y0.092400
X1.719070Y0.092400
X1.619070Y0.092400
X1.519070Y0.092400
X1.419080Y0.092400
X1.319080Y0.092400
X1.219070Y0.092400
X1.119070Y0.092400
X2.519070Y1.992397
X2.419080Y1.992397
X2.319080Y1.992397
X2.219070Y1.992397
X2.119070Y1.992397
X2.019070Y1.992397
X1.919080Y1.992397
X1.819080Y1.992397
X1.649070Y1.992397
X1.549070Y1.992397
X1.449070Y1.992397
X1.349080Y1.992397
X1.249080Y1.992397
X1.149070Y1.992397
X1.049070Y1.992397
X0.949067Y1.992397
X0.842067Y1.992397
X0.742067Y1.992397
T11
X2.190580Y0.576450
X2.111580Y0.576450
X2.032580Y0.576450
X1.953580Y0.576450
X1.874580Y0.576450
X1.795580Y0.576450
X1.716580Y0.576450
X1.637580Y0.576450
X1.558580Y0.576450
X1.479580Y0.576450
X1.479580Y1.446448
X1.558580Y1.446448
X1.637580Y1.446448
X1.716580Y1.446448
X1.795580Y1.446448
X1.874580Y1.446448
X1.953580Y1.446448
X2.032580Y1.446448
X2.111580Y1.446448
X2.190580Y1.446448
T12
X1.580970Y1.262103
X1.980970Y1.262103
X2.102320Y1.263959
X2.502320Y1.263959
X0.588833Y1.796892
X0.588833Y1.396892
X2.204660Y0.848850
X1.804660Y0.848850
X0.692833Y0.995870
X0.692833Y1.395870
X1.090740Y1.185659
X1.490740Y1.185659
X1.087960Y0.808810
X1.487960Y0.808810
X2.193520Y0.990290
X1.793520Y0.990290
T13
X1.090740Y1.442714
X1.090740Y1.344281
X2.609750Y0.411150
X2.511320Y0.411150
X0.374956Y0.901760
X0.473389Y0.901760
X1.089820Y0.572130
X1.089820Y0.670560
X2.497580Y0.667140
X2.596010Y0.667140
T14
X0.264380Y1.860143
X0.264380Y1.760143
X0.264380Y1.660143
X0.264380Y1.560157
T15
X0.844433Y0.558370
X0.844433Y0.458370
X0.844433Y0.358370
T16
X0.174611Y0.861640
X0.174611Y0.999430
X0.174611Y1.137228
T00
M30
